<?xml version="1.0" encoding="UTF-8" standalone="no"?>
<!-- Created with Inkscape (http://www.inkscape.org/) -->

<svg
   xmlns:dc="http://purl.org/dc/elements/1.1/"
   xmlns:cc="http://creativecommons.org/ns#"
   xmlns:rdf="http://www.w3.org/1999/02/22-rdf-syntax-ns#"
   xmlns:svg="http://www.w3.org/2000/svg"
   xmlns="http://www.w3.org/2000/svg"
   version="1.1"
   width="736.6001"
   height="739.1684"
   id="svg3604"
   xml:space="preserve"><metadata
     id="metadata3610"><rdf:RDF><cc:Work
         rdf:about=""><dc:format>image/svg+xml</dc:format><dc:type
           rdf:resource="http://purl.org/dc/dcmitype/StillImage" /><dc:title></dc:title></cc:Work></rdf:RDF></metadata><defs
     id="defs3608"><clipPath
       id="clipPath3618"><path
         d="M 0,792 612,792 612,0 0,0 0,792 z"
         id="path3620" /></clipPath><clipPath
       id="clipPath3962"><path
         d="M 0,792 612,792 612,0 0,0 0,792 z"
         id="path3964" /></clipPath></defs><g
     transform="matrix(1.25,0,0,-1.25,-13.768839,972.70813)"
     id="g3612"><g
       id="g3614"><g
         clip-path="url(#clipPath3618)"
         id="g3616"><g
           transform="translate(182,636)"
           id="g3622"><path
             d="m 0,0 c 0,0 -74,-82 -107,-101 0,0 2,-88.333 5,-107.667 0,0 -28.333,26.334 -37,41.667 0,0 -1,-7.333 0,-11 0,0 -51.667,79 -23.667,186 28,107 149.334,144.667 207,111 0,0 91.001,4.667 105.334,-118.333 14.333,-123 -28,-174.334 -28,-174.334 l 2.333,31 c 0,0 -3.333,-27.332 -35.667,-66 0,0 9.334,94 6,114.667 0,0 -55.666,50 -60.666,102.667 0,0 -14.667,-68.667 -80.334,-110 0,0 36,55.666 46.667,101.333"
             id="path3624"
             style="fill:#4d4d4d;fill-opacity:1;fill-rule:nonzero;stroke:none" /></g><g
           transform="translate(181.1484,539.6665)"
           id="g3626"><path
             d="m 0,0 -15.588,0 c -21.072,10.245 -100.56,16.046 -100.56,16.046 1.037,-24.211 -1.729,-69.865 50.497,-75.746 37.109,-4.177 46.974,27.61 49.578,46.367 l 16.558,0 C 3.089,-32.09 12.955,-63.877 50.063,-59.7 102.29,-53.819 99.523,-8.165 100.561,16.046 100.561,16.046 21.072,10.245 0,0"
             id="path3628"
             style="fill:#4d4d4d;fill-opacity:1;fill-rule:nonzero;stroke:none" /></g><g
           transform="translate(95,581.6665)"
           id="g3630"><path
             d="M 0,0 58.667,-21.333 57,-25.954 C 57,-25.954 16.667,-15 0,-2 -16.667,11 0,0 0,0"
             id="path3632"
             style="fill:#4d4d4d;fill-opacity:1;fill-rule:nonzero;stroke:none" /></g><g
           transform="translate(247.9268,581.6665)"
           id="g3634"><path
             d="M 0,0 -58.667,-21.333 -57,-25.954 c 0,0 40.333,10.954 57,23.954 16.667,13 0,2 0,2"
             id="path3636"
             style="fill:#4d4d4d;fill-opacity:1;fill-rule:nonzero;stroke:none" /></g><g
           transform="translate(172.8223,477.6665)"
           id="g3638"><path
             d="M 0,0 C 0,0 -3.511,-7 0,-12.333"
             id="path3640"
             style="fill:none;stroke:#4d4d4d;stroke-width:3;stroke-linecap:butt;stroke-linejoin:miter;stroke-miterlimit:10;stroke-opacity:1;stroke-dasharray:none" /></g><g
           transform="translate(147,441.6665)"
           id="g3642"><path
             d="M 0,0 C 0,0 30.667,5.333 53.333,2"
             id="path3644"
             style="fill:none;stroke:#4d4d4d;stroke-width:3;stroke-linecap:butt;stroke-linejoin:miter;stroke-miterlimit:10;stroke-opacity:1;stroke-dasharray:none" /></g><g
           transform="translate(61.6665,479.5928)"
           id="g3646"><path
             d="m 0,0 c 0,0 23.084,-63.593 110.375,-63.593 87.292,0 119.292,69.333 119.292,69.333"
             id="path3648"
             style="fill:none;stroke:#4d4d4d;stroke-width:3;stroke-linecap:butt;stroke-linejoin:miter;stroke-miterlimit:10;stroke-opacity:1;stroke-dasharray:none" /></g><g
           transform="translate(139.0615,419.3882)"
           id="g3650"><path
             d="m 0,0 c 0,0 -4.562,-23.388 11.688,-41.888 l 16.25,23 3,-0.75 -12.489,16.868"
             id="path3652"
             style="fill:none;stroke:#4d4d4d;stroke-width:3;stroke-linecap:butt;stroke-linejoin:miter;stroke-miterlimit:10;stroke-opacity:1;stroke-dasharray:none" /></g><g
           transform="translate(203.9053,419.3882)"
           id="g3654"><path
             d="m 0,0 c 0,0 4.562,-23.388 -11.688,-41.888 l -16.25,23 -3,-0.75 12.489,16.868"
             id="path3656"
             style="fill:none;stroke:#4d4d4d;stroke-width:3;stroke-linecap:butt;stroke-linejoin:miter;stroke-miterlimit:10;stroke-opacity:1;stroke-dasharray:none" /></g><g
           transform="translate(130.25,341.25)"
           id="g3658"><path
             d="M 0,0 8.222,12.5 -15.75,39.25 -0.987,78.34 c 0,0 0.057,1.427 -1.261,0.315 C -6.485,75.08 -16.75,66.958 -28,62 -42.75,55.5 -53.75,51.75 -55,50.25 c -1.25,-1.5 -7.25,-124.5 13.5,-134.25 20.75,-9.75 84.511,18.653 84.511,18.653"
             id="path3660"
             style="fill:none;stroke:#4d4d4d;stroke-width:3;stroke-linecap:butt;stroke-linejoin:miter;stroke-miterlimit:10;stroke-opacity:1;stroke-dasharray:none" /></g><g
           transform="translate(214.2422,422.0259)"
           id="g3662"><path
             d="m 0,0 15.508,-47.276 -22,-21.5 11,-21 -9.25,-10.25"
             id="path3664"
             style="fill:none;stroke:#4d4d4d;stroke-width:3;stroke-linecap:butt;stroke-linejoin:miter;stroke-miterlimit:10;stroke-opacity:1;stroke-dasharray:none" /></g><g
           transform="translate(216,422.0259)"
           id="g3666"><path
             d="m 0,0 c 0,0 28,-25.276 56,-31.026 0,0 3.5,-122.25 -16.25,-129.5 -19.75,-7.25 -101.514,21.25 -101.514,21.25 0,0 0.014,36.143 15.764,55.071 0,0 48.5,-18.071 52.5,-19.821 4,-1.75 20.25,-36.25 22.75,-44.5"
             id="path3668"
             style="fill:none;stroke:#4d4d4d;stroke-width:3;stroke-linecap:butt;stroke-linejoin:miter;stroke-miterlimit:10;stroke-opacity:1;stroke-dasharray:none" /></g><g
           transform="translate(224.3872,316.1035)"
           id="g3670"><path
             d="m 0,0 c 0,0 -1.387,4.896 3.363,5.896 0,0 0.5,32 5.25,39.5 4.75,7.5 23,21.75 39,29.5"
             id="path3672"
             style="fill:none;stroke:#4d4d4d;stroke-width:3;stroke-linecap:butt;stroke-linejoin:miter;stroke-miterlimit:10;stroke-opacity:1;stroke-dasharray:none" /></g><g
           transform="translate(121.9785,316.1035)"
           id="g3674"><path
             d="m 0,0 c 0,0 1.387,4.896 -3.363,5.896 0,0 -0.5,32 -5.25,39.5 -4.75,7.5 -23,21.75 -39,29.5"
             id="path3676"
             style="fill:none;stroke:#4d4d4d;stroke-width:3;stroke-linecap:butt;stroke-linejoin:miter;stroke-miterlimit:10;stroke-opacity:1;stroke-dasharray:none" /></g><g
           transform="translate(168.5732,336.0039)"
           id="g3678"><path
             d="m 0,0 -14.337,3.996 c 0,0 -16.736,-14.5 -14.736,-52 l 14.453,-3.5"
             id="path3680"
             style="fill:none;stroke:#4d4d4d;stroke-width:3;stroke-linecap:butt;stroke-linejoin:miter;stroke-miterlimit:10;stroke-opacity:1;stroke-dasharray:none" /></g><g
           transform="translate(145.25,332.3203)"
           id="g3682"><path
             d="m 0,0 c -0.534,-4.648 -6.32,-7.801 -12.924,-7.043 -6.603,0.758 -11.524,5.141 -10.991,9.789 0.534,4.649 6.32,7.801 12.924,7.043 C -4.387,9.031 0.534,4.648 0,0 z"
             id="path3684"
             style="fill:none;stroke:#4d4d4d;stroke-width:3;stroke-linecap:butt;stroke-linejoin:miter;stroke-miterlimit:10;stroke-opacity:1;stroke-dasharray:none" /></g><g
           transform="translate(142.2598,335.4287)"
           id="g3686"><path
             d="m 0,0 c -0.371,-3.224 -4.383,-5.41 -8.962,-4.884 -4.58,0.526 -7.993,3.565 -7.622,6.788 0.37,3.224 4.382,5.41 8.962,4.885 C -3.043,6.263 0.37,3.224 0,0 z"
             id="path3688"
             style="fill:none;stroke:#4d4d4d;stroke-width:3;stroke-linecap:butt;stroke-linejoin:miter;stroke-miterlimit:10;stroke-opacity:1;stroke-dasharray:none" /></g><g
           transform="translate(124.166,328.7031)"
           id="g3690"><path
             d="m 0,0 c 0,0 -6.12,-18.953 1.482,-29.203 l 12.824,-3.5 c 0,0 -6.279,12.724 0,29.737"
             id="path3692"
             style="fill:none;stroke:#4d4d4d;stroke-width:3;stroke-linecap:butt;stroke-linejoin:miter;stroke-miterlimit:10;stroke-opacity:1;stroke-dasharray:none" /></g><g
           transform="translate(123.063,304.6895)"
           id="g3694"><path
             d="M 0,0 13.331,-3.82"
             id="path3696"
             style="fill:none;stroke:#4d4d4d;stroke-width:2;stroke-linecap:butt;stroke-linejoin:miter;stroke-miterlimit:10;stroke-opacity:1;stroke-dasharray:none" /></g><g
           transform="translate(123.0103,309.8213)"
           id="g3698"><path
             d="M 0,0 13.331,-3.82"
             id="path3700"
             style="fill:none;stroke:#4d4d4d;stroke-width:2;stroke-linecap:butt;stroke-linejoin:miter;stroke-miterlimit:10;stroke-opacity:1;stroke-dasharray:none" /></g><g
           transform="translate(121.8369,316.1035)"
           id="g3702"><path
             d="M 0,0 13.331,-3.82"
             id="path3704"
             style="fill:none;stroke:#4d4d4d;stroke-width:2;stroke-linecap:butt;stroke-linejoin:miter;stroke-miterlimit:10;stroke-opacity:1;stroke-dasharray:none" /></g><g
           transform="translate(121.8369,322)"
           id="g3706"><path
             d="M 0,0 13.331,-3.82"
             id="path3708"
             style="fill:none;stroke:#4d4d4d;stroke-width:2;stroke-linecap:butt;stroke-linejoin:miter;stroke-miterlimit:10;stroke-opacity:1;stroke-dasharray:none" /></g><g
           transform="translate(96.25,273.25)"
           id="g3710"><path
             d="M 0,0 C 0,0 12.59,26.274 25.046,39.102"
             id="path3712"
             style="fill:none;stroke:#4d4d4d;stroke-width:3;stroke-linecap:butt;stroke-linejoin:miter;stroke-miterlimit:10;stroke-opacity:1;stroke-dasharray:none" /></g><g
           transform="translate(186.2236,331.7617)"
           id="g3714"><path
             d="M 0,0 C 2.507,7.821 16.727,66.683 16.727,66.683"
             id="path3716"
             style="fill:none;stroke:#4d4d4d;stroke-width:3;stroke-linecap:butt;stroke-linejoin:miter;stroke-miterlimit:10;stroke-opacity:1;stroke-dasharray:none" /></g><g
           transform="translate(159.6724,390.1279)"
           id="g3718"><path
             d="m 0,0 c 0,0 2.328,-10.128 5.078,-12.628 l 14.25,0 c 0,0 3.339,6.006 4.295,12.628 L 16.828,9.617 6.794,9.617 0,0 z"
             id="path3720"
             style="fill:#4d4d4d;fill-opacity:1;fill-rule:nonzero;stroke:none" /></g><g
           transform="translate(159.6724,390.1279)"
           id="g3722"><path
             d="m 0,0 c 0,0 2.328,-10.128 5.078,-12.628 l 14.25,0 c 0,0 3.339,6.006 4.295,12.628 L 16.828,9.617 6.794,9.617 0,0 z"
             id="path3724"
             style="fill:none;stroke:#4d4d4d;stroke-width:3;stroke-linecap:butt;stroke-linejoin:miter;stroke-miterlimit:10;stroke-opacity:1;stroke-dasharray:none" /></g><g
           transform="translate(167.2197,336.3809)"
           id="g3726"><path
             d="M 0,0 2.78,1.44 17.551,-4.076 21.511,4.565 10.756,41.119 -0.97,44.369 -9.61,10.334 -6.913,1.927"
             id="path3728"
             style="fill:#4d4d4d;fill-opacity:1;fill-rule:nonzero;stroke:#4d4d4d;stroke-width:3;stroke-linecap:butt;stroke-linejoin:miter;stroke-miterlimit:10;stroke-opacity:1;stroke-dasharray:none" /></g><g
           transform="translate(143.4531,388.623)"
           id="g3730"><path
             d="M 0,0 C 0,0 8.954,-31.079 16.854,-50.315"
             id="path3732"
             style="fill:none;stroke:#4d4d4d;stroke-width:3;stroke-linecap:butt;stroke-linejoin:miter;stroke-miterlimit:10;stroke-opacity:1;stroke-dasharray:none" /></g><g
           transform="translate(107.75,255.3145)"
           id="g3734"><path
             d="M 0,0 C 0,0 1.046,-9.814 1.023,-11.564 1,-13.314 -12,-35.15 -19.75,-66.982"
             id="path3736"
             style="fill:none;stroke:#4d4d4d;stroke-width:3;stroke-linecap:butt;stroke-linejoin:miter;stroke-miterlimit:10;stroke-opacity:1;stroke-dasharray:none" /></g><g
           transform="translate(251.75,260.3193)"
           id="g3738"><path
             d="m 0,0 c 0,0 -1.312,-14.819 -1.289,-16.569 0.023,-1.75 13.023,-23.586 20.773,-55.418"
             id="path3740"
             style="fill:none;stroke:#4d4d4d;stroke-width:3;stroke-linecap:butt;stroke-linejoin:miter;stroke-miterlimit:10;stroke-opacity:1;stroke-dasharray:none" /></g><g
           transform="translate(117.8584,337.8213)"
           id="g3742"><path
             d="M 0,0 3.979,-0.948"
             id="path3744"
             style="fill:none;stroke:#4d4d4d;stroke-width:3;stroke-linecap:butt;stroke-linejoin:miter;stroke-miterlimit:10;stroke-opacity:1;stroke-dasharray:none" /></g><g
           transform="translate(163.918,272.4541)"
           id="g3746"><path
             d="M 0,0 4.655,-61.204 34.332,-84.122"
             id="path3748"
             style="fill:none;stroke:#4d4d4d;stroke-width:3;stroke-linecap:butt;stroke-linejoin:miter;stroke-miterlimit:10;stroke-opacity:1;stroke-dasharray:none" /></g><g
           transform="translate(179.4585,202.8438)"
           id="g3750"><path
             d="M 0,0 -16.708,-14.512"
             id="path3752"
             style="fill:none;stroke:#4d4d4d;stroke-width:3;stroke-linecap:butt;stroke-linejoin:miter;stroke-miterlimit:10;stroke-opacity:1;stroke-dasharray:none" /></g><g
           transform="translate(189.9072,221.8232)"
           id="g3754"><path
             d="m 0,0 c 0,-4.873 -3.95,-8.823 -8.823,-8.823 -4.873,0 -8.823,3.95 -8.823,8.823 0,4.873 3.95,8.823 8.823,8.823 C -3.95,8.823 0,4.873 0,0 z"
             id="path3756"
             style="fill:none;stroke:#4d4d4d;stroke-width:3;stroke-linecap:butt;stroke-linejoin:miter;stroke-miterlimit:10;stroke-opacity:1;stroke-dasharray:none" /></g><g
           transform="translate(129.6758,420.6836)"
           id="g3758"><path
             d="m 0,0 c 0,0 -21.842,-18.684 -54.426,-29.184 0,0 -8.063,-129.601 13.5,-134.25 16.917,-3.646 18.25,-0.25 18.25,-0.25 l 1.773,-13.25 c 0,0 -18.439,-40.086 -20.773,-55.418 l 183.235,0 c 0,0 -12.978,45.168 -20.773,55.418 l 1.288,16.57 c 0,0 9.633,-0.183 12.949,16.248 3.317,16.43 11.301,70.432 7.301,114.432 0,0 -21.333,3.052 -56,31.026 L 74.229,-1.295 c 0,0 4.876,-11.532 -17.681,-87.627 l -16.224,6.06 c 0,0 -14.426,-12.155 -16.046,-53.322 l -14.454,3.5 -1.028,8 -12.824,3.5 c 0,0 -3.638,3.094 -3.811,20.025 l -3.221,2.475 -0.757,15.822 3.978,-0.949 c 0,0 1.083,5.719 11.456,5.423 10.374,-0.296 11.957,-9.975 11.957,-9.975 0,0 -1.445,-5.321 8.986,7.679 10.431,13 0,1.173 0,1.173 l 6.071,-2.865 c 0,0 -20.517,42.136 -21.245,81.081 L 0,0 z"
             id="path3760"
             style="fill:#4d4d4d;fill-opacity:1;fill-rule:nonzero;stroke:none" /></g><g
           transform="translate(449.1484,539.6665)"
           id="g3762"><path
             d="m 0,0 -15.588,0 c -21.071,10.245 -100.56,16.046 -100.56,16.046 1.038,-24.211 -1.729,-69.865 50.498,-75.746 37.108,-4.177 46.974,27.61 49.578,46.367 l 16.557,0 C 3.09,-32.09 12.955,-63.877 50.063,-59.7 102.29,-53.819 99.523,-8.165 100.561,16.046 100.561,16.046 21.072,10.245 0,0"
             id="path3764"
             style="fill:#4d4d4d;fill-opacity:1;fill-rule:nonzero;stroke:none" /></g><g
           transform="translate(363,581.6665)"
           id="g3766"><path
             d="M 0,0 58.667,-21.333 57,-25.954 C 57,-25.954 16.667,-15 0,-2 -16.666,11 0,0 0,0"
             id="path3768"
             style="fill:#4d4d4d;fill-opacity:1;fill-rule:nonzero;stroke:none" /></g><g
           transform="translate(515.9277,581.6665)"
           id="g3770"><path
             d="M 0,0 -58.667,-21.333 -57,-25.954 c 0,0 40.333,10.954 57,23.954 16.666,13 0,2 0,2"
             id="path3772"
             style="fill:#4d4d4d;fill-opacity:1;fill-rule:nonzero;stroke:none" /></g><g
           transform="translate(440.8223,477.6665)"
           id="g3774"><path
             d="M 0,0 C 0,0 -3.511,-7 0,-12.333"
             id="path3776"
             style="fill:none;stroke:#4d4d4d;stroke-width:3;stroke-linecap:butt;stroke-linejoin:miter;stroke-miterlimit:10;stroke-opacity:1;stroke-dasharray:none" /></g><g
           transform="translate(415,441.6665)"
           id="g3778"><path
             d="M 0,0 C 0,0 30.668,5.333 53.334,2"
             id="path3780"
             style="fill:none;stroke:#4d4d4d;stroke-width:3;stroke-linecap:butt;stroke-linejoin:miter;stroke-miterlimit:10;stroke-opacity:1;stroke-dasharray:none" /></g><g
           transform="translate(318,586.0127)"
           id="g3782"><path
             d="m 0,0 c -1.667,-70.32 11.667,-106.42 11.667,-106.42 0,0 23.084,-63.593 110.376,-63.593 87.291,0 105.29,49.333 105.29,49.333 0,0 15.334,33 22.667,85 0,0 -13.667,27 -16.667,44 L 242,3.654 c 0,0 -4.001,4.333 -7.667,33 l 13.334,-2 c 0,0 -14,32.666 -53.667,31 0,0 4.334,5.333 16.667,6.333 0,0 -21.666,1.333 -35,-7.667"
             id="path3784"
             style="fill:none;stroke:#4d4d4d;stroke-width:3;stroke-linecap:butt;stroke-linejoin:miter;stroke-miterlimit:10;stroke-opacity:1;stroke-dasharray:none" /></g><g
           transform="translate(407.0625,419.3882)"
           id="g3786"><path
             d="m 0,0 c 0,0 -4.563,-23.388 11.688,-41.888 l 16.25,23 3,-0.75 -12.49,16.868"
             id="path3788"
             style="fill:none;stroke:#4d4d4d;stroke-width:3;stroke-linecap:butt;stroke-linejoin:miter;stroke-miterlimit:10;stroke-opacity:1;stroke-dasharray:none" /></g><g
           transform="translate(471.9063,419.3882)"
           id="g3790"><path
             d="m 0,0 c 0,0 4.561,-23.388 -11.689,-41.888 l -16.25,23 -3,-0.75 12.49,16.868"
             id="path3792"
             style="fill:none;stroke:#4d4d4d;stroke-width:3;stroke-linecap:butt;stroke-linejoin:miter;stroke-miterlimit:10;stroke-opacity:1;stroke-dasharray:none" /></g><g
           transform="translate(398.25,341.25)"
           id="g3794"><path
             d="M 0,0 8.223,12.5 -15.75,39.25 -0.986,78.34 c 0,0 0.056,1.427 -1.261,0.315 C -6.484,75.08 -16.749,66.958 -28,62 -42.75,55.5 -53.75,51.75 -55,50.25 c -1.25,-1.5 -7.25,-124.5 13.5,-134.25 20.75,-9.75 84.512,18.653 84.512,18.653"
             id="path3796"
             style="fill:none;stroke:#4d4d4d;stroke-width:3;stroke-linecap:butt;stroke-linejoin:miter;stroke-miterlimit:10;stroke-opacity:1;stroke-dasharray:none" /></g><g
           transform="translate(482.2422,422.0259)"
           id="g3798"><path
             d="m 0,0 15.508,-47.276 -22,-21.5 11,-21 -9.25,-10.25"
             id="path3800"
             style="fill:none;stroke:#4d4d4d;stroke-width:3;stroke-linecap:butt;stroke-linejoin:miter;stroke-miterlimit:10;stroke-opacity:1;stroke-dasharray:none" /></g><g
           transform="translate(484,422.0259)"
           id="g3802"><path
             d="m 0,0 c 0,0 28,-25.276 56,-31.026 0,0 3.5,-122.25 -16.25,-129.5 -19.75,-7.25 -101.514,21.25 -101.514,21.25 0,0 0.014,36.143 15.764,55.071 0,0 48.5,-18.071 52.5,-19.821 4,-1.75 20.25,-36.25 22.75,-44.5"
             id="path3804"
             style="fill:none;stroke:#4d4d4d;stroke-width:3;stroke-linecap:butt;stroke-linejoin:miter;stroke-miterlimit:10;stroke-opacity:1;stroke-dasharray:none" /></g><g
           transform="translate(492.3877,316.1035)"
           id="g3806"><path
             d="m 0,0 c 0,0 -1.388,4.896 3.362,5.896 0,0 0.5,32 5.25,39.5 4.75,7.5 23,21.75 39,29.5"
             id="path3808"
             style="fill:none;stroke:#4d4d4d;stroke-width:3;stroke-linecap:butt;stroke-linejoin:miter;stroke-miterlimit:10;stroke-opacity:1;stroke-dasharray:none" /></g><g
           transform="translate(389.9785,316.1035)"
           id="g3810"><path
             d="m 0,0 c 0,0 1.388,4.896 -3.362,5.896 0,0 -0.5,32 -5.25,39.5 -4.75,7.5 -23,21.75 -39,29.5"
             id="path3812"
             style="fill:none;stroke:#4d4d4d;stroke-width:3;stroke-linecap:butt;stroke-linejoin:miter;stroke-miterlimit:10;stroke-opacity:1;stroke-dasharray:none" /></g><g
           transform="translate(436.5742,336.0039)"
           id="g3814"><path
             d="m 0,0 -14.338,3.996 c 0,0 -16.736,-14.5 -14.736,-52 l 14.454,-3.5"
             id="path3816"
             style="fill:none;stroke:#4d4d4d;stroke-width:3;stroke-linecap:butt;stroke-linejoin:miter;stroke-miterlimit:10;stroke-opacity:1;stroke-dasharray:none" /></g><g
           transform="translate(413.25,332.3203)"
           id="g3818"><path
             d="m 0,0 c -0.533,-4.648 -6.319,-7.801 -12.924,-7.043 -6.603,0.758 -11.523,5.141 -10.99,9.789 0.533,4.649 6.32,7.801 12.924,7.043 C -4.387,9.031 0.534,4.648 0,0 z"
             id="path3820"
             style="fill:none;stroke:#4d4d4d;stroke-width:3;stroke-linecap:butt;stroke-linejoin:miter;stroke-miterlimit:10;stroke-opacity:1;stroke-dasharray:none" /></g><g
           transform="translate(410.2598,335.4287)"
           id="g3822"><path
             d="m 0,0 c -0.37,-3.224 -4.383,-5.41 -8.962,-4.884 -4.579,0.526 -7.992,3.565 -7.622,6.788 0.37,3.224 4.383,5.41 8.963,4.885 C -3.043,6.263 0.37,3.224 0,0 z"
             id="path3824"
             style="fill:none;stroke:#4d4d4d;stroke-width:3;stroke-linecap:butt;stroke-linejoin:miter;stroke-miterlimit:10;stroke-opacity:1;stroke-dasharray:none" /></g><g
           transform="translate(392.166,328.7031)"
           id="g3826"><path
             d="m 0,0 c 0,0 -6.119,-18.953 1.482,-29.203 l 12.825,-3.5 c 0,0 -6.28,12.724 0,29.737"
             id="path3828"
             style="fill:none;stroke:#4d4d4d;stroke-width:3;stroke-linecap:butt;stroke-linejoin:miter;stroke-miterlimit:10;stroke-opacity:1;stroke-dasharray:none" /></g><g
           transform="translate(391.0635,304.6895)"
           id="g3830"><path
             d="M 0,0 13.331,-3.82"
             id="path3832"
             style="fill:none;stroke:#4d4d4d;stroke-width:2;stroke-linecap:butt;stroke-linejoin:miter;stroke-miterlimit:10;stroke-opacity:1;stroke-dasharray:none" /></g><g
           transform="translate(391.0107,309.8213)"
           id="g3834"><path
             d="M 0,0 13.331,-3.82"
             id="path3836"
             style="fill:none;stroke:#4d4d4d;stroke-width:2;stroke-linecap:butt;stroke-linejoin:miter;stroke-miterlimit:10;stroke-opacity:1;stroke-dasharray:none" /></g><g
           transform="translate(389.8379,316.1035)"
           id="g3838"><path
             d="M 0,0 13.33,-3.82"
             id="path3840"
             style="fill:none;stroke:#4d4d4d;stroke-width:2;stroke-linecap:butt;stroke-linejoin:miter;stroke-miterlimit:10;stroke-opacity:1;stroke-dasharray:none" /></g><g
           transform="translate(389.8379,322)"
           id="g3842"><path
             d="M 0,0 13.33,-3.82"
             id="path3844"
             style="fill:none;stroke:#4d4d4d;stroke-width:2;stroke-linecap:butt;stroke-linejoin:miter;stroke-miterlimit:10;stroke-opacity:1;stroke-dasharray:none" /></g><g
           transform="translate(364.25,273.25)"
           id="g3846"><path
             d="M 0,0 C 0,0 12.591,26.274 25.047,39.102"
             id="path3848"
             style="fill:none;stroke:#4d4d4d;stroke-width:3;stroke-linecap:butt;stroke-linejoin:miter;stroke-miterlimit:10;stroke-opacity:1;stroke-dasharray:none" /></g><g
           transform="translate(454.2246,331.7617)"
           id="g3850"><path
             d="M 0,0 C 2.507,7.821 16.727,66.683 16.727,66.683"
             id="path3852"
             style="fill:none;stroke:#4d4d4d;stroke-width:3;stroke-linecap:butt;stroke-linejoin:miter;stroke-miterlimit:10;stroke-opacity:1;stroke-dasharray:none" /></g><g
           transform="translate(427.6729,390.1279)"
           id="g3854"><path
             d="m 0,0 c 0,0 2.327,-10.128 5.077,-12.628 l 14.25,0 c 0,0 3.34,6.006 4.295,12.628 L 16.827,9.617 6.794,9.617 0,0 z"
             id="path3856"
             style="fill:#4d4d4d;fill-opacity:1;fill-rule:nonzero;stroke:none" /></g><g
           transform="translate(427.6729,390.1279)"
           id="g3858"><path
             d="m 0,0 c 0,0 2.327,-10.128 5.077,-12.628 l 14.25,0 c 0,0 3.34,6.006 4.295,12.628 L 16.827,9.617 6.794,9.617 0,0 z"
             id="path3860"
             style="fill:none;stroke:#4d4d4d;stroke-width:3;stroke-linecap:butt;stroke-linejoin:miter;stroke-miterlimit:10;stroke-opacity:1;stroke-dasharray:none" /></g><g
           transform="translate(435.2207,336.3809)"
           id="g3862"><path
             d="M 0,0 2.779,1.44 17.551,-4.076 21.511,4.565 10.756,41.119 -0.971,44.369 -9.61,10.334 -6.913,1.927"
             id="path3864"
             style="fill:#4d4d4d;fill-opacity:1;fill-rule:nonzero;stroke:#4d4d4d;stroke-width:3;stroke-linecap:butt;stroke-linejoin:miter;stroke-miterlimit:10;stroke-opacity:1;stroke-dasharray:none" /></g><g
           transform="translate(411.4531,388.623)"
           id="g3866"><path
             d="M 0,0 C 0,0 8.955,-31.079 16.854,-50.315"
             id="path3868"
             style="fill:none;stroke:#4d4d4d;stroke-width:3;stroke-linecap:butt;stroke-linejoin:miter;stroke-miterlimit:10;stroke-opacity:1;stroke-dasharray:none" /></g><g
           transform="translate(375.75,255.3145)"
           id="g3870"><path
             d="M 0,0 C 0,0 1.047,-9.814 1.023,-11.564 1,-13.314 -12,-35.15 -19.75,-66.982"
             id="path3872"
             style="fill:none;stroke:#4d4d4d;stroke-width:3;stroke-linecap:butt;stroke-linejoin:miter;stroke-miterlimit:10;stroke-opacity:1;stroke-dasharray:none" /></g><g
           transform="translate(519.75,260.3193)"
           id="g3874"><path
             d="m 0,0 c 0,0 -1.311,-14.819 -1.288,-16.569 0.022,-1.75 13.022,-23.586 20.772,-55.418"
             id="path3876"
             style="fill:none;stroke:#4d4d4d;stroke-width:3;stroke-linecap:butt;stroke-linejoin:miter;stroke-miterlimit:10;stroke-opacity:1;stroke-dasharray:none" /></g><g
           transform="translate(385.8594,337.8213)"
           id="g3878"><path
             d="M 0,0 3.979,-0.948"
             id="path3880"
             style="fill:none;stroke:#4d4d4d;stroke-width:3;stroke-linecap:butt;stroke-linejoin:miter;stroke-miterlimit:10;stroke-opacity:1;stroke-dasharray:none" /></g><g
           transform="translate(431.918,272.4541)"
           id="g3882"><path
             d="M 0,0 4.656,-61.204 34.332,-84.122"
             id="path3884"
             style="fill:none;stroke:#4d4d4d;stroke-width:3;stroke-linecap:butt;stroke-linejoin:miter;stroke-miterlimit:10;stroke-opacity:1;stroke-dasharray:none" /></g><g
           transform="translate(447.459,202.8438)"
           id="g3886"><path
             d="M 0,0 -16.709,-14.512"
             id="path3888"
             style="fill:none;stroke:#4d4d4d;stroke-width:3;stroke-linecap:butt;stroke-linejoin:miter;stroke-miterlimit:10;stroke-opacity:1;stroke-dasharray:none" /></g><g
           transform="translate(457.9082,221.8232)"
           id="g3890"><path
             d="m 0,0 c 0,-4.873 -3.951,-8.823 -8.824,-8.823 -4.873,0 -8.822,3.95 -8.822,8.823 0,4.873 3.949,8.823 8.822,8.823 C -3.951,8.823 0,4.873 0,0 z"
             id="path3892"
             style="fill:none;stroke:#4d4d4d;stroke-width:3;stroke-linecap:butt;stroke-linejoin:miter;stroke-miterlimit:10;stroke-opacity:1;stroke-dasharray:none" /></g><g
           transform="translate(397.6758,420.6836)"
           id="g3894"><path
             d="m 0,0 c 0,0 -21.842,-18.684 -54.426,-29.184 0,0 -8.062,-129.601 13.5,-134.25 16.917,-3.646 9.637,0.083 9.637,0.083 l -2.137,-18 c 0,0 -5.916,-35.669 -8.25,-51.001 l 183.235,0 c 0,0 -9.235,39.667 -13.235,54.334 l -3.667,16 c 0,0 7.05,1.471 10.366,17.902 3.318,16.43 11.301,70.432 7.301,114.432 0,0 -21.333,3.052 -56,31.026 L 74.23,-1.295 c 0,0 4.875,-11.532 -17.681,-87.627 l -16.225,6.06 c 0,0 -14.426,-12.155 -16.046,-53.322 l -14.454,3.5 -1.027,8 -12.824,3.5 c 0,0 -3.638,3.094 -3.811,20.025 l -3.222,2.475 -0.756,15.822 3.978,-0.949 c 0,0 1.082,5.719 11.455,5.423 10.374,-0.296 11.957,-9.975 11.957,-9.975 0,0 -1.444,-5.321 8.987,7.679 10.43,13 0,1.173 0,1.173 l 6.071,-2.865 c 0,0 -20.518,42.136 -21.245,81.081 L 0,0 z"
             id="path3896"
             style="fill:#4d4d4d;fill-opacity:1;fill-rule:nonzero;stroke:none" /></g><g
           transform="translate(457.9082,262.4268)"
           id="g3898"><path
             d="m 0,0 c 0,-4.873 -3.951,-8.823 -8.824,-8.823 -4.873,0 -8.822,3.95 -8.822,8.823 0,4.873 3.949,8.823 8.822,8.823 C -3.951,8.823 0,4.873 0,0 z"
             id="path3900"
             style="fill:none;stroke:#4d4d4d;stroke-width:3;stroke-linecap:butt;stroke-linejoin:miter;stroke-miterlimit:10;stroke-opacity:1;stroke-dasharray:none" /></g><g
           transform="translate(189.9072,262.4268)"
           id="g3902"><path
             d="m 0,0 c 0,-4.873 -3.95,-8.823 -8.823,-8.823 -4.873,0 -8.823,3.95 -8.823,8.823 0,4.873 3.95,8.823 8.823,8.823 C -3.95,8.823 0,4.873 0,0 z"
             id="path3904"
             style="fill:none;stroke:#4d4d4d;stroke-width:3;stroke-linecap:butt;stroke-linejoin:miter;stroke-miterlimit:10;stroke-opacity:1;stroke-dasharray:none" /></g><g
           transform="translate(335.8926,467.6001)"
           id="g3906"><path
             d="M 0,0 C 0,0 -42.226,10.469 -44.559,69.435"
             id="path3908"
             style="fill:none;stroke:#4d4d4d;stroke-width:3;stroke-linecap:butt;stroke-linejoin:miter;stroke-miterlimit:10;stroke-opacity:1;stroke-dasharray:none" /></g><g
           transform="translate(568,550.333)"
           id="g3910"><path
             d="M 0,0 C 26.33,43.839 37,7.667 25,-37.667 13,-83 -20.078,-78.833 -20.078,-78.833"
             id="path3912"
             style="fill:none;stroke:#4d4d4d;stroke-width:3;stroke-linecap:butt;stroke-linejoin:miter;stroke-miterlimit:10;stroke-opacity:1;stroke-dasharray:none" /></g><g
           transform="translate(555.1826,492.355)"
           id="g3914"><path
             d="m 0,0 c 0,0 13.642,0.311 17.729,12.978 4.088,12.667 0,24.334 0,24.334 0,0 11.421,36.333 15.421,21.666 4,-14.666 -7,-47 -7,-47"
             id="path3916"
             style="fill:none;stroke:#4d4d4d;stroke-width:3;stroke-linecap:butt;stroke-linejoin:miter;stroke-miterlimit:10;stroke-opacity:1;stroke-dasharray:none" /></g><g
           transform="translate(329,636.6665)"
           id="g3918"><path
             d="M 0,0 C 0,0 25.666,12 33.333,15.667 L 22,19.333 C 22,19.333 71,15 79,8 L 62.374,25.667 c 0,0 28.099,-13 30.862,-18 0,0 0.765,11.666 -2.569,18 0,0 16.334,-16.667 17,-20.667 0,0 7.334,10.14 8,16.403 L 113.928,6 c 0,0 12.739,3.333 17.739,9.333 l -3.406,-8 c 0,0 16.739,1.334 21.739,12 l 0,-9.666 c 0,0 24.666,-4.667 32.333,47 7.667,51.666 -42,74.666 -62.333,83.333 0,0 39.5,-24 37.75,-61 0,0 3.917,43.667 -55.75,47 0,0 22.13,-9.667 25.731,-18.667 0,0 -28.398,16.334 -63.398,2 0,0 32.086,3 46.71,-5 0,0 -71.043,19.334 -111.043,-25 0,0 39,19.334 55,10 C 55,89.333 8.561,99 -15.387,56"
             id="path3920"
             style="fill:none;stroke:#4d4d4d;stroke-width:3;stroke-linecap:butt;stroke-linejoin:miter;stroke-miterlimit:10;stroke-opacity:1;stroke-dasharray:none" /></g><g
           transform="translate(507.5908,727.1587)"
           id="g3922"><path
             d="M 0,0 C 0,0 37.742,20.175 68.409,-35.159"
             id="path3924"
             style="fill:none;stroke:#4d4d4d;stroke-width:3;stroke-linecap:butt;stroke-linejoin:miter;stroke-miterlimit:10;stroke-opacity:1;stroke-dasharray:none" /></g><g
           transform="translate(534.333,715)"
           id="g3926"><path
             d="m 0,0 c 0,0 60.472,-17.667 63.569,-63.333 0,0 -7.078,18.333 -24.99,25.666 0,0 38.754,-14.382 21.421,-75.333 0,0 2,18.333 -7,28.667 0,0 13.766,-15.858 -3.45,-61.763"
             id="path3928"
             style="fill:none;stroke:#4d4d4d;stroke-width:3;stroke-linecap:butt;stroke-linejoin:miter;stroke-miterlimit:10;stroke-opacity:1;stroke-dasharray:none" /></g><g
           transform="translate(442.9277,642.6665)"
           id="g3930"><path
             d="m 0,0 c 39.261,29.667 2.739,79.333 2.739,79.333 0,0 57.188,-39.666 11.594,-78"
             id="path3932"
             style="fill:none;stroke:#4d4d4d;stroke-width:2;stroke-linecap:butt;stroke-linejoin:miter;stroke-miterlimit:10;stroke-opacity:1;stroke-dasharray:none" /></g><g
           transform="translate(407.667,726.3335)"
           id="g3934"><path
             d="M 0,0 C 0,0 49.667,-36 29,-84.667"
             id="path3936"
             style="fill:none;stroke:#4d4d4d;stroke-width:2;stroke-linecap:butt;stroke-linejoin:miter;stroke-miterlimit:10;stroke-opacity:1;stroke-dasharray:none" /></g><g
           transform="translate(345,692)"
           id="g3938"><path
             d="M 0,0 C 0,0 67.473,-14 77.236,-47.667"
             id="path3940"
             style="fill:none;stroke:#4d4d4d;stroke-width:2;stroke-linecap:butt;stroke-linejoin:miter;stroke-miterlimit:10;stroke-opacity:1;stroke-dasharray:none" /></g><g
           transform="translate(508.3125,678.5151)"
           id="g3942"><path
             d="m 0,0 c 0,0 45.021,-1.516 62.354,-35.849 0,0 -11.582,52.345 -60.57,43.518"
             id="path3944"
             style="fill:none;stroke:#4d4d4d;stroke-width:2;stroke-linecap:butt;stroke-linejoin:miter;stroke-miterlimit:10;stroke-opacity:1;stroke-dasharray:none" /></g><g
           transform="translate(496.667,732.6665)"
           id="g3946"><path
             d="M 0,0 C 0,0 18.666,-52.334 -17.667,-86.333"
             id="path3948"
             style="fill:none;stroke:#4d4d4d;stroke-width:2;stroke-linecap:butt;stroke-linejoin:miter;stroke-miterlimit:10;stroke-opacity:1;stroke-dasharray:none" /></g><g
           transform="translate(547.9219,554.8208)"
           id="g3950"><path
             d="m 0,0 29.73,8.909 c 0,0 -8.598,-8.067 -10.55,-19.412 L -2.922,-16.154 0,0 z"
             id="path3952"
             style="fill:#4d4d4d;fill-opacity:1;fill-rule:nonzero;stroke:none" /></g><g
           transform="translate(333.3438,554.8208)"
           id="g3954"><path
             d="m 0,0 -29.73,8.909 c 0,0 8.598,-8.067 10.55,-19.412 L 2.922,-16.154 0,0 z"
             id="path3956"
             style="fill:#4d4d4d;fill-opacity:1;fill-rule:nonzero;stroke:none" /></g></g></g><g
       id="g3958"><g
         clip-path="url(#clipPath3962)"
         id="g3960"><g
           transform="translate(174.0752,466.1577)"
           id="g3966"><path
             d="m 0,0 c -2.982,4.53 0.058,10.776 0.089,10.839 l -2.683,1.342 C -2.753,11.864 -6.448,4.338 -2.506,-1.649 L 0,0 z"
             id="path3968"
             style="fill:#4d4d4d;fill-opacity:1;fill-rule:nonzero;stroke:none" /></g><g
           transform="translate(146.7432,443.1445)"
           id="g3970"><path
             d="m 0,0 0.514,-2.956 c 0.304,0.053 30.695,5.251 52.858,1.994 l 0.437,2.968 C 31.163,5.338 0.309,0.054 0,0"
             id="path3972"
             style="fill:#4d4d4d;fill-opacity:1;fill-rule:nonzero;stroke:none" /></g><g
           transform="translate(363,579.6665)"
           id="g3974"><path
             d="m 0,0 c 16.667,-13 57,-23.954 57,-23.954 l 1.667,4.621 L 0,2 C 0,2 -16.666,13 0,0"
             id="path3976"
             style="fill:#4d4d4d;fill-opacity:1;fill-rule:nonzero;stroke:none" /></g><g
           transform="translate(515.9277,581.6665)"
           id="g3978"><path
             d="M 0,0 -58.667,-21.333 -57,-25.954 c 0,0 40.333,10.954 57,23.954 16.666,13 0,2 0,2"
             id="path3980"
             style="fill:#4d4d4d;fill-opacity:1;fill-rule:nonzero;stroke:none" /></g><g
           transform="translate(442.0752,466.1577)"
           id="g3982"><path
             d="m 0,0 c -2.981,4.53 0.059,10.776 0.089,10.839 l -2.683,1.342 C -2.753,11.864 -6.447,4.338 -2.506,-1.649 L 0,0 z"
             id="path3984"
             style="fill:#4d4d4d;fill-opacity:1;fill-rule:nonzero;stroke:none" /></g><g
           transform="translate(414.7432,443.1445)"
           id="g3986"><path
             d="m 0,0 0.514,-2.956 c 0.305,0.053 30.686,5.254 52.859,1.994 l 0.436,2.968 C 31.168,5.335 0.31,0.053 0,0"
             id="path3988"
             style="fill:#4d4d4d;fill-opacity:1;fill-rule:nonzero;stroke:none" /></g><g
           transform="translate(591.5498,513.0503)"
           id="g3990"><path
             d="m 0,0 c -9.981,-37.707 -34.373,-40.258 -41.495,-40.17 1.689,4.4 3.877,10.494 6.234,18.065 3.468,0.399 14.38,2.554 18.051,13.927 3.769,11.678 0.896,22.387 0.147,24.801 3.997,12.575 9.238,23.572 11.263,23.653 0.005,-0.003 0.564,-0.29 1.136,-2.388 3.833,-14.054 -6.864,-45.803 -6.973,-46.122 l 2.84,-0.966 c 0.455,1.338 11.102,32.94 7.027,47.877 -0.306,1.123 -1.238,4.541 -3.944,4.593 -0.015,0 -0.031,10e-4 -0.047,10e-4 -5.478,0 -11.827,-18.314 -14.307,-26.205 l -0.15,-0.476 0.164,-0.47 c 0.04,-0.112 3.876,-11.329 -0.011,-23.377 -2.813,-8.715 -10.484,-11.069 -14.234,-11.704 4.306,14.31 9.006,33.287 12.189,55.719 8.299,13.753 15.758,20.502 20.467,18.511 C 5.426,52.282 7.772,29.361 0,0 m -47.577,-47.085 -0.049,-0.118 c -0.044,-0.12 -4.528,-12.077 -19.438,-24.009 -8.296,-6.639 -20.9,-14.038 -39.236,-18.915 -0.137,0.12 -0.231,0.204 -0.245,0.216 l -0.329,-0.364 c -12.221,-3.196 -26.952,-5.275 -44.633,-5.275 -44.515,0 -71.76,17.008 -86.776,31.276 -16.288,15.476 -22.133,31.172 -22.193,31.336 -0.067,0.182 -3.48,9.686 -6.605,28.053 2.611,9.124 4.989,19.696 6.789,31.781 l 2.365,-0.604 c 1.466,-24.313 7.955,-54.656 49.875,-59.375 37.109,-4.178 46.975,27.609 49.578,46.366 l 16.558,0 c 2.604,-18.757 12.47,-50.544 49.578,-46.366 42.136,4.744 48.475,35.375 49.897,59.75 l 16.406,4.194 c -7.524,-47.354 -21.396,-77.632 -21.542,-77.946 m -119.279,-50.764 9.649,-13.032 -0.652,-0.924 -0.001,0 -2.664,-3.771 -12.38,-17.522 c -11.965,14.827 -10.933,32.531 -10.322,37.677 5.135,-1.067 10.587,-1.893 16.37,-2.428 m 15.514,-13.956 -1.448,0 -10.1,13.64 c 3.668,-0.247 7.455,-0.385 11.383,-0.385 3.502,0 6.879,0.089 10.16,0.243 l -9.995,-13.498 z m 30.529,15.557 c 0.597,-6.008 1,-22.71 -10.416,-36.85 l -15.697,22.217 9.473,12.793 c 5.905,0.391 11.454,1.014 16.64,1.84 m -43.702,-30.175 c 0.943,-3.303 2.599,-8.176 4.591,-10.116 l -6.5,-25.609 c -3.434,9.614 -6.718,19.937 -9.017,27.417 0.484,-0.606 0.988,-1.211 1.514,-1.81 l 1.255,-1.428 8.157,11.546 z m 29.597,-40.028 -8.685,29.518 0.364,0.653 c 0.117,0.211 2.409,4.38 3.761,9.657 l 8.017,-11.346 1.255,1.428 c 1.499,1.707 2.821,3.451 3.996,5.211 -2.644,-10.819 -6.056,-24.681 -8.708,-35.121 m -47.791,-52.03 c 0.138,27.87 11.202,41.028 13.826,43.754 l 11.457,-3.193 c -10.785,-16.039 -12.882,-39.842 -13.288,-48.816 l -11.892,2.879 c -0.07,1.582 -0.095,3.109 -0.099,4.607 l 0.43,-0.118 -0.434,0.887 z m -1.204,29.953 c 1.678,0.57 3.138,1.404 4.295,2.445 -2.64,-6.079 -5.006,-14.297 -5.805,-24.974 -1.112,4.981 -1.811,13.057 1.51,22.529 m -4.571,-5.273 -10.867,3.114 c 0.282,1.541 0.584,2.863 0.836,3.862 1.991,-1.25 4.428,-2.13 7.12,-2.438 0.707,-0.081 1.421,-0.122 2.124,-0.122 0.667,0 1.314,0.045 1.949,0.114 -0.481,-1.553 -0.865,-3.064 -1.162,-4.53 m -11.364,-10.666 10.754,-3.081 c 0.135,-1.147 0.308,-2.206 0.502,-3.182 l -10.521,3.016 c -0.323,1.051 -0.563,2.139 -0.735,3.247 m 10.484,2.941 c -0.034,-1.363 -0.008,-2.664 0.072,-3.887 l -10.806,3.097 c -0.102,1.303 -0.129,2.61 -0.093,3.894 l 10.827,-3.104 z m 6.584,24.075 c -0.238,-2.071 -2.867,-3.632 -6.116,-3.632 -0.392,0 -0.79,0.022 -1.185,0.068 -1.91,0.219 -3.629,0.933 -4.84,2.012 -1.065,0.948 -1.585,2.054 -1.463,3.115 0.187,1.621 1.847,2.918 4.113,3.411 l 0.224,-0.148 0.142,0.215 c 0.132,0.023 0.257,0.055 0.392,0.073 0.091,0.002 0.179,0.008 0.271,0.008 0.588,0 1.187,-0.034 1.781,-0.102 1.352,-0.155 2.638,-0.483 3.817,-0.948 1.864,-0.998 3.04,-2.532 2.864,-4.072 m -18.291,-7.299 c -0.315,-1.096 -0.85,-3.136 -1.311,-5.725 -0.313,0.201 -0.667,0.389 -1.074,0.548 -0.051,2.139 -0.199,7.056 -0.589,12.764 l 0.438,-0.104 c -0.036,-0.182 -0.076,-0.36 -0.097,-0.546 -0.288,-2.512 0.734,-4.949 2.633,-6.937 m 11.81,-14.725 -10.688,3.063 c 0.062,0.485 0.096,1.104 0.024,1.796 0.073,0.667 0.156,1.317 0.248,1.943 l 10.836,-3.106 c -0.201,-1.275 -0.334,-2.505 -0.42,-3.696 m -0.01,13.09 c -0.588,0 -1.188,0.034 -1.782,0.102 -5.673,0.652 -10.101,4.373 -9.671,8.128 0.121,1.06 0.622,2.034 1.406,2.872 -0.014,-0.088 -0.036,-0.174 -0.046,-0.263 -0.237,-2.058 0.633,-4.081 2.447,-5.698 1.669,-1.485 3.975,-2.463 6.494,-2.752 0.508,-0.058 1.022,-0.087 1.527,-0.087 4.461,0 8.046,2.239 8.922,5.433 0.191,-0.633 0.257,-1.273 0.184,-1.909 -0.381,-3.321 -4.457,-5.826 -9.481,-5.826 m 1.73,-28.438 -9.45,2.579 c -0.475,0.693 -0.88,1.43 -1.236,2.196 l 10.144,-2.908 c 0.181,-0.688 0.365,-1.318 0.542,-1.867 m -89.08,183.739 c 2.483,5.438 5.121,12.056 7.634,19.908 2.856,-14.908 5.634,-22.632 5.694,-22.793 0.107,-0.298 1.351,-3.643 4.198,-8.677 -4.035,1.674 -10.751,5.131 -17.526,11.562 m -9.026,10.729 c 0.069,0.414 0.097,0.638 0.097,0.638 l -0.053,-0.705 c -0.015,0.022 -0.03,0.044 -0.044,0.067 m -42.59,-41.011 c -17.048,-15.594 -46.722,-34.184 -91.271,-34.184 -44.515,0 -71.76,17.008 -86.776,31.276 -2.825,2.685 -5.329,5.374 -7.55,7.989 -0.726,14.111 -1.329,30.542 -1.781,44.697 7.119,-10.808 19.133,-19.195 39.563,-21.495 37.108,-4.178 46.974,27.609 49.578,46.366 l 16.557,0 c 2.604,-18.757 12.47,-50.544 49.579,-46.366 27.833,3.133 40.045,17.564 45.54,34.024 -0.596,-16.067 -1.988,-35.551 -3.325,-51.977 -2.945,-3.354 -6.305,-6.845 -10.114,-10.33 m -106.62,-36.483 9.649,-13.032 -15.696,-22.217 c -11.965,14.826 -10.933,32.531 -10.323,37.677 5.135,-1.067 10.588,-1.893 16.37,-2.428 m 15.515,-13.956 -1.449,0 -10.099,13.64 c 3.668,-0.247 7.455,-0.385 11.382,-0.385 3.504,0 6.907,0.125 10.232,0.341 l -10.066,-13.596 z m 30.442,16.332 c 0.611,-5.216 1.594,-22.852 -10.329,-37.625 l -15.696,22.217 9.61,12.979 c 5.744,0.523 11.216,1.347 16.415,2.429 m -43.615,-30.951 c 0.942,-3.303 2.599,-8.175 4.592,-10.115 l -6.502,-25.608 c -3.434,9.614 -6.717,19.936 -9.016,27.416 0.484,-0.606 0.988,-1.211 1.514,-1.81 l 1.255,-1.428 8.157,11.545 z m 29.597,-40.028 -8.686,29.517 0.365,0.655 c 0.117,0.211 2.409,4.38 3.761,9.657 l 8.017,-11.346 1.255,1.428 c 1.498,1.707 2.821,3.451 3.996,5.21 -2.644,-10.819 -6.056,-24.681 -8.708,-35.121 m -47.79,-52.031 c 0.136,27.87 11.2,41.029 13.824,43.756 l 11.458,-3.194 c -10.785,-16.038 -12.882,-39.84 -13.288,-48.815 l -11.892,2.879 c -0.069,1.581 -0.095,3.108 -0.099,4.607 l 0.429,-0.118 -0.432,0.885 z m -1.206,29.955 c 1.679,0.57 3.138,1.404 4.296,2.446 -2.64,-6.079 -5.006,-14.299 -5.805,-24.978 -1.113,4.981 -1.812,13.059 1.509,22.532 m -4.571,-5.273 -10.866,3.114 c 0.279,1.527 0.579,2.839 0.83,3.835 2.038,-1.27 4.497,-2.109 7.126,-2.411 0.707,-0.081 1.421,-0.122 2.124,-0.122 0.666,0 1.313,0.045 1.948,0.114 -0.481,-1.553 -0.865,-3.064 -1.162,-4.53 m -11.363,-10.666 10.753,-3.081 c 0.135,-1.147 0.308,-2.207 0.503,-3.182 l -10.522,3.016 c -0.322,1.051 -0.563,2.139 -0.734,3.247 m 10.484,2.941 c -0.035,-1.363 -0.009,-2.664 0.072,-3.887 l -10.806,3.097 c -0.103,1.303 -0.129,2.61 -0.094,3.894 l 10.828,-3.104 z m 6.584,24.075 c -0.239,-2.071 -2.868,-3.632 -6.117,-3.632 -0.391,0 -0.79,0.022 -1.185,0.068 -1.91,0.219 -3.629,0.933 -4.84,2.012 -1.065,0.948 -1.584,2.054 -1.462,3.115 0.186,1.621 1.846,2.918 4.114,3.411 l 0.224,-0.148 0.141,0.215 c 0.132,0.024 0.257,0.055 0.391,0.073 0.091,0.002 0.18,0.008 0.271,0.008 0.589,0 1.188,-0.034 1.782,-0.102 1.351,-0.155 2.636,-0.483 3.816,-0.947 1.864,-0.998 3.041,-2.533 2.865,-4.073 m -18.3,-7.333 c -0.316,-1.102 -0.846,-3.128 -1.302,-5.691 -0.314,0.201 -0.667,0.389 -1.075,0.548 -0.05,2.139 -0.199,7.056 -0.589,12.764 l 0.438,-0.104 c -0.035,-0.182 -0.076,-0.36 -0.097,-0.546 -0.283,-2.473 0.65,-4.915 2.625,-6.971 m 11.818,-14.691 -10.688,3.062 c 0.063,0.486 0.097,1.105 0.025,1.797 0.072,0.667 0.156,1.317 0.248,1.943 l 10.835,-3.106 c -0.201,-1.275 -0.333,-2.505 -0.42,-3.696 m -0.009,13.09 c -0.589,0 -1.188,0.034 -1.782,0.102 -2.889,0.332 -5.498,1.42 -7.345,3.066 -1.701,1.514 -2.527,3.312 -2.326,5.062 0.121,1.059 0.621,2.033 1.406,2.872 -0.015,-0.089 -0.036,-0.174 -0.047,-0.263 -0.236,-2.058 0.633,-4.081 2.448,-5.698 1.668,-1.485 3.974,-2.463 6.493,-2.752 0.508,-0.058 1.022,-0.087 1.527,-0.087 4.461,0 8.047,2.239 8.923,5.432 0.19,-0.632 0.257,-1.273 0.184,-1.908 -0.381,-3.321 -4.458,-5.826 -9.481,-5.826 m 1.729,-28.438 -9.45,2.579 c -0.474,0.693 -0.88,1.43 -1.235,2.196 l 10.144,-2.908 c 0.18,-0.688 0.364,-1.318 0.541,-1.867 m 45.992,337.773 c -5.982,-25.612 -19.932,-54.367 -31.032,-74.686 l -30.6,11.127 c 30.758,29.348 61.632,63.559 61.632,63.559 m -66.091,-67.78 c 12.697,-5.44 26.253,-9.647 32.525,-11.489 -2.206,-3.945 -4.252,-7.485 -6.039,-10.514 -13.502,2.645 -29.756,4.775 -43.88,6.342 5.589,4.78 11.46,10.093 17.394,15.661 m 127.285,11.725 -53.934,-19.612 1.667,-4.621 c 0,0 35.974,9.772 54.011,21.809 6.814,-9.328 13.684,-17.302 19.255,-23.317 -24.659,-2.342 -68.249,-7.344 -83.044,-14.538 l -15.588,0 c -3.73,1.814 -9.296,3.487 -15.921,5.014 53.535,41.51 66.027,99.986 66.027,99.986 2.232,-23.51 14.561,-46.484 27.527,-64.721 m 140.502,144.586 8.984,-1.858 -7.924,4.622 c -12.265,7.155 -36.545,-1.367 -48.889,-6.554 39.653,35.665 103.114,18.993 103.783,18.811 l 12.246,-3.327 -11.133,6.091 c -9.463,5.177 -25.64,5.907 -36.47,5.727 29.008,7.344 51.444,-5.201 51.692,-5.344 l 3.741,-2.144 -1.602,4.002 c -2.418,6.041 -12.182,12.146 -19.169,15.875 16.322,-2.121 28.607,-7.839 36.584,-17.044 9.011,-10.396 9.771,-22.383 9.758,-26.287 -0.009,-0.454 -0.023,-0.906 -0.045,-1.364 l 2.992,-0.205 c 0.013,0.143 0.082,0.995 0.062,2.38 0.051,23.657 -16.292,41.957 -27.707,51.849 21.839,-10.803 55.597,-33.436 49.251,-76.208 -3.93,-26.477 -12.361,-37.509 -18.741,-42.102 -3.69,-2.656 -7.022,-3.456 -9.204,-3.667 33.398,34.08 15.889,84.7 15.704,85.218 l -1.883,-0.672 c 0.179,-0.506 17.274,-49.923 -15.226,-83.121 l 0,13.525 -2.858,-6.098 c -3.119,-6.654 -11.459,-9.404 -16.488,-10.487 10.275,9.725 15.233,20.342 14.71,31.617 -1.161,25.032 -28.465,44.249 -29.627,45.055 l -4.929,3.42 3.554,-4.834 c 0.089,-0.122 9.064,-12.445 13.191,-28.202 5.202,-19.866 0.721,-35.928 -13.306,-47.797 l 1.397,12.369 c 0.005,0.044 0.01,0.089 0.014,0.134 l -2.981,0.327 -0.015,-0.126 c -0.216,-1.813 -1.044,-4.002 -2.08,-6.159 4.889,20.968 -2.518,38.865 -10.327,50.843 -9.821,15.064 -22.375,24.256 -22.501,24.347 l -1.174,-1.619 c 0.123,-0.09 12.418,-9.1 22.032,-23.872 12.247,-18.812 14.829,-37.939 7.707,-56.896 -3.681,5.848 -13.757,16.256 -16.081,18.627 l -7.17,7.316 4.772,-9.065 c 1.563,-2.968 2.156,-7.284 2.365,-10.856 -15.325,29.393 -72.897,41.66 -75.502,42.201 l -0.406,-1.958 c 0.635,-0.132 60.331,-12.844 74.571,-42.065 -7.833,5.58 -23.592,12.993 -27.364,14.738 l -7.033,3.254 16.623,-17.664 c -15.988,5.11 -48.791,8.062 -50.462,8.21 l -13.241,1.171 20.388,-6.597 c -7.601,-3.598 -21.038,-9.89 -26.963,-12.663 -2.843,22.24 -8.223,40.216 -15.115,54.729 23.457,38.981 67.049,30.489 67.495,30.397 m 127.77,-39.15 c 19.332,3.127 34.966,-2.972 46.449,-18.196 4.403,-5.836 7.339,-11.987 9.179,-16.696 -17.252,24.061 -49.225,28.236 -57.003,28.905 0.491,1.924 0.955,3.909 1.375,5.987 m -51.951,-32.421 c -2.492,-2.991 -7.175,-5.309 -10.993,-6.823 12.513,12.096 16.485,28.407 11.465,47.574 -2.614,9.982 -7.135,18.626 -10.222,23.792 7.933,-6.72 23.272,-21.951 24.101,-39.829 0.476,-10.27 -3.894,-20.018 -13.002,-29.04 l 5.176,12.157 -6.525,-7.831 z m -10.366,-113.294 -15.588,0 c -20.537,9.986 -96.553,15.748 -100.397,16.034 2.114,22.396 2.184,49.136 -1.454,80.578 6.257,2.927 24.96,11.683 31.271,14.702 l 3.392,1.622 -1.102,0.357 c 16.122,-1.984 37.125,-5.382 41.742,-9.422 l 2.08,2.157 -11.113,11.809 c 10.011,-4.954 21.48,-11.248 22.944,-13.896 l 2.475,-4.477 0.335,5.105 c 0.023,0.355 0.402,6.503 -0.69,12.394 6.287,-6.741 11.845,-13.414 12.144,-15.209 l 0.59,-3.543 2.105,2.91 c 0.155,0.216 2.079,2.892 4.039,6.337 l -0.73,-6.463 2.116,0.554 c 0.406,0.106 7.734,2.056 13.566,5.706 l -1.964,-4.613 2.47,0.197 c 0.618,0.048 13.217,1.146 20.12,8.635 l 0,-6.05 1.221,-0.231 c 0.27,-0.052 6.637,-1.181 14.018,4.07 0.419,0.298 0.824,0.629 1.232,0.954 l 0.535,-0.793 c 6.067,4.094 14.029,5.974 20.73,6.817 -3,-1.618 -4.3,-3.172 -4.4,-3.295 l -2.1,-2.584 3.327,0.14 c 31.698,1.32 46.68,-20.116 50.923,-27.583 l -12.392,1.859 0.251,-1.968 c 2.088,-16.32 4.296,-24.905 5.878,-29.342 l -7.405,3.987 0.538,-3.049 c 1.92,-10.876 8.015,-25.526 12.315,-34.981 l -12.476,-3.739 c 0.004,0.119 0.009,0.241 0.014,0.36 0,0 -79.488,-5.801 -100.56,-16.046 m 80.937,189.178 c 14.928,-2.107 28.716,-12.521 40.216,-30.257 -1.459,1.063 -2.963,2.107 -4.525,3.127 -15.513,10.13 -30.397,14.543 -31.023,14.726 l -0.842,-2.88 c 0.555,-0.162 51.788,-15.566 61.152,-53.392 -3.844,5.925 -10.488,13.719 -20.698,18.178 -0.535,0.243 -0.863,0.368 -0.932,0.393 l -1.09,-2.794 c 0.173,-0.071 0.344,-0.143 0.515,-0.216 1.99,-0.881 9.889,-4.821 16.12,-14.195 7.979,-12.005 10.209,-28.358 6.601,-47.75 -0.754,5.86 -2.648,12.737 -7.113,17.865 0,0 -10e-4,0 -10e-4,10e-4 -10e-4,0 -10e-4,0.001 -0.002,0.002 l -2.269,-1.962 c 0.13,-0.154 12.793,-15.878 -3.552,-59.807 -2.247,-1.34 -4.803,-3.542 -7.69,-6.962 l -9.868,-2.957 c -3.847,8.45 -9.259,21.308 -11.636,31.525 l 13.775,-7.438 -6.085,6.591 c -0.152,0.189 -3.665,4.818 -7.061,30.246 l 14.028,-2.105 -1.06,2.474 c -0.139,0.323 -13.732,31.034 -50.475,31.949 2.466,1.346 6.402,2.827 12.217,3.299 l -0.029,2.992 c -0.78,0.047 -16.73,0.937 -29.83,-4.65 4.454,5.486 8.017,13.025 10.65,22.584 7.45,-0.589 44.958,-5.035 60.196,-35.215 l 3.589,-7.112 -1.72,7.778 c -0.12,0.543 -3.047,13.437 -12.092,25.455 -8.185,10.873 -23.05,22.844 -47.688,19.146 0.341,1.827 0.665,3.69 0.953,5.63 1.765,11.895 0.651,23.013 -3.302,33.278 2.861,1.205 10.59,3.862 20.571,2.453 M -0.475,58.032 c -1.277,0.54 -2.829,0.769 -4.669,0.365 4.375,12.301 6.508,22.39 7.293,30.547 L 4.226,88.54 c 5.257,18.488 5.323,32.715 3.086,43.457 l 1.204,-3.102 -0.667,9.823 c -1.041,15.349 -8.716,29.484 -22.366,41.449 -16.072,28.719 -34.155,36.851 -46.528,38.597 -10.697,1.512 -18.918,-1.282 -22.139,-2.647 -3.658,8.273 -9.215,15.971 -16.667,23.046 -13.357,12.681 -29.521,20.467 -42.111,25.833 l -1.367,-2.662 c 0.262,-0.158 17.766,-10.988 28.631,-28.965 -9.845,10.63 -25.232,16.598 -45.768,17.745 l -8.324,0.465 7.64,-3.337 c 4.796,-2.096 16.1,-7.832 21.851,-13.582 -9.95,3.994 -32.992,10.526 -59.486,-0.322 l -3.599,-1.474 c -19.67,-2.12 -43.512,-9.217 -61.279,-28.909 l -5.275,-5.846 7.054,3.497 c 0.047,0.023 0.662,0.325 1.732,0.82 -5.963,-4.4 -11.748,-10.292 -16.754,-18.158 -30.78,60.625 -88.31,57.682 -88.31,57.682 -57.667,33.666 -179,-4 -207,-111 -28,-107 23.666,-186 23.666,-186 -1,3.666 0,11 0,11 8.667,-15.334 37,-41.667 37,-41.667 -0.741,4.777 -1.421,13.767 -2.025,24.593 1.58,-1.723 3.276,-3.468 5.11,-5.216 9.505,-9.057 23.779,-19.181 44.002,-25.62 -0.017,-0.015 -0.034,-0.024 -0.052,-0.039 -3.909,-3.298 -14.21,-11.502 -25.39,-16.429 -6.151,-2.711 -11.648,-4.942 -16.065,-6.734 -7.813,-3.171 -10.562,-4.324 -11.482,-5.428 -1.321,-1.584 -2.075,-29.808 -2.11,-44.493 -0.05,-21.423 0.819,-51.147 5.244,-71.084 2.648,-11.929 6.206,-18.794 10.88,-20.991 3.23,-1.517 7.417,-2.163 12.199,-2.163 1.932,0 3.963,0.109 6.066,0.304 0.393,-3.776 0.882,-8.858 0.896,-10.159 -0.159,-0.534 -1.043,-2.371 -1.977,-4.313 -4.183,-8.688 -12.884,-26.768 -18.753,-50.875 l 2.915,-0.709 c 0.029,0.12 0.061,0.235 0.09,0.355 l 73.202,0 0.984,-1.133 1.304,1.133 30.758,0 1.537,-1.188 0.917,1.188 71.437,0 c 0.029,-0.12 0.061,-0.235 0.09,-0.355 l 2.915,0.709 c -5.869,24.107 -14.571,42.187 -18.753,50.875 -0.933,1.941 -1.818,3.778 -1.977,4.312 0.02,1.494 0.697,9.654 1.204,15.426 1.148,0.196 2.188,0.458 3.101,0.793 8.933,3.279 14.334,25.784 16.512,68.8 1.579,31.168 0.729,61.844 0.721,62.151 l -0.034,1.187 -1.164,0.239 c -23.698,4.867 -47.752,24.244 -53.828,29.399 20.817,7.017 36.304,17.924 46.962,27.692 2.759,2.529 5.279,5.051 7.584,7.519 -1.428,-17.065 -2.686,-29.746 -2.686,-29.746 24.403,29.184 32.283,51.902 34.682,61.295 0.19,-0.262 0.381,-0.523 0.572,-0.778 l -1.921,-25.517 c 0,0 4.402,5.345 9.884,16.697 9.602,-8.811 18.884,-11.983 21.356,-12.713 3.597,-5.662 8.841,-12.614 16.179,-19.607 9.504,-9.057 23.778,-19.181 44.002,-25.62 -0.017,-0.015 -0.034,-0.024 -0.052,-0.039 -3.91,-3.298 -14.211,-11.502 -25.39,-16.429 -6.153,-2.711 -11.649,-4.942 -16.066,-6.734 -7.813,-3.171 -10.561,-4.324 -11.482,-5.428 -1.32,-1.584 -2.075,-29.808 -2.11,-44.493 -0.05,-21.423 0.819,-51.147 5.245,-71.084 2.646,-11.929 6.206,-18.794 10.879,-20.991 2.69,-1.263 6.047,-1.915 9.855,-2.1 l -1.717,-14.459 c 0,0 -3.499,-21.098 -6.177,-37.817 -1.243,-4.052 -2.436,-8.336 -3.53,-12.83 l 2.914,-0.709 c 0.03,0.12 0.061,0.235 0.09,0.355 l 73.203,0 0.984,-1.133 1.304,1.133 30.757,0 1.538,-1.188 0.917,1.188 71.438,0 c 0.029,-0.12 0.06,-0.235 0.09,-0.355 l 2.914,0.709 c -2.118,8.697 -4.605,16.596 -7.115,23.567 -2.682,11.192 -5.704,23.544 -7.577,30.413 l -3.667,16 c 0,0 1.405,0.297 3.254,2.081 8.146,4.956 13.123,27.296 15.192,68.145 1.579,31.168 0.729,61.844 0.72,62.151 l -0.033,1.187 -1.164,0.239 c -22.027,4.524 -44.363,21.584 -52.283,28.109 17.746,5.006 30.103,12.325 38.341,18.917 15.172,12.142 19.956,24.189 20.36,25.263 0.154,0.338 0.955,2.119 2.182,5.179 0.267,-0.009 0.575,-0.015 0.926,-0.015 7.655,0 34.187,2.939 44.622,42.36 7.788,29.418 6.336,54.697 -3.375,58.8"
             id="path3992"
             style="fill:#4d4d4d;fill-opacity:1;fill-rule:nonzero;stroke:none" /></g></g></g></g></svg>