<?xml version="1.0" encoding="UTF-8" standalone="no"?>
<!-- Created with Inkscape (http://www.inkscape.org/) -->

<svg
   xmlns:dc="http://purl.org/dc/elements/1.1/"
   xmlns:cc="http://creativecommons.org/ns#"
   xmlns:rdf="http://www.w3.org/1999/02/22-rdf-syntax-ns#"
   xmlns:svg="http://www.w3.org/2000/svg"
   xmlns="http://www.w3.org/2000/svg"
   version="1.1"
   width="715.54932"
   height="659.32294"
   id="svg3004"
   xml:space="preserve"><metadata
     id="metadata3010"><rdf:RDF><cc:Work
         rdf:about=""><dc:format>image/svg+xml</dc:format><dc:type
           rdf:resource="http://purl.org/dc/dcmitype/StillImage" /><dc:title></dc:title></cc:Work></rdf:RDF></metadata><defs
     id="defs3008"><clipPath
       id="clipPath3018"><path
         d="M 0,792 612,792 612,0 0,0 0,792 z"
         id="path3020" /></clipPath><clipPath
       id="clipPath3522"><path
         d="M 0,792 612,792 612,0 0,0 0,792 z"
         id="path3524" /></clipPath></defs><g
     transform="matrix(1.25,0,0,-1.25,-26.829183,943.55904)"
     id="g3012"><g
       id="g3014"><g
         clip-path="url(#clipPath3018)"
         id="g3016"><g
           transform="translate(206.3335,605.333)"
           id="g3022"><path
             d="m 0,0 c 0,0 3.666,-52.333 -32.667,-79 0,0 11.667,20.667 13.334,43.333 0,0 -10.001,-40 -61.334,-71 0,0 -6.333,-44.333 11.667,-71.333 0,0 -15.667,4.333 -24.667,15.333 0,0 5,-14.333 14.667,-24.666 0,0 -30.334,7.333 -46.667,24.666 0,0 2.334,-7.333 -4.333,-20 0,0 4.705,17.378 -27.667,56.334 -19.098,22.982 -27.666,59 -26,85.333 3.932,62.134 68.334,111.333 118.334,102.333 0,0 56.741,14.541 98.666,-35.666 C 60.333,-6.667 55,-58 66,-65 l -10,5 c 0,0 5.333,-52.333 -7.333,-77.667 0,0 1,4.334 0.333,9.667 0,0 3.667,14.667 -3.333,32 -7,17.333 -4.667,49.333 -17.334,71 0,0 0.667,-7.667 -3.666,-26 C 24.667,-51 23,-18 0,0"
             id="path3024"
             style="fill:#4d4d4d;fill-opacity:1;fill-rule:nonzero;stroke:none" /></g><g
           transform="translate(257.9585,482.1665)"
           id="g3026"><path
             d="m 0,0 c 0,0 -5.625,-34.5 -52.292,-43.167 -46.666,-8.666 -75.333,6 -98.333,16"
             id="path3028"
             style="fill:none;stroke:#4d4d4d;stroke-width:3;stroke-linecap:butt;stroke-linejoin:miter;stroke-miterlimit:10;stroke-opacity:1;stroke-dasharray:none" /></g><g
           transform="translate(186.5,453)"
           id="g3030"><path
             d="M 0,0 C 0,0 16.25,20.5 43.25,8.5"
             id="path3032"
             style="fill:none;stroke:#4d4d4d;stroke-width:3;stroke-linecap:butt;stroke-linejoin:miter;stroke-miterlimit:10;stroke-opacity:1;stroke-dasharray:none" /></g><g
           transform="translate(206.75,465.2681)"
           id="g3034"><path
             d="m 0,0 c 0,0 -9,11.232 -18.25,5.482 -9.25,-5.75 0,-15.627 0,-15.627"
             id="path3036"
             style="fill:none;stroke:#4d4d4d;stroke-width:3;stroke-linecap:butt;stroke-linejoin:miter;stroke-miterlimit:10;stroke-opacity:1;stroke-dasharray:none" /></g><g
           transform="translate(192.25,465.2681)"
           id="g3038"><path
             d="M 0,0 C 0,0 0.889,-0.626 3.319,-4.822"
             id="path3040"
             style="fill:none;stroke:#4d4d4d;stroke-width:2;stroke-linecap:butt;stroke-linejoin:miter;stroke-miterlimit:10;stroke-opacity:1;stroke-dasharray:none" /></g><g
           transform="translate(223.25,495)"
           id="g3042"><path
             d="M 0,0 C 0,0 8.25,-1.5 6.5,-11.25"
             id="path3044"
             style="fill:none;stroke:#4d4d4d;stroke-width:3;stroke-linecap:butt;stroke-linejoin:miter;stroke-miterlimit:10;stroke-opacity:1;stroke-dasharray:none" /></g><g
           transform="translate(193.9097,508.5)"
           id="g3046"><path
             d="m 0,0 c 0,0 -20.41,14.5 -43.16,-3 0,0 -6.5,-0.75 -12.75,5.75 0,0 6.75,-4.137 14.25,-1.443 0,0 -7,0.693 -12.25,6.943 -5.25,6.25 -0.25,1.25 -0.25,1.25 0,0 9.5,-6.25 16.75,-4.25 7.25,2 23.82,8.5 37.41,-5.25"
             id="path3048"
             style="fill:#4d4d4d;fill-opacity:1;fill-rule:nonzero;stroke:none" /></g><g
           transform="translate(193.9097,508.5)"
           id="g3050"><path
             d="m 0,0 c 0,0 -20.41,14.5 -43.16,-3 0,0 -6.5,-0.75 -12.75,5.75 0,0 6.75,-4.137 14.25,-1.443 0,0 -7,0.693 -12.25,6.943 -5.25,6.25 -0.25,1.25 -0.25,1.25 0,0 9.5,-6.25 16.75,-4.25 7.25,2 23.82,8.5 37.41,-5.25 z"
             id="path3052"
             style="fill:none;stroke:#4d4d4d;stroke-width:2;stroke-linecap:butt;stroke-linejoin:miter;stroke-miterlimit:10;stroke-opacity:1;stroke-dasharray:none" /></g><g
           transform="translate(143.25,531)"
           id="g3054"><path
             d="M 0,0 C 0,0 27.027,9.25 41.139,3.5 41.139,3.5 35,18.25 0,0"
             id="path3056"
             style="fill:#4d4d4d;fill-opacity:1;fill-rule:nonzero;stroke:none" /></g><g
           transform="translate(217,554.5)"
           id="g3058"><path
             d="M 0,0 C 0,0 11.277,15.077 24.389,9.289 24.389,9.289 8,20.167 0,0"
             id="path3060"
             style="fill:#4d4d4d;fill-opacity:1;fill-rule:nonzero;stroke:none" /></g><g
           transform="translate(226.6221,516.833)"
           id="g3062"><path
             d="m 0,0 c 0,0 -4.289,15.667 13.044,28.333 0,0 1.611,1.834 1.723,8 0,0 2.278,-4.999 0.944,-7.666 0,0 4.5,0.5 7,3.666 0,0 -0.386,-4.823 -7.944,-7 C 14.767,25.333 3.789,20.167 0,0"
             id="path3064"
             style="fill:#4d4d4d;fill-opacity:1;fill-rule:nonzero;stroke:none" /></g><g
           transform="translate(226.6221,516.833)"
           id="g3066"><path
             d="m 0,0 c 0,0 -4.289,15.667 13.044,28.333 0,0 1.611,1.834 1.723,8 0,0 2.278,-4.999 0.944,-7.666 0,0 4.5,0.5 7,3.666 0,0 -0.386,-4.823 -7.944,-7 C 14.767,25.333 3.789,20.167 0,0 z"
             id="path3068"
             style="fill:none;stroke:#4d4d4d;stroke-width:2;stroke-linecap:butt;stroke-linejoin:miter;stroke-miterlimit:10;stroke-opacity:1;stroke-dasharray:none" /></g><g
           transform="translate(419.0127,571.4814)"
           id="g3070"><path
             d="m 0,0 c 0,0 19.124,22.543 50.257,9.154 0,0 7.657,1.038 12.913,10.299 0,0 -6.518,-6.702 -15.886,-5.807 l 11.991,11.517 -0.95,1.596 C 54.901,24.193 47.123,16.803 41.271,16.918 32.394,17.092 11.539,19.696 0,0"
             id="path3072"
             style="fill:#4d4d4d;fill-opacity:1;fill-rule:nonzero;stroke:none" /></g><g
           transform="translate(419.0127,571.4814)"
           id="g3074"><path
             d="m 0,0 c 0,0 19.124,22.543 50.257,9.154 0,0 7.657,1.038 12.913,10.299 0,0 -6.518,-6.702 -15.886,-5.807 l 11.991,11.517 -0.95,1.596 C 54.901,24.193 47.123,16.803 41.271,16.918 32.394,17.092 11.539,19.696 0,0 z"
             id="path3076"
             style="fill:none;stroke:#4d4d4d;stroke-width:2;stroke-linecap:butt;stroke-linejoin:miter;stroke-miterlimit:10;stroke-opacity:1;stroke-dasharray:none" /></g><g
           transform="translate(381.835,578.3999)"
           id="g3078"><path
             d="m 0,0 c 0,0 2.184,17.626 -18.561,28.615 0,0 -2.03,1.731 -3.119,8.387 0,0 -1.679,-5.767 0.181,-8.444 0,0 -4.948,-0.165 -8.148,2.869 0,0 1.172,-5.158 9.694,-6.329 0,0 12.689,-3.869 19.953,-25.098"
             id="path3080"
             style="fill:#4d4d4d;fill-opacity:1;fill-rule:nonzero;stroke:none" /></g><g
           transform="translate(381.835,578.3999)"
           id="g3082"><path
             d="m 0,0 c 0,0 2.184,17.626 -18.561,28.615 0,0 -2.03,1.731 -3.119,8.387 0,0 -1.679,-5.767 0.181,-8.444 0,0 -4.948,-0.165 -8.148,2.869 0,0 1.172,-5.158 9.694,-6.329 0,0 12.689,-3.869 19.953,-25.098 z"
             id="path3084"
             style="fill:none;stroke:#4d4d4d;stroke-width:2;stroke-linecap:butt;stroke-linejoin:miter;stroke-miterlimit:10;stroke-opacity:1;stroke-dasharray:none" /></g><g
           transform="translate(186.6665,499.8066)"
           id="g3086"><path
             d="m 0,0 c -2.578,0 -4.667,2.089 -4.667,4.667 0,2.578 2.089,4.667 4.667,4.667 1.411,0 2.66,-0.639 3.515,-1.628 -1.477,3.329 -4.806,5.654 -8.682,5.654 -5.246,0 -9.5,-4.254 -9.5,-9.5 0,-5.247 4.254,-9.5 9.5,-9.5 4.887,0 8.907,3.69 9.437,8.435 C 3.548,1.151 1.911,0 0,0"
             id="path3088"
             style="fill:#4d4d4d;fill-opacity:1;fill-rule:nonzero;stroke:none" /></g><g
           transform="translate(242.8784,523.3066)"
           id="g3090"><path
             d="m 0,0 c -1.774,0 -3.212,2.089 -3.212,4.667 0,2.578 1.438,4.667 3.212,4.667 0.346,0 0.673,-0.1 0.986,-0.248 -1.118,1.411 -2.585,2.274 -4.198,2.274 -3.498,0 -6.333,-4.029 -6.333,-9 0,-4.971 2.835,-9 6.333,-9 3.498,0 6.334,4.029 6.334,9 0,0.351 -0.018,0.696 -0.046,1.037 C 2.694,1.441 1.469,0 0,0"
             id="path3092"
             style="fill:#4d4d4d;fill-opacity:1;fill-rule:nonzero;stroke:none" /></g><g
           transform="translate(241.3887,334.75)"
           id="g3094"><path
             d="M 0,0 C -6.361,14.25 7.945,38.25 7.945,38.25 L 12.111,36 c 0.75,1.75 -1.5,5 -1.5,5 -19,3.5 -68.25,38 -91.75,51.75 -23.5,13.75 -31.5,-1.25 -31.5,-1.25 0,0 -10,-13.5 5.75,-27 15.75,-13.5 42.333,-28.75 52.167,-36.75 9.833,-8 50.34,-36.25 56.212,-30.5 C 7.361,3 4.611,0.5 4.611,0.5"
             id="path3096"
             style="fill:none;stroke:#4d4d4d;stroke-width:3;stroke-linecap:butt;stroke-linejoin:miter;stroke-miterlimit:10;stroke-opacity:1;stroke-dasharray:none" /></g><g
           transform="translate(253.5,370.75)"
           id="g3098"><path
             d="m 0,0 c 0,0 12.75,-4.75 17.75,-4.5 5,0.25 4,-10.25 7,-10.75 L 23,-23.5 l -8.25,9 c 0,0 12.75,-20.5 19.25,-14.75 l 2.5,-1.018 c 0,0 0.75,-13.732 -4.5,-11.732 -5.25,2 -11.75,7 -11.75,7"
             id="path3100"
             style="fill:none;stroke:#4d4d4d;stroke-width:3;stroke-linecap:butt;stroke-linejoin:miter;stroke-miterlimit:10;stroke-opacity:1;stroke-dasharray:none" /></g><g
           transform="translate(279.7041,331.2344)"
           id="g3102"><path
             d="m 0,0 c 0,0 -2.371,-6.881 -7.371,-2.684 0,0 -1.618,-4.595 -4.118,-3.095 0,0 -1.215,-2.545 -6.215,-0.125 -5,2.42 -17.33,12.165 -22.218,16.915"
             id="path3104"
             style="fill:none;stroke:#4d4d4d;stroke-width:3;stroke-linecap:butt;stroke-linejoin:miter;stroke-miterlimit:10;stroke-opacity:1;stroke-dasharray:none" /></g><g
           transform="translate(178.3726,416.2993)"
           id="g3106"><path
             d="m 0,0 17.197,-4.799 c 0,0 -3.811,17.598 -1.66,21.803"
             id="path3108"
             style="fill:none;stroke:#4d4d4d;stroke-width:3;stroke-linecap:butt;stroke-linejoin:miter;stroke-miterlimit:10;stroke-opacity:1;stroke-dasharray:none" /></g><g
           transform="translate(196.6758,437.5845)"
           id="g3110"><path
             d="m 0,0 4.824,-19.584 15.5,-4 c 0,0 -3.641,-8.737 -3.571,-19.619"
             id="path3112"
             style="fill:none;stroke:#4d4d4d;stroke-width:3;stroke-linecap:butt;stroke-linejoin:miter;stroke-miterlimit:10;stroke-opacity:1;stroke-dasharray:none" /></g><g
           transform="translate(208.125,416.2905)"
           id="g3114"><path
             d="M 0,0 C 0,0 -1.18,10.086 1.473,23.523"
             id="path3116"
             style="fill:none;stroke:#4d4d4d;stroke-width:3;stroke-linecap:butt;stroke-linejoin:miter;stroke-miterlimit:10;stroke-opacity:1;stroke-dasharray:none" /></g><g
           transform="translate(212.5,416.2905)"
           id="g3118"><path
             d="M 0,0 C 0,0 8,19.086 12.25,23.523"
             id="path3120"
             style="fill:none;stroke:#4d4d4d;stroke-width:3;stroke-linecap:butt;stroke-linejoin:miter;stroke-miterlimit:10;stroke-opacity:1;stroke-dasharray:none" /></g><g
           transform="translate(227.5801,446.085)"
           id="g3122"><path
             d="m 0,0 c 0,0 9.927,-16.085 15.298,-19.085 0,0 -18.664,-2.453 -29.146,-7.852"
             id="path3124"
             style="fill:none;stroke:#4d4d4d;stroke-width:3;stroke-linecap:butt;stroke-linejoin:miter;stroke-miterlimit:10;stroke-opacity:1;stroke-dasharray:none" /></g><g
           transform="translate(133.3911,430.8501)"
           id="g3126"><path
             d="M 0,0 C 0,0 3.164,5.075 1.511,12.862"
             id="path3128"
             style="fill:none;stroke:#4d4d4d;stroke-width:3;stroke-linecap:butt;stroke-linejoin:miter;stroke-miterlimit:10;stroke-opacity:1;stroke-dasharray:none" /></g><g
           transform="translate(169.5,365)"
           id="g3130"><path
             d="M 0,0 C 0,0 2.852,-13.945 27.176,-9.973"
             id="path3132"
             style="fill:none;stroke:#4d4d4d;stroke-width:3;stroke-linecap:butt;stroke-linejoin:miter;stroke-miterlimit:10;stroke-opacity:1;stroke-dasharray:none" /></g><g
           transform="translate(127.0654,408.9185)"
           id="g3134"><path
             d="m 0,0 c 0,0 1.685,-18.668 16.185,-34.918 14.5,-16.25 15.75,-17.25 16.75,-22 1,-4.75 -10.75,-23.25 -9.25,-35.25 0,0 29.5,-26.5 83.75,-9.25"
             id="path3136"
             style="fill:none;stroke:#4d4d4d;stroke-width:3;stroke-linecap:butt;stroke-linejoin:miter;stroke-miterlimit:10;stroke-opacity:1;stroke-dasharray:none" /></g><g
           transform="translate(224.75,337.2061)"
           id="g3138"><path
             d="m 0,0 9.75,-31.956 c 0,0 18.417,11 23.458,21.5"
             id="path3140"
             style="fill:none;stroke:#4d4d4d;stroke-width:3;stroke-linecap:butt;stroke-linejoin:miter;stroke-miterlimit:10;stroke-opacity:1;stroke-dasharray:none" /></g><g
           transform="translate(247.3662,376.9961)"
           id="g3142"><path
             d="m 0,0 c 0,0 8.884,6.254 -3.366,21.754 -12.25,15.5 5.182,50.638 8.091,69.194"
             id="path3144"
             style="fill:none;stroke:#4d4d4d;stroke-width:3;stroke-linecap:butt;stroke-linejoin:miter;stroke-miterlimit:10;stroke-opacity:1;stroke-dasharray:none" /></g><g
           transform="translate(238.5547,325.7354)"
           id="g3146"><path
             d="M 0,0 C 0.677,-2.478 -0.142,-4.86 -1.829,-5.321 -3.516,-5.782 -5.433,-4.147 -6.11,-1.67 -6.787,0.808 -5.968,3.19 -4.28,3.651 -2.594,4.112 -0.677,2.478 0,0 z"
             id="path3148"
             style="fill:none;stroke:#4d4d4d;stroke-width:2;stroke-linecap:butt;stroke-linejoin:miter;stroke-miterlimit:10;stroke-opacity:1;stroke-dasharray:none" /></g><g
           transform="translate(154.6597,313.8623)"
           id="g3150"><path
             d="m 0,0 c 0,0 -3.66,-25.112 12.34,-35.362 16,-10.25 24.334,-31.25 24.334,-31.25"
             id="path3152"
             style="fill:none;stroke:#4d4d4d;stroke-width:3;stroke-linecap:butt;stroke-linejoin:miter;stroke-miterlimit:10;stroke-opacity:1;stroke-dasharray:none" /></g><g
           transform="translate(183.0879,262.1982)"
           id="g3154"><path
             d="M 0,0 C 0,0 -3.311,-3.948 1.301,-11.948"
             id="path3156"
             style="fill:none;stroke:#4d4d4d;stroke-width:3;stroke-linecap:butt;stroke-linejoin:miter;stroke-miterlimit:10;stroke-opacity:1;stroke-dasharray:none" /></g><g
           transform="translate(174.7529,272.2402)"
           id="g3158"><path
             d="m 0,0 c 0,0 -11.753,3.26 -16.503,1.26 -4.75,-2 -11.5,-13.5 -1.25,-19.5 10.25,-6 13.277,-3.5 27.389,-10.25 14.111,-6.75 13.825,-10.25 29.343,-9.75 15.518,0.5 5.018,34.25 6.018,42.25 1,8 28,16.332 33.75,25.416"
             id="path3160"
             style="fill:none;stroke:#4d4d4d;stroke-width:3;stroke-linecap:butt;stroke-linejoin:miter;stroke-miterlimit:10;stroke-opacity:1;stroke-dasharray:none" /></g><g
           transform="translate(164.6191,308.5225)"
           id="g3162"><path
             d="m 0,0 c 0,0 -1.619,-6.772 2.131,-13.272 0,0 7.5,-3.249 19.75,7.251"
             id="path3164"
             style="fill:none;stroke:#4d4d4d;stroke-width:3;stroke-linecap:butt;stroke-linejoin:miter;stroke-miterlimit:10;stroke-opacity:1;stroke-dasharray:none" /></g><g
           transform="translate(206.75,301.6494)"
           id="g3166"><path
             d="M 0,0 C 0,0 5.984,-43.103 9,-54.399 12.016,-65.696 6.126,-67.863 2.848,-67.681"
             id="path3168"
             style="fill:none;stroke:#4d4d4d;stroke-width:3;stroke-linecap:butt;stroke-linejoin:miter;stroke-miterlimit:10;stroke-opacity:1;stroke-dasharray:none" /></g><g
           transform="translate(158.25,273.5)"
           id="g3170"><path
             d="m 0,0 c 0,0 -12.5,5 -13.75,-4.5 -1.25,-9.5 3.25,-8.301 4,-12.775 C -9,-21.75 -11.5,-35 2,-34.75 c 13.5,0.25 0.172,4.418 1.461,12.834"
             id="path3172"
             style="fill:none;stroke:#4d4d4d;stroke-width:3;stroke-linecap:butt;stroke-linejoin:miter;stroke-miterlimit:10;stroke-opacity:1;stroke-dasharray:none" /></g><g
           transform="translate(236.7246,306.6533)"
           id="g3174"><path
             d="M 0,0 C 0,0 1.225,-10.653 0,-17.153"
             id="path3176"
             style="fill:none;stroke:#4d4d4d;stroke-width:3;stroke-linecap:butt;stroke-linejoin:miter;stroke-miterlimit:10;stroke-opacity:1;stroke-dasharray:none" /></g><g
           transform="translate(239.7817,291.3018)"
           id="g3178"><path
             d="M 0,0 C 0,0 32.542,-3.149 50.255,6.774"
             id="path3180"
             style="fill:none;stroke:#4d4d4d;stroke-width:3;stroke-linecap:butt;stroke-linejoin:miter;stroke-miterlimit:10;stroke-opacity:1;stroke-dasharray:none" /></g><g
           transform="translate(271.7686,327.3174)"
           id="g3182"><path
             d="m 0,0 c 0,0 28.731,-5.646 34.231,-6.981 5.5,-1.336 6.75,-3.836 -2.5,-30.836 -9.25,-27 -11,-31.051 -10.25,-33.276 0,0 3.5,-1.474 -0.5,-3.974 -4,-2.5 -16.5,-4.25 -19.25,-6.25 0,0 -7.462,7 -1.731,12.5 0,0 -5.691,23.595 2.77,34.297"
             id="path3184"
             style="fill:none;stroke:#4d4d4d;stroke-width:3;stroke-linecap:butt;stroke-linejoin:miter;stroke-miterlimit:10;stroke-opacity:1;stroke-dasharray:none" /></g><g
           transform="translate(256.9365,324.9004)"
           id="g3186"><path
             d="m 0,0 c 0,0 47.313,-6.15 49.063,-8.9 1.75,-2.75 -17.722,-50.589 -17.5,-58 0,0 4.74,-0.817 3.245,-6.284"
             id="path3188"
             style="fill:none;stroke:#4d4d4d;stroke-width:3;stroke-linecap:butt;stroke-linejoin:miter;stroke-miterlimit:10;stroke-opacity:1;stroke-dasharray:none" /></g><g
           transform="translate(292.75,252.25)"
           id="g3190"><path
             d="m 0,0 c 0,0 13,-9.25 21,-9.5 0,0 3.5,-3.758 0,-4.004 -3.5,-0.246 -26,0 -26,0 l -5,3.504 0,-3.75 c 0,0 -6.5,-0.5 -8.25,1 -1.75,1.5 -1.5,4.25 -1,6.5"
             id="path3192"
             style="fill:none;stroke:#4d4d4d;stroke-width:3;stroke-linecap:butt;stroke-linejoin:miter;stroke-miterlimit:10;stroke-opacity:1;stroke-dasharray:none" /></g><g
           transform="translate(262,510.1406)"
           id="g3194"><path
             d="m 0,0 c 0,0 28,93.359 31.25,100.609 0,0 2.75,24.5 -15.625,26.25 -18.375,1.75 -23.972,-15.5 -23.972,-15.5 l -2.903,-13.25"
             id="path3196"
             style="fill:none;stroke:#4d4d4d;stroke-width:3;stroke-linecap:butt;stroke-linejoin:miter;stroke-miterlimit:10;stroke-opacity:1;stroke-dasharray:none" /></g><g
           transform="translate(293.396,616.75)"
           id="g3198"><path
             d="m 0,0 c 0,0 0.854,4.25 2.354,5.75 1.5,1.5 3.25,-1.5 13.5,3.75 10.25,5.25 11,2.75 13.25,4 2.25,1.25 3.75,6.75 0,8.25 -3.75,1.5 -11.25,3.5 -11.75,6.5 -0.5,3 5.25,7.75 5.25,7.75"
             id="path3200"
             style="fill:none;stroke:#4d4d4d;stroke-width:3;stroke-linecap:butt;stroke-linejoin:miter;stroke-miterlimit:10;stroke-opacity:1;stroke-dasharray:none" /></g><g
           transform="translate(310.75,645)"
           id="g3202"><path
             d="m 0,0 11.5,0 c 0,0 -3.5,14.5 -10,16 -6.5,1.5 -6.25,-3 -6.25,-3 0,0 -5.75,4 -10.75,-2.75 0,0 -3.75,2.807 -7.5,-2.097 0,0 -3.25,5.346 -18.75,-17.028"
             id="path3204"
             style="fill:none;stroke:#4d4d4d;stroke-width:3;stroke-linecap:butt;stroke-linejoin:miter;stroke-miterlimit:10;stroke-opacity:1;stroke-dasharray:none" /></g><g
           transform="translate(350,607.5)"
           id="g3206"><path
             d="m 0,0 c 0,0 108.75,7.75 122,82 0,0 -18.25,-92 22.75,-106.75"
             id="path3208"
             style="fill:none;stroke:#4d4d4d;stroke-width:3;stroke-linecap:butt;stroke-linejoin:miter;stroke-miterlimit:10;stroke-opacity:1;stroke-dasharray:none" /></g><g
           transform="translate(491.5,675.75)"
           id="g3210"><path
             d="m 0,0 c 0,0 8.25,-143.5 -4.75,-197.75 0,0 9.25,21.333 12,35.167 0,0 -4.271,-28.24 -7.058,-35.646 -0.152,-0.405 -0.299,-0.749 -0.442,-1.021 -2.75,-5.25 63.5,115.25 34.5,238"
             id="path3212"
             style="fill:none;stroke:#4d4d4d;stroke-width:3;stroke-linecap:butt;stroke-linejoin:miter;stroke-miterlimit:10;stroke-opacity:1;stroke-dasharray:none" /></g><g
           transform="translate(350.8105,607.5674)"
           id="g3214"><path
             d="m 0,0 c 0,0 59.939,19.683 95.439,72.933 0,0 -72.128,-26.5 -95.439,-71"
             id="path3216"
             style="fill:none;stroke:#4d4d4d;stroke-width:3;stroke-linecap:butt;stroke-linejoin:miter;stroke-miterlimit:10;stroke-opacity:1;stroke-dasharray:none" /></g><g
           transform="translate(493.1553,535.5649)"
           id="g3218"><path
             d="m 0,0 c -36.845,-30.435 -82.155,-28.315 -112.905,-15.671 -30.75,12.643 -36.5,45.106 -31.75,55.856 4.75,10.75 3.5,13.25 3.5,13.25 -5.75,34.5 8.5,85 8.5,85 0,0 21.4,79.315 113.834,65.667"
             id="path3220"
             style="fill:none;stroke:#4d4d4d;stroke-width:3;stroke-linecap:butt;stroke-linejoin:miter;stroke-miterlimit:10;stroke-opacity:1;stroke-dasharray:none" /></g><g
           transform="translate(376,543.3115)"
           id="g3222"><path
             d="M 0,0 C 0,0 13,-24.682 55.75,-7.747"
             id="path3224"
             style="fill:none;stroke:#4d4d4d;stroke-width:3;stroke-linecap:butt;stroke-linejoin:miter;stroke-miterlimit:10;stroke-opacity:1;stroke-dasharray:none" /></g><g
           transform="translate(388.75,558)"
           id="g3226"><path
             d="M 0,0 C 0,0 -5.5,-1.25 -2.5,-10.5"
             id="path3228"
             style="fill:none;stroke:#4d4d4d;stroke-width:3;stroke-linecap:butt;stroke-linejoin:miter;stroke-miterlimit:10;stroke-opacity:1;stroke-dasharray:none" /></g><g
           transform="translate(446.25,568.6875)"
           id="g3230"><path
             d="m 0,0 c -2.731,0 -4.945,2.214 -4.945,4.945 0,2.731 2.214,4.946 4.945,4.946 0.914,0 1.76,-0.266 2.494,-0.698 -1.907,2.26 -4.757,3.699 -7.945,3.699 -5.742,0 -10.397,-4.655 -10.397,-10.397 0,-5.742 4.655,-10.396 10.397,-10.396 5.742,0 10.396,4.654 10.396,10.396 C 4.945,2.98 4.9,3.454 4.836,3.921 4.364,1.682 2.38,0 0,0"
             id="path3232"
             style="fill:#4d4d4d;fill-opacity:1;fill-rule:nonzero;stroke:none" /></g><g
           transform="translate(373.0244,579.8115)"
           id="g3234"><path
             d="m 0,0 c -2.36,0 -4.274,1.914 -4.274,4.274 0,2.362 1.914,4.275 4.274,4.275 1.493,0 2.804,-0.768 3.568,-1.927 -0.741,4.382 -4.061,7.69 -8.048,7.69 -4.533,0 -8.207,-4.271 -8.207,-9.54 0,-5.269 3.674,-9.54 8.207,-9.54 3.537,0 6.542,2.606 7.695,6.252 C 2.431,0.583 1.289,0 0,0"
             id="path3236"
             style="fill:#4d4d4d;fill-opacity:1;fill-rule:nonzero;stroke:none" /></g><g
           transform="translate(360.3379,534.6665)"
           id="g3238"><path
             d="m 0,0 c 0,0 5.663,-29.666 10.996,-47.333 0,0 -9.667,14.614 -12.667,22.807 0,0 -1.325,-4.474 1.671,-15.974 0,0 -43.338,111.5 -15.338,184.5 28,73 108.001,81 144.334,71.333 0,0 47.332,0.667 65.666,-40.666 18.334,-41.334 5.334,-90.278 -5.333,-124.473"
             id="path3240"
             style="fill:none;stroke:#4d4d4d;stroke-width:3;stroke-linecap:butt;stroke-linejoin:miter;stroke-miterlimit:10;stroke-opacity:1;stroke-dasharray:none" /></g><g
           transform="translate(356.709,658.1831)"
           id="g3242"><path
             d="m 0,0 c 0,0 73.693,51.483 125.474,58.29 0,0 -43.517,4.86 -121.683,-42.473"
             id="path3244"
             style="fill:none;stroke:#4d4d4d;stroke-width:3;stroke-linecap:butt;stroke-linejoin:miter;stroke-miterlimit:10;stroke-opacity:1;stroke-dasharray:none" /></g><g
           transform="translate(370.1699,695.229)"
           id="g3246"><path
             d="M 0,0 C 0,0 46.996,40.771 124.58,27.104"
             id="path3248"
             style="fill:none;stroke:#4d4d4d;stroke-width:3;stroke-linecap:butt;stroke-linejoin:miter;stroke-miterlimit:10;stroke-opacity:1;stroke-dasharray:none" /></g><g
           transform="translate(531.0146,684.7085)"
           id="g3250"><path
             d="M 0,0 C 0,0 14.124,-25.975 32.722,-11.008"
             id="path3252"
             style="fill:none;stroke:#4d4d4d;stroke-width:3;stroke-linecap:butt;stroke-linejoin:miter;stroke-miterlimit:10;stroke-opacity:1;stroke-dasharray:none" /></g><g
           transform="translate(533.1094,663)"
           id="g3254"><path
             d="M 0,0 C 0,0 18.148,-12.326 31.02,3.337"
             id="path3256"
             style="fill:none;stroke:#4d4d4d;stroke-width:3;stroke-linecap:butt;stroke-linejoin:miter;stroke-miterlimit:10;stroke-opacity:1;stroke-dasharray:none" /></g><g
           transform="translate(533.1094,628.3335)"
           id="g3258"><path
             d="M 0,0 C 0,0 20.148,0.431 31.02,20.382"
             id="path3260"
             style="fill:none;stroke:#4d4d4d;stroke-width:3;stroke-linecap:butt;stroke-linejoin:miter;stroke-miterlimit:10;stroke-opacity:1;stroke-dasharray:none" /></g><g
           transform="translate(531.5234,616.75)"
           id="g3262"><path
             d="M 0,0 C 0,0 23.455,4.499 30.633,19.375"
             id="path3264"
             style="fill:none;stroke:#4d4d4d;stroke-width:3;stroke-linecap:butt;stroke-linejoin:miter;stroke-miterlimit:10;stroke-opacity:1;stroke-dasharray:none" /></g><g
           transform="translate(530.1953,605.0181)"
           id="g3266"><path
             d="M 0,0 C 0,0 17.974,3.152 29.723,18.4"
             id="path3268"
             style="fill:none;stroke:#4d4d4d;stroke-width:3;stroke-linecap:butt;stroke-linejoin:miter;stroke-miterlimit:10;stroke-opacity:1;stroke-dasharray:none" /></g><g
           transform="translate(527.4863,587.3652)"
           id="g3270"><path
             d="m 0,0 c 0,0 26.085,20.768 21.133,-8.965 -4.952,-29.734 -32.418,-38.27 -32.418,-38.27"
             id="path3272"
             style="fill:none;stroke:#4d4d4d;stroke-width:3;stroke-linecap:butt;stroke-linejoin:miter;stroke-miterlimit:10;stroke-opacity:1;stroke-dasharray:none" /></g><g
           transform="translate(525.1035,575.0439)"
           id="g3274"><path
             d="M 0,0 C 0,0 17.564,16.089 16.23,3.356 14.896,-9.377 3.896,-17.044 3.896,-17.044"
             id="path3276"
             style="fill:none;stroke:#4d4d4d;stroke-width:3;stroke-linecap:butt;stroke-linejoin:miter;stroke-miterlimit:10;stroke-opacity:1;stroke-dasharray:none" /></g><g
           transform="translate(555.5605,605.0181)"
           id="g3278"><path
             d="m 0,0 c 0,0 1.452,-47.685 -8.721,-66.352 0,0 17.161,34 19.494,71.334 0,0 -6,-44.213 13.333,-90.107 l -2.333,27.607 c 0,0 2.332,-10.834 13.666,-16.5 0,0 -14.666,24.666 -10.333,80.666 4.333,56 13.999,57.334 10.333,77.834 -3.666,20.5 -19.32,41.583 -44.16,33.541"
             id="path3280"
             style="fill:none;stroke:#4d4d4d;stroke-width:3;stroke-linecap:butt;stroke-linejoin:miter;stroke-miterlimit:10;stroke-opacity:1;stroke-dasharray:none" /></g><g
           transform="translate(558.2549,700.9736)"
           id="g3282"><path
             d="m 0,0 c 0,0 29.078,14.693 18.745,-70.974 0,0 4.066,61.507 -16.634,63.92"
             id="path3284"
             style="fill:none;stroke:#4d4d4d;stroke-width:3;stroke-linecap:butt;stroke-linejoin:miter;stroke-miterlimit:10;stroke-opacity:1;stroke-dasharray:none" /></g><g
           transform="translate(477.667,669.0532)"
           id="g3286"><path
             d="M 0,0 C 0,0 -3.69,-62.585 15.488,-72.152"
             id="path3288"
             style="fill:none;stroke:#4d4d4d;stroke-width:3;stroke-linecap:butt;stroke-linejoin:miter;stroke-miterlimit:10;stroke-opacity:1;stroke-dasharray:none" /></g><g
           transform="translate(403.1914,513.1665)"
           id="g3290"><path
             d="m 0,0 c 0,0 48.559,-38.167 73.059,-56.667 0,0 9.804,35.636 -6,47.167"
             id="path3292"
             style="fill:none;stroke:#4d4d4d;stroke-width:3;stroke-linecap:butt;stroke-linejoin:miter;stroke-miterlimit:10;stroke-opacity:1;stroke-dasharray:none" /></g><g
           transform="translate(476.0488,523.5571)"
           id="g3294"><path
             d="M 0,0 C 0,0 -10.132,-19.417 -7.632,-34.167"
             id="path3296"
             style="fill:none;stroke:#4d4d4d;stroke-width:3;stroke-linecap:butt;stroke-linejoin:miter;stroke-miterlimit:10;stroke-opacity:1;stroke-dasharray:none" /></g><g
           transform="translate(433.6074,489.375)"
           id="g3298"><path
             d="M 0,0 C 0,0 37.299,-15.625 44.721,0"
             id="path3300"
             style="fill:none;stroke:#4d4d4d;stroke-width:3;stroke-linecap:butt;stroke-linejoin:miter;stroke-miterlimit:10;stroke-opacity:1;stroke-dasharray:none" /></g><g
           transform="translate(290.0371,531)"
           id="g3302"><path
             d="m 0,0 c 0,0 2.963,-1.417 4.463,-5.333 1.5,-3.917 3.5,-14.839 9.25,-14.503 5.75,0.336 2.5,18.526 -3.5,25.306 0,0 8.68,-8.97 8.84,-17.72 0.16,-8.75 1.91,-10.25 4.91,-10.25 3,0 9.25,8.333 -2.25,31.63 L 28.373,-3 c 0,0 -0.092,-17.422 6.374,-16.836 6.466,0.586 3.966,19.086 3.466,21.086 -0.5,2 -5.25,11.75 -8,13 0,0 7,-0.5 10,-4 0,0 1.5,-14.75 6.25,-14.375 4.75,0.375 5.5,4.498 3,16.437 0,0 -0.25,12.688 -12,11.188 -11.75,-1.5 -19.75,-7 -19.75,-7 0,0 -23.25,-1.992 -22.25,-17.871 0,0 -0.249,-13.22 10.5,-12.796"
             id="path3304"
             style="fill:none;stroke:#4d4d4d;stroke-width:3;stroke-linecap:butt;stroke-linejoin:miter;stroke-miterlimit:10;stroke-opacity:1;stroke-dasharray:none" /></g><g
           transform="translate(340.9023,531)"
           id="g3306"><path
             d="m 0,0 c 0,0 7.65,-0.636 6.124,-7.443 -1.526,-6.807 -14.028,0.307 -17.902,0"
             id="path3308"
             style="fill:none;stroke:#4d4d4d;stroke-width:3;stroke-linecap:butt;stroke-linejoin:miter;stroke-miterlimit:10;stroke-opacity:1;stroke-dasharray:none" /></g><g
           transform="translate(295.75,500.75)"
           id="g3310"><path
             d="M 0,0 C 0,0 40.55,-12.146 33.374,20.28"
             id="path3312"
             style="fill:none;stroke:#4d4d4d;stroke-width:3;stroke-linecap:butt;stroke-linejoin:miter;stroke-miterlimit:10;stroke-opacity:1;stroke-dasharray:none" /></g><g
           transform="translate(288.5,540.1299)"
           id="g3314"><path
             d="m 0,0 c 0,0 -27,-20.336 -1,-41.608 0,0 19.852,-12.939 50.676,-4.355"
             id="path3316"
             style="fill:none;stroke:#4d4d4d;stroke-width:3;stroke-linecap:butt;stroke-linejoin:miter;stroke-miterlimit:10;stroke-opacity:1;stroke-dasharray:none" /></g><g
           transform="translate(336.75,521.0303)"
           id="g3318"><path
             d="M 0,0 C 0,0 3.25,-22.28 0,-31.655"
             id="path3320"
             style="fill:none;stroke:#4d4d4d;stroke-width:3;stroke-linecap:butt;stroke-linejoin:miter;stroke-miterlimit:10;stroke-opacity:1;stroke-dasharray:none" /></g><g
           transform="translate(329.9756,492.3223)"
           id="g3322"><path
             d="m 0,0 5.604,-6.419 c 0,0 18.92,3.266 43.92,-9.569"
             id="path3324"
             style="fill:none;stroke:#4d4d4d;stroke-width:3;stroke-linecap:butt;stroke-linejoin:miter;stroke-miterlimit:10;stroke-opacity:1;stroke-dasharray:none" /></g><g
           transform="translate(340.9023,538.75)"
           id="g3326"><path
             d="M 0,0 C 0,0 3.65,-1 6.124,0"
             id="path3328"
             style="fill:none;stroke:#4d4d4d;stroke-width:3;stroke-linecap:butt;stroke-linejoin:miter;stroke-miterlimit:10;stroke-opacity:1;stroke-dasharray:none" /></g><g
           transform="translate(376,521.8447)"
           id="g3330"><path
             d="M 0,0 C 0,0 11,-2.939 16,-16.642"
             id="path3332"
             style="fill:none;stroke:#4d4d4d;stroke-width:3;stroke-linecap:butt;stroke-linejoin:miter;stroke-miterlimit:10;stroke-opacity:1;stroke-dasharray:none" /></g><g
           transform="translate(373.4395,479.1904)"
           id="g3334"><path
             d="m 0,0 c 0,0 9.121,-24.69 25.091,-52.19 0,0 -4.03,-1.311 -3.28,-4.531 0.75,-3.219 -13.75,-20.469 -19.25,-29.469 0,0 54.75,-51.75 118.75,-30.25 0,0 11,26 5.25,58.5 0,0 17.902,5.5 16.201,20.75 -1.701,15.25 -17.201,20.291 -21.451,32.75"
             id="path3336"
             style="fill:none;stroke:#4d4d4d;stroke-width:3;stroke-linecap:butt;stroke-linejoin:miter;stroke-miterlimit:10;stroke-opacity:1;stroke-dasharray:none" /></g><g
           transform="translate(470.75,506.4736)"
           id="g3338"><path
             d="M 0,0 C 0,0 18.748,-4.34 19.749,-6.032"
             id="path3340"
             style="fill:none;stroke:#4d4d4d;stroke-width:3;stroke-linecap:butt;stroke-linejoin:miter;stroke-miterlimit:10;stroke-opacity:1;stroke-dasharray:none" /></g><g
           transform="translate(500.5537,496.5449)"
           id="g3342"><path
             d="m 0,0 c 0,0 8.696,-6.626 11.446,-20.21 2.75,-13.585 12.5,-24.335 15,-27.585 0,0 0.381,-3.516 -10.684,-12.383"
             id="path3344"
             style="fill:none;stroke:#4d4d4d;stroke-width:3;stroke-linecap:butt;stroke-linejoin:miter;stroke-miterlimit:10;stroke-opacity:1;stroke-dasharray:none" /></g><g
           transform="translate(474.5,449.25)"
           id="g3346"><path
             d="m 0,0 c 0,0 3.52,-23.25 -24.615,-26 -28.135,-2.75 -30.872,7.75 -30.872,7.75"
             id="path3348"
             style="fill:none;stroke:#4d4d4d;stroke-width:3;stroke-linecap:butt;stroke-linejoin:miter;stroke-miterlimit:10;stroke-opacity:1;stroke-dasharray:none" /></g><g
           transform="translate(507.5576,425.0522)"
           id="g3350"><path
             d="M 0,0 C 0,0 11.696,0.245 19.444,-5.904"
             id="path3352"
             style="fill:none;stroke:#4d4d4d;stroke-width:3;stroke-linecap:butt;stroke-linejoin:miter;stroke-miterlimit:10;stroke-opacity:1;stroke-dasharray:none" /></g><g
           transform="translate(524.2207,443.7744)"
           id="g3354"><path
             d="m 0,0 c 0,0 15.279,-20.058 15.279,-27.791 0,-7.733 -31.942,-29.733 -31.942,-29.733 0,0 -1.558,-9.258 -3.808,-9.254 l -3.196,9.022"
             id="path3356"
             style="fill:none;stroke:#4d4d4d;stroke-width:3;stroke-linecap:butt;stroke-linejoin:miter;stroke-miterlimit:10;stroke-opacity:1;stroke-dasharray:none" /></g><g
           transform="translate(503.75,376.9961)"
           id="g3358"><path
             d="m 0,0 c 0,0 2.365,-7.746 3.808,-13.996 0,0 1.551,-0.25 2.372,-2"
             id="path3360"
             style="fill:none;stroke:#4d4d4d;stroke-width:3;stroke-linecap:butt;stroke-linejoin:miter;stroke-miterlimit:10;stroke-opacity:1;stroke-dasharray:none" /></g><g
           transform="translate(506.8398,365.9473)"
           id="g3362"><path
             d="m 0,0 c 0,0 2.965,8.803 6.938,7.303 3.972,-1.5 -0.661,-12.75 -3.469,-17 -2.809,-4.25 -6.559,-1.935 -6.559,-1.935 0,0 -4.25,6.185 -5.5,6.685"
             id="path3364"
             style="fill:none;stroke:#4d4d4d;stroke-width:3;stroke-linecap:butt;stroke-linejoin:miter;stroke-miterlimit:10;stroke-opacity:1;stroke-dasharray:none" /></g><g
           transform="translate(503.75,354.3154)"
           id="g3366"><path
             d="M 0,0 C 0,0 -3.87,-4.38 -10.12,-0.63"
             id="path3368"
             style="fill:none;stroke:#4d4d4d;stroke-width:3;stroke-linecap:butt;stroke-linejoin:miter;stroke-miterlimit:10;stroke-opacity:1;stroke-dasharray:none" /></g><g
           transform="translate(376,393)"
           id="g3370"><path
             d="m 0,0 c 0,0 -17,-17.25 -14,-54 3,-36.75 -9,-47 -10.75,-55.5 -1.75,-8.5 -4.25,-25.5 -2.5,-36.25 0,0 -4.5,-6.75 3,-11.75 0,0 7.25,11.42 20.5,9.835 0,0 14,60.345 42.25,84.13 0,0 56.906,11.535 63.828,16.285"
             id="path3372"
             style="fill:none;stroke:#4d4d4d;stroke-width:3;stroke-linecap:butt;stroke-linejoin:miter;stroke-miterlimit:10;stroke-opacity:1;stroke-dasharray:none" /></g><g
           transform="translate(385.3994,385.3652)"
           id="g3374"><path
             d="m 0,0 c 0,0 -16.649,-19.453 -14.399,-48.159 2.25,-28.706 -12.25,-46.379 -12.25,-46.379 0,0 -8.75,-20.077 -5.75,-41.827 0,0 -4.524,-5.451 1.738,-9.976"
             id="path3376"
             style="fill:none;stroke:#4d4d4d;stroke-width:3;stroke-linecap:butt;stroke-linejoin:miter;stroke-miterlimit:10;stroke-opacity:1;stroke-dasharray:none" /></g><g
           transform="translate(374.0762,363.5537)"
           id="g3378"><path
             d="M 0,0 C 0,0 14.619,-4.886 37.521,6.155"
             id="path3380"
             style="fill:none;stroke:#4d4d4d;stroke-width:3;stroke-linecap:butt;stroke-linejoin:miter;stroke-miterlimit:10;stroke-opacity:1;stroke-dasharray:none" /></g><g
           transform="translate(451.4033,337.6113)"
           id="g3382"><path
             d="M 0,0 C 0,0 8.597,5.682 8.097,19.91"
             id="path3384"
             style="fill:none;stroke:#4d4d4d;stroke-width:3;stroke-linecap:butt;stroke-linejoin:miter;stroke-miterlimit:10;stroke-opacity:1;stroke-dasharray:none" /></g><g
           transform="translate(441.2236,335.2324)"
           id="g3386"><path
             d="m 0,0 c 0,0 18.776,-42.232 19.526,-53.232 0.75,-11 5.782,-34.5 13.891,-41.5 0,0 -2.293,-4.332 1.408,-6.541 0,0 13.951,6.291 16.201,9.291 0,0 1.998,2.75 -1.751,6 -3.749,3.25 1.251,95.75 4.251,113.5"
             id="path3388"
             style="fill:none;stroke:#4d4d4d;stroke-width:3;stroke-linecap:butt;stroke-linejoin:miter;stroke-miterlimit:10;stroke-opacity:1;stroke-dasharray:none" /></g><g
           transform="translate(458.4121,339.3438)"
           id="g3390"><path
             d="m 0,0 c 0,0 8.088,-45.594 11.588,-54.344 0,0 3.762,-33.25 9.256,-41.5 0,0 -1.319,-4.394 1.213,-7.447"
             id="path3392"
             style="fill:none;stroke:#4d4d4d;stroke-width:3;stroke-linecap:butt;stroke-linejoin:miter;stroke-miterlimit:10;stroke-opacity:1;stroke-dasharray:none" /></g><g
           transform="translate(351.75,235.5)"
           id="g3394"><path
             d="M 0,0 2.988,-1.547 C 2.988,-1.547 1.25,-6 19.75,-5.5 38.25,-5 29,7.92 20.5,9.835 12,11.75 3.1,1.811 2.988,-1.547"
             id="path3396"
             style="fill:none;stroke:#4d4d4d;stroke-width:3;stroke-linecap:butt;stroke-linejoin:miter;stroke-miterlimit:10;stroke-opacity:1;stroke-dasharray:none" /></g><g
           transform="translate(492.25,243.25)"
           id="g3398"><path
             d="m 0,0 c 0,0 0.75,-4.25 12.5,-4.83 11.75,-0.58 11.565,-9.42 11.565,-9.42 0,0 -26.815,-0.25 -35.846,0 -9.032,0.25 -3.469,4.953 -3.469,4.953"
             id="path3400"
             style="fill:none;stroke:#4d4d4d;stroke-width:3;stroke-linecap:butt;stroke-linejoin:miter;stroke-miterlimit:10;stroke-opacity:1;stroke-dasharray:none" /></g><g
           transform="translate(503.75,238.4199)"
           id="g3402"><path
             d="M 0,0 C 0,0 -8.879,-0.143 -7.939,-9.531"
             id="path3404"
             style="fill:none;stroke:#4d4d4d;stroke-width:3;stroke-linecap:butt;stroke-linejoin:miter;stroke-miterlimit:10;stroke-opacity:1;stroke-dasharray:none" /></g><g
           transform="translate(486.75,238.4199)"
           id="g3406"><path
             d="M 0,0 9.725,-4.461"
             id="path3408"
             style="fill:none;stroke:#4d4d4d;stroke-width:3;stroke-linecap:butt;stroke-linejoin:miter;stroke-miterlimit:10;stroke-opacity:1;stroke-dasharray:none" /></g><g
           transform="translate(307.8076,491.8818)"
           id="g3410"><path
             d="M 0,0 C -10.088,-74.669 -20.308,-150.382 -20.308,-150.382"
             id="path3412"
             style="fill:none;stroke:#4d4d4d;stroke-width:3;stroke-linecap:butt;stroke-linejoin:miter;stroke-miterlimit:10;stroke-opacity:1;stroke-dasharray:none" /></g><g
           transform="translate(322.25,645)"
           id="g3414"><path
             d="M 0,0 C 0,0 5.751,-4.417 5.084,-8.875 4.852,-10.432 -0.07,-46.785 -6.38,-93.458"
             id="path3416"
             style="fill:none;stroke:#4d4d4d;stroke-width:3;stroke-linecap:butt;stroke-linejoin:miter;stroke-miterlimit:10;stroke-opacity:1;stroke-dasharray:none" /></g><g
           transform="translate(302.5244,546.585)"
           id="g3418"><path
             d="M 0,0 10.338,81.375"
             id="path3420"
             style="fill:none;stroke:#4d4d4d;stroke-width:3;stroke-linecap:butt;stroke-linejoin:miter;stroke-miterlimit:10;stroke-opacity:1;stroke-dasharray:none" /></g><g
           transform="translate(278.25,355.5)"
           id="g3422"><path
             d="M 0,0 17.684,139.2"
             id="path3424"
             style="fill:none;stroke:#4d4d4d;stroke-width:3;stroke-linecap:butt;stroke-linejoin:miter;stroke-miterlimit:10;stroke-opacity:1;stroke-dasharray:none" /></g><g
           transform="translate(281.5239,349.6504)"
           id="g3426"><path
             d="M 0,0 5.976,0"
             id="path3428"
             style="fill:none;stroke:#4d4d4d;stroke-width:2;stroke-linecap:butt;stroke-linejoin:miter;stroke-miterlimit:10;stroke-opacity:1;stroke-dasharray:none" /></g><g
           transform="translate(283.1904,361)"
           id="g3430"><path
             d="M 0,0 5.976,0"
             id="path3432"
             style="fill:none;stroke:#4d4d4d;stroke-width:2;stroke-linecap:butt;stroke-linejoin:miter;stroke-miterlimit:10;stroke-opacity:1;stroke-dasharray:none" /></g><g
           transform="translate(284.8569,372.3496)"
           id="g3434"><path
             d="M 0,0 5.976,0"
             id="path3436"
             style="fill:none;stroke:#4d4d4d;stroke-width:2;stroke-linecap:butt;stroke-linejoin:miter;stroke-miterlimit:10;stroke-opacity:1;stroke-dasharray:none" /></g><g
           transform="translate(286.5234,383.6992)"
           id="g3438"><path
             d="M 0,0 5.976,0"
             id="path3440"
             style="fill:none;stroke:#4d4d4d;stroke-width:2;stroke-linecap:butt;stroke-linejoin:miter;stroke-miterlimit:10;stroke-opacity:1;stroke-dasharray:none" /></g><g
           transform="translate(288.1899,395.0488)"
           id="g3442"><path
             d="M 0,0 5.976,0"
             id="path3444"
             style="fill:none;stroke:#4d4d4d;stroke-width:2;stroke-linecap:butt;stroke-linejoin:miter;stroke-miterlimit:10;stroke-opacity:1;stroke-dasharray:none" /></g><g
           transform="translate(289.8564,406.3984)"
           id="g3446"><path
             d="M 0,0 5.976,0"
             id="path3448"
             style="fill:none;stroke:#4d4d4d;stroke-width:2;stroke-linecap:butt;stroke-linejoin:miter;stroke-miterlimit:10;stroke-opacity:1;stroke-dasharray:none" /></g><g
           transform="translate(291.5229,417.748)"
           id="g3450"><path
             d="M 0,0 5.976,0"
             id="path3452"
             style="fill:none;stroke:#4d4d4d;stroke-width:2;stroke-linecap:butt;stroke-linejoin:miter;stroke-miterlimit:10;stroke-opacity:1;stroke-dasharray:none" /></g><g
           transform="translate(293.1895,429.0977)"
           id="g3454"><path
             d="M 0,0 5.976,0"
             id="path3456"
             style="fill:none;stroke:#4d4d4d;stroke-width:2;stroke-linecap:butt;stroke-linejoin:miter;stroke-miterlimit:10;stroke-opacity:1;stroke-dasharray:none" /></g><g
           transform="translate(294.856,440.4473)"
           id="g3458"><path
             d="M 0,0 5.976,0"
             id="path3460"
             style="fill:none;stroke:#4d4d4d;stroke-width:2;stroke-linecap:butt;stroke-linejoin:miter;stroke-miterlimit:10;stroke-opacity:1;stroke-dasharray:none" /></g><g
           transform="translate(296.5225,451.7969)"
           id="g3462"><path
             d="M 0,0 5.976,0"
             id="path3464"
             style="fill:none;stroke:#4d4d4d;stroke-width:2;stroke-linecap:butt;stroke-linejoin:miter;stroke-miterlimit:10;stroke-opacity:1;stroke-dasharray:none" /></g><g
           transform="translate(298.189,463.1465)"
           id="g3466"><path
             d="M 0,0 5.976,0"
             id="path3468"
             style="fill:none;stroke:#4d4d4d;stroke-width:2;stroke-linecap:butt;stroke-linejoin:miter;stroke-miterlimit:10;stroke-opacity:1;stroke-dasharray:none" /></g><g
           transform="translate(299.8555,474.4961)"
           id="g3470"><path
             d="M 0,0 5.976,0"
             id="path3472"
             style="fill:none;stroke:#4d4d4d;stroke-width:2;stroke-linecap:butt;stroke-linejoin:miter;stroke-miterlimit:10;stroke-opacity:1;stroke-dasharray:none" /></g><g
           transform="translate(301.522,485.8457)"
           id="g3474"><path
             d="M 0,0 5.976,0"
             id="path3476"
             style="fill:none;stroke:#4d4d4d;stroke-width:2;stroke-linecap:butt;stroke-linejoin:miter;stroke-miterlimit:10;stroke-opacity:1;stroke-dasharray:none" /></g><g
           transform="translate(309.5195,553.9434)"
           id="g3478"><path
             d="M 0,0 5.975,0"
             id="path3480"
             style="fill:none;stroke:#4d4d4d;stroke-width:2;stroke-linecap:butt;stroke-linejoin:miter;stroke-miterlimit:10;stroke-opacity:1;stroke-dasharray:none" /></g><g
           transform="translate(311.1855,565.293)"
           id="g3482"><path
             d="M 0,0 5.975,0"
             id="path3484"
             style="fill:none;stroke:#4d4d4d;stroke-width:2;stroke-linecap:butt;stroke-linejoin:miter;stroke-miterlimit:10;stroke-opacity:1;stroke-dasharray:none" /></g><g
           transform="translate(312.8516,576.6426)"
           id="g3486"><path
             d="M 0,0 5.975,0"
             id="path3488"
             style="fill:none;stroke:#4d4d4d;stroke-width:2;stroke-linecap:butt;stroke-linejoin:miter;stroke-miterlimit:10;stroke-opacity:1;stroke-dasharray:none" /></g><g
           transform="translate(314.5176,587.9922)"
           id="g3490"><path
             d="M 0,0 5.975,0"
             id="path3492"
             style="fill:none;stroke:#4d4d4d;stroke-width:2;stroke-linecap:butt;stroke-linejoin:miter;stroke-miterlimit:10;stroke-opacity:1;stroke-dasharray:none" /></g><g
           transform="translate(316.1836,599.3418)"
           id="g3494"><path
             d="M 0,0 5.975,0"
             id="path3496"
             style="fill:none;stroke:#4d4d4d;stroke-width:2;stroke-linecap:butt;stroke-linejoin:miter;stroke-miterlimit:10;stroke-opacity:1;stroke-dasharray:none" /></g><g
           transform="translate(317.8496,610.6914)"
           id="g3498"><path
             d="M 0,0 5.975,0"
             id="path3500"
             style="fill:none;stroke:#4d4d4d;stroke-width:2;stroke-linecap:butt;stroke-linejoin:miter;stroke-miterlimit:10;stroke-opacity:1;stroke-dasharray:none" /></g><g
           transform="translate(319.5156,622.041)"
           id="g3502"><path
             d="M 0,0 5.975,0"
             id="path3504"
             style="fill:none;stroke:#4d4d4d;stroke-width:2;stroke-linecap:butt;stroke-linejoin:miter;stroke-miterlimit:10;stroke-opacity:1;stroke-dasharray:none" /></g><g
           transform="translate(425.5,614.2183)"
           id="g3506"><path
             d="M 0,0 C 0,0 17.5,11.835 38,1.184 38,1.184 17.25,21.218 0,0 z"
             id="path3508"
             style="fill:none;stroke:#4d4d4d;stroke-width:2;stroke-linecap:butt;stroke-linejoin:miter;stroke-miterlimit:10;stroke-opacity:1;stroke-dasharray:none" /></g><g
           transform="translate(368.4648,632.9771)"
           id="g3510"><path
             d="M 0,0 C 0,0 7.342,1.211 13.813,-10.633"
             id="path3512"
             style="fill:none;stroke:#4d4d4d;stroke-width:2;stroke-linecap:butt;stroke-linejoin:miter;stroke-miterlimit:10;stroke-opacity:1;stroke-dasharray:none" /></g><g
           transform="translate(373.4395,637.1245)"
           id="g3514"><path
             d="M 0,0 C 0,0 10.345,-4.65 11.915,-13.706"
             id="path3516"
             style="fill:none;stroke:#4d4d4d;stroke-width:2;stroke-linecap:butt;stroke-linejoin:miter;stroke-miterlimit:10;stroke-opacity:1;stroke-dasharray:none" /></g></g></g><g
       id="g3518"><g
         clip-path="url(#clipPath3522)"
         id="g3520"><g
           transform="translate(184.9395,464.9238)"
           id="g3526"><path
             d="M 0,0 C 0.242,1.811 1.338,3.3 3.353,4.552 9.653,8.47 15.923,3.283 18.466,0.699 15.169,-0.144 12.26,-1.384 9.768,-2.751 7.929,0.274 7.109,1.004 6.887,1.162 L 5.695,-0.443 C 5.726,-0.47 6.394,-1.053 8.04,-3.757 5.887,-5.084 4.108,-6.456 2.739,-7.646 1.533,-6.032 -0.391,-2.935 0,0 m -0.615,-10.992 2.351,-1.863 c 0.156,0.195 15.823,19.458 41.465,8.061 l 1.219,2.741 C 35.825,1.767 28.251,2.378 21.883,1.401 18.42,5.649 9.905,12.159 1.769,7.1 -1.021,5.366 -2.617,3.106 -2.975,0.384 c -0.55,-4.171 2.058,-8.212 3.517,-10.103 -0.733,-0.755 -1.132,-1.242 -1.157,-1.273"
             id="path3528"
             style="fill:#4d4d4d;fill-opacity:1;fill-rule:nonzero;stroke:none" /></g><g
           transform="translate(227.2734,484.0151)"
           id="g3530"><path
             d="M 0,0 2.953,-0.53 C 4.944,10.564 -4.658,12.443 -4.755,12.46 L -5.292,9.509 C -5.015,9.459 1.469,8.183 0,0"
             id="path3532"
             style="fill:#4d4d4d;fill-opacity:1;fill-rule:nonzero;stroke:none" /></g><g
           transform="translate(238.666,516.6665)"
           id="g3534"><path
             d="m 0,0 c 3.498,0 6.334,4.029 6.334,9 0,0.351 -0.018,0.696 -0.045,1.037 C 5.906,8.081 4.682,6.64 3.213,6.64 1.438,6.64 0,8.729 0,11.307 c 0,2.578 1.438,4.667 3.213,4.667 0.346,0 0.673,-0.1 0.985,-0.247 C 3.08,17.137 1.613,18 0,18 -3.498,18 -6.333,13.971 -6.333,9 -6.333,4.029 -3.498,0 0,0"
             id="path3536"
             style="fill:#4d4d4d;fill-opacity:1;fill-rule:nonzero;stroke:none" /></g><g
           transform="translate(235.4619,321.3789)"
           id="g3538"><path
             d="m 0,0 c -0.993,-0.277 -2.48,0.86 -3.052,2.95 -0.271,0.992 -0.268,2.023 0.009,2.828 0.136,0.396 0.461,1.085 1.119,1.265 0.103,0.028 0.211,0.043 0.32,0.043 0.94,0 2.22,-1.12 2.732,-2.993 C 1.641,2.217 1.113,0.304 0,0 M -1.604,9.086 C -1.892,9.086 -2.176,9.048 -2.451,8.973 -3.58,8.664 -4.485,7.737 -4.935,6.429 -5.345,5.235 -5.361,3.813 -4.981,2.423 c 0.718,-2.629 2.635,-4.466 4.662,-4.466 0.287,0 0.571,0.038 0.846,0.113 2.254,0.617 3.366,3.493 2.53,6.55 -0.719,2.629 -2.636,4.466 -4.661,4.466"
             id="path3540"
             style="fill:#4d4d4d;fill-opacity:1;fill-rule:nonzero;stroke:none" /></g><g
           transform="translate(430.1973,536.9595)"
           id="g3542"><path
             d="m 0,0 c -40.871,-16.192 -53.36,6.099 -53.872,7.055 l -1.325,-0.703 -1.327,-0.699 c 0.142,-0.27 3.586,-6.663 12.531,-10.882 4.093,-1.93 9.789,-3.569 17.333,-3.569 7.401,0 16.581,1.578 27.765,6.009 L 0,0 z"
             id="path3544"
             style="fill:#4d4d4d;fill-opacity:1;fill-rule:nonzero;stroke:none" /></g><g
           transform="translate(386.6768,547.9629)"
           id="g3546"><path
             d="M 0,0 C -1.004,3.097 -1.09,5.554 -0.248,7.105 0.395,8.29 1.391,8.569 1.433,8.581 L 1.073,10.037 0.741,11.5 C 0.513,11.448 -1.527,10.927 -2.821,8.651 -4.147,6.318 -4.158,3.096 -2.854,-0.926 L 0,0 z"
             id="path3548"
             style="fill:#4d4d4d;fill-opacity:1;fill-rule:nonzero;stroke:none" /></g><g
           transform="translate(439.7988,560.7861)"
           id="g3550"><path
             d="m 0,0 c 5.742,0 10.396,4.655 10.396,10.396 0,0.485 -0.044,0.959 -0.109,1.426 C 9.815,9.583 7.831,7.901 5.451,7.901 c -2.731,0 -4.945,2.214 -4.945,4.946 0,2.731 2.214,4.945 4.945,4.945 0.914,0 1.76,-0.265 2.494,-0.698 -1.907,2.26 -4.757,3.699 -7.945,3.699 -5.742,0 -10.396,-4.655 -10.396,-10.397 C -10.396,4.655 -5.742,0 0,0"
             id="path3552"
             style="fill:#4d4d4d;fill-opacity:1;fill-rule:nonzero;stroke:none" /></g><g
           transform="translate(577.8008,547.8154)"
           id="g3554"><path
             d="m 0,0 -2.962,-0.442 1.444,-17.085 c -10.894,31.314 -10.743,60.589 -10.006,73.113 0.231,2.155 0.419,4.325 0.554,6.505 l -2.983,0.295 c -0.014,-0.1 -0.316,-2.43 -0.557,-6.5 -1.629,-15.151 -5.5,-29.504 -9.307,-40.794 2.665,19.23 2.134,40.129 2.079,42.061 3.645,13.771 6.591,27.985 7.896,42.183 0.162,0.283 0.329,0.556 0.488,0.846 l -0.399,0.217 c 1.272,14.753 0.745,29.471 -2.619,43.638 C -2.742,138.5 -2.25,98.168 -3.298,82.283 l 2.986,-0.278 c 4.819,39.946 1.898,63.961 -8.679,71.378 -4.21,2.952 -8.424,2.361 -10.64,1.709 -0.843,2.366 -1.768,4.712 -2.799,7.034 -2.028,4.573 -4.414,8.638 -7.049,12.26 7.912,2.09 15.191,1.193 21.66,-2.689 9.07,-5.442 16.175,-17.043 18.542,-30.277 1.727,-9.662 0.422,-14.826 -1.95,-24.201 C 6.316,107.507 2.604,92.83 0.371,63.967 -2.928,21.336 4.601,-3.14 8.616,-12.787 1.7,-7.369 0.018,-0.083 0,0 m -28.883,42.985 c -0.667,1.883 -1.733,3.257 -3.214,4.128 -4.998,2.94 -12.846,-1.346 -17.166,-4.231 0.708,4.256 1.367,8.606 1.952,13.057 3.601,0.818 15.694,4.195 25.686,14.27 -2.078,-9.251 -4.587,-18.372 -7.258,-27.224 M -31.661,30.831 C -35.479,7.904 -53.365,-2.102 -60.292,-5.163 c 0.703,2.402 1.4,4.846 2.085,7.349 2.03,7.42 4.026,15.542 5.849,24.228 4.856,4.376 11.074,8.373 12.867,7.47 0.505,-0.255 0.709,-1.459 0.532,-3.143 C -40.202,18.868 -50.556,11.487 -50.66,11.414 l 1.717,-2.46 c 0.472,0.329 11.579,8.211 12.968,21.474 0.333,3.178 -0.396,5.242 -2.167,6.135 -3.343,1.688 -9.264,-2.215 -13.247,-5.391 0.486,2.46 0.951,4.967 1.403,7.508 3.353,2.566 12.29,8.246 16.369,5.848 2.524,-1.486 3.201,-6.222 1.956,-13.697 m -36.61,-102.61 c 2.514,-12.419 10.708,-22.537 14.208,-26.858 0.245,-0.303 0.468,-0.578 0.665,-0.824 -0.329,-0.95 -1.739,-3.738 -7.595,-8.794 0.019,0.838 -0.015,1.706 -0.115,2.606 -1.016,9.099 -6.57,14.678 -11.94,20.074 -4.03,4.048 -7.836,7.871 -9.583,12.994 l -2.84,-0.969 c 1.972,-5.778 6.203,-10.03 10.297,-14.142 5.237,-5.262 10.185,-10.232 11.083,-18.29 1.542,-13.817 -14.47,-18.939 -15.152,-19.15 l -1.266,-0.392 0.231,-1.303 c 5.119,-28.929 -3.335,-52.926 -4.91,-57.035 -32.303,-10.6 -62.126,-1.972 -81.512,7.175 -18.141,8.56 -30.772,19.149 -34.161,22.141 2.04,3.18 5.024,7.249 7.92,11.198 8.156,11.122 11.421,15.895 10.851,18.343 -0.427,1.83 2.179,2.728 2.283,2.763 l 1.766,0.574 -0.933,1.606 c -12.292,21.167 -20.581,40.856 -23.653,48.548 0.873,-0.416 1.752,-0.845 2.641,-1.301 l 1.371,2.669 c -1.734,0.89 -3.434,1.695 -5.104,2.439 l -2.312,7.659 c -3.828,12.684 -7.869,31.798 -9.799,41.334 4.805,-4.417 10.429,-8.013 16.709,-10.595 0.012,-0.005 0.024,-0.01 0.037,-0.015 3.393,-2.067 8.081,-6.148 10.874,-13.803 l 2.818,1.028 c -1.518,4.162 -3.558,7.374 -5.698,9.849 4.687,-1.522 9.642,-2.798 14.798,-3.77 3.713,-2.918 49.482,-38.857 72.837,-56.493 l 1.765,-1.331 0.586,2.131 c 0.41,1.494 9.862,36.677 -6.501,48.726 7.344,-1.724 15.51,-3.978 17.702,-5.071 -0.961,-8.063 -2.148,-15.319 -3.607,-21.408 l 2.835,-0.946 c 0.191,0.437 2.517,5.824 5.142,12.83 -1.023,-5.163 -2.085,-9.809 -2.98,-12.185 -0.133,-0.356 -0.258,-0.643 -0.367,-0.853 -0.527,-1.007 -0.099,-1.648 0.203,-1.94 l 1.784,-0.225 c 0.121,0.069 0.309,0.312 0.552,0.698 l 0.064,-0.032 0.055,0.108 c 0.094,0.179 0.188,0.378 0.283,0.601 1.934,3.418 5.947,12.314 8.242,17.614 2.495,-2.49 7.502,-8.476 9.426,-17.983 m 27.47,-60.053 c 0,-5.058 -19.194,-20.164 -31.293,-28.498 l -0.523,-0.36 -0.106,-0.626 c -0.419,-2.495 -1.12,-5.052 -1.759,-6.617 l -2.206,6.226 c 1.286,9.522 1.704,21.28 -0.423,34.163 1.383,0.548 3.754,1.613 6.257,3.28 1.959,-0.028 11.632,-0.426 18.123,-5.578 l 1.865,2.35 c -5.28,4.189 -12.158,5.57 -16.433,6.019 2.462,2.286 4.646,5.234 5.68,8.945 l 0.072,-0.091 c 3.023,2.423 5.239,4.479 6.866,6.209 4.698,-6.374 13.88,-19.959 13.88,-25.422 M -66.48,-176.03 c 0.338,0.161 0.617,0.177 0.926,0.061 0.091,-0.034 0.28,-0.105 0.422,-0.549 0.898,-2.773 -2.179,-10.539 -4.611,-14.22 -1.64,-2.482 -3.549,-1.947 -4.28,-1.61 -2.03,2.933 -4.635,6.391 -5.971,6.925 l -1.195,-2.746 c 0.59,-0.369 2.458,-2.733 4.124,-5.069 -1.154,-0.75 -3.394,-1.592 -6.533,-0.038 0.337,3.177 0.673,5.83 1,7.798 0.498,1.213 3.039,7.688 4.912,17.602 l 1.208,-3.409 c 0.099,-0.323 2.382,-7.842 3.773,-13.867 l 0.257,-0.937 0.93,-0.201 c 0.085,-0.019 0.841,-0.206 1.289,-1.162 l 2.716,1.273 c -0.667,1.423 -1.688,2.146 -2.458,2.505 -0.135,0.57 -0.279,1.151 -0.425,1.733 0.76,2.055 2.356,5.173 3.916,5.911 m -22.804,-123.669 c 2.557,-2.217 1.616,-3.835 1.533,-3.966 -1.017,-1.356 -5.587,-3.924 -10.048,-6.164 -1.099,2.287 -0.317,5.056 -0.309,5.083 l 0.203,0.675 -0.392,0.587 c -5.23,7.855 -8.976,40.508 -9.014,40.838 l -0.022,0.2 -0.075,0.187 c -3.069,7.671 -9.888,45.067 -11.26,52.689 9.151,2.369 16.704,4.662 19.044,6.268 l -1.697,2.473 c -2.278,-1.563 -10.903,-4.053 -21.324,-6.658 2.32,3.13 4.786,8.256 4.838,15.772 0.639,-0.012 1.273,-0.035 1.916,-0.035 9.567,0 19.654,1.336 30.004,4.54 -1.413,-10.481 -3.205,-35.167 -4.319,-59.976 -2.235,-49.776 0.059,-51.764 0.922,-52.513 m 8.265,-10.237 c -0.455,-0.336 -0.897,-0.722 -1.304,-1.18 -0.228,-0.256 -0.437,-0.525 -0.63,-0.803 l -6.736,3.091 c 1.073,0.658 2.033,1.307 2.814,1.919 0.957,-1.034 2.699,-2.209 5.856,-3.027 m 16.828,-7.394 c -3.149,-0.025 -10.229,-0.077 -17.359,-0.092 0.029,1.782 0.51,3.228 1.452,4.294 1.88,2.13 5.045,2.232 5.077,2.232 l 0,0.057 c 0.293,-0.02 0.588,-0.039 0.896,-0.055 7.365,-0.363 9.382,-4.253 9.934,-6.436 m -34.099,0.014 c -3.135,0.087 -3.717,0.702 -3.705,0.697 -0.009,0.298 0.578,1.11 1.163,1.611 l -0.231,0.275 c 1.89,0.872 5.3,2.491 8.515,4.254 l -0.128,-0.28 8.478,-3.888 c -0.229,-0.857 -0.339,-1.788 -0.35,-2.779 -5.483,-0.002 -10.669,0.025 -13.742,0.11 m -18.265,51.602 c -0.681,10.009 -15.383,44.021 -18.916,52.072 4.649,1.069 9.406,2.2 13.888,3.329 1.471,-8.182 8.099,-44.52 11.314,-52.868 0.342,-2.967 3.851,-32.43 9.121,-41.398 -0.253,-1.263 -0.578,-4.026 0.657,-6.57 -0.723,-0.347 -1.422,-0.674 -2.077,-0.976 -1.54,1.494 -0.411,3.827 -0.266,4.107 l 0.559,1.057 -0.905,0.781 c -7.509,6.483 -12.623,29.438 -13.375,40.466 m -48.044,48.833 -0.375,-0.076 -0.293,-0.246 c -26.296,-22.142 -40.126,-74.302 -42.42,-83.588 -1.002,0.09 -2.031,0.047 -3.073,-0.118 -5.935,-0.458 -10.424,-3.258 -13.375,-5.88 -0.989,0.934 -1.566,1.945 -1.709,3.018 -0.284,2.141 1.188,3.986 1.198,3.998 l 0.421,0.508 -0.089,0.655 c -2.759,19.997 4.731,38.834 5.565,40.847 1.608,2.039 14.621,19.487 12.443,47.271 -0.721,9.211 0.575,17.47 2.627,24.409 1.561,-0.342 4.271,-0.776 7.989,-0.776 6.609,0 16.395,1.385 28.491,7.1 12.193,-5.665 28.248,-11.021 46.397,-11.863 -0.053,-11.218 -6.02,-16.284 -7.219,-17.182 -13.453,-3.235 -28.487,-6.436 -36.578,-8.077 m -33.476,-95.6 c -0.224,-2.285 -3.601,-3.682 -9.267,-3.835 -12.791,-0.331 -14.946,1.753 -15.231,2.145 l 0.398,1.021 -0.147,0.076 c 0.606,1.387 2.344,3.811 5.167,5.993 1.459,1.127 3.948,2.724 6.778,3.199 1.13,0.079 2.317,0.063 3.565,-0.08 4.473,-1.043 9.033,-5.478 8.737,-8.519 m -30.728,11.084 0.251,0.376 c -0.263,-0.912 -0.416,-1.963 -0.271,-3.103 0.223,-1.767 1.089,-3.365 2.556,-4.773 -0.434,-0.482 -0.801,-0.924 -1.099,-1.302 -4.452,3.845 -1.777,8.28 -1.437,8.802 m 58.078,123.331 c -16.412,-7.173 -28.068,-5.913 -32.037,-5.129 3.283,9.59 7.806,16.216 9.657,18.688 5.625,-4.07 13.252,-9.02 22.38,-13.559 m -55.357,-86.552 c 0.404,1.962 1.443,4.103 2.758,6.815 4.099,8.452 10.295,21.226 8.018,49.11 -2.494,30.56 9.204,47.482 12.643,51.739 1.325,-1.162 3.755,-3.215 7.134,-5.763 -3.633,-4.778 -15.744,-22.774 -13.767,-48.01 2.172,-27.715 -11.774,-45.138 -11.915,-45.311 l -0.132,-0.161 -0.083,-0.19 c -0.361,-0.828 -8.73,-20.358 -5.94,-42.038 -0.335,-0.511 -0.799,-1.344 -1.126,-2.38 l -0.078,0.483 c -1.696,10.411 0.766,27.343 2.488,35.706 m -16.543,204.304 -3.343,3.829 c 1.012,0.208 2.04,0.443 3.08,0.698 -0.164,-0.778 -0.353,-1.508 -0.58,-2.162 l 2.834,-0.983 c 2.864,8.261 0.955,25.536 0.277,30.816 1.476,-0.354 2.929,-0.6 4.266,-0.599 1.287,0 2.467,0.227 3.455,0.801 1.205,0.701 1.988,1.82 2.325,3.328 0.165,0.732 0.235,1.427 0.23,2.092 5.348,-19.065 10.147,-31.512 10.22,-31.698 l 2.849,0.921 c -0.95,3.648 -1.451,6.562 -1.697,8.821 3.965,-7.723 9.682,-16.392 9.991,-16.86 l 3.912,-5.913 c -19.462,8.397 -34.171,7.35 -37.819,6.909 m -47.797,12.24 c -7.212,5.923 -10.805,12.282 -10.678,18.9 0.121,6.25 3.542,11.678 6.655,15.345 -0.315,-1.356 -0.451,-2.815 -0.356,-4.395 -0.005,-0.785 0.076,-7.47 4.113,-11.425 2.048,-2.007 4.727,-2.956 7.946,-2.832 l -0.048,1.222 c 1.619,-3.789 3.977,-7.119 7.827,-6.89 0.942,0.055 2.668,0.501 3.653,2.871 0.171,0.411 0.312,0.864 0.423,1.355 0.608,-4.348 2.2,-6.892 6.086,-6.892 1.471,0 2.992,1.035 4.071,2.77 0.464,0.747 1.018,1.911 1.394,3.593 0.478,-0.947 1.045,-1.767 1.718,-2.385 1.067,-0.979 2.35,-1.433 3.737,-1.308 1.347,0.122 2.522,0.806 3.414,1.972 -0.381,-3.186 -1.563,-5.722 -3.554,-7.573 -8.391,-7.8 -28.399,-1.942 -28.6,-1.882 l -0.86,-2.874 c 0.517,-0.155 7.831,-2.3 15.757,-2.3 5.697,0 11.708,1.108 15.743,4.856 4.418,4.107 5.696,10.607 3.803,19.318 0.006,0.237 0.009,0.475 0.011,0.713 1.017,-0.218 2.316,-0.616 3.595,-1.007 0.353,-0.108 0.711,-0.218 1.071,-0.326 0.274,-1.979 2.094,-15.789 1.103,-25.314 -28.156,-7.318 -46.829,3.749 -48.024,4.488 m 17.235,-12.896 -4.092,0 0,-2 3.822,0 c -0.422,-3.121 -0.843,-6.239 -1.263,-9.349 l -4.225,0 0,-2 3.955,0 c -0.423,-3.128 -0.844,-6.247 -1.263,-9.35 l -4.358,0 0,-2 4.088,0 c -0.424,-3.136 -0.845,-6.254 -1.263,-9.35 l -4.492,0 0,-2 4.221,0 c -0.424,-3.144 -0.845,-6.261 -1.262,-9.349 l -4.626,0 0,-2 4.356,0 c -0.426,-3.153 -0.848,-6.272 -1.263,-9.35 l -4.759,0 0,-2 4.489,0 c -0.427,-3.165 -0.849,-6.283 -1.263,-9.349 l -4.892,0 0,-2 4.622,0 c -0.429,-3.18 -0.85,-6.299 -1.262,-9.35 l -5.027,0 0,-2 4.756,0 c -0.431,-3.2 -0.853,-6.317 -1.262,-9.35 l -5.161,0 0,-2 4.891,0 c -0.436,-3.228 -0.857,-6.345 -1.262,-9.349 l -5.295,0 0,-2 5.025,0 c -0.442,-3.273 -0.864,-6.395 -1.263,-9.35 l -5.428,0 0,-2 5.158,0 c -0.453,-3.359 -0.875,-6.484 -1.262,-9.349 l -5.563,0 0,-2 5.293,0 c -0.486,-3.601 -0.909,-6.738 -1.262,-9.35 l -5.698,0 0,-2 5.428,0 c -0.428,-3.171 -0.719,-5.33 -0.853,-6.32 -0.502,-0.303 -1.058,-0.406 -1.72,-0.312 -1.949,0.284 -4.277,2.052 -6.536,4.333 l 1.875,8.837 0.384,1.513 -0.183,0.03 17.268,135.935 c 2.556,-0.8 5.545,-1.548 8.93,-2.094 -0.167,-1.242 -0.335,-2.485 -0.503,-3.727 m -18.812,-156.687 c -0.101,-0.074 -0.267,-0.197 -0.768,-0.007 -4.979,1.897 -11.306,6.739 -11.369,6.788 l -1.829,-2.378 c 0.154,-0.119 2.312,-1.77 5.135,-3.55 -0.417,-0.824 -1.182,-1.995 -2.142,-2.26 -0.699,-0.197 -1.55,0.126 -2.53,0.948 l -1.66,1.393 -0.719,-2.044 c -0.302,-0.856 -1.07,-2.175 -1.636,-2.379 -0.045,-0.018 -0.109,-0.042 -0.297,0.072 l -1.502,1.229 -0.582,-1.792 c -0.218,-0.327 -1.408,-0.874 -4.249,0.502 -4.693,2.271 -16.43,11.529 -21.392,16.23 -0.156,10.981 6.45,24.029 8.656,28.069 l 4.314,-2.329 0.09,0.209 c 3.476,-1.23 12.721,-4.325 17.003,-4.107 1.541,0.04 2.219,-2.07 3.033,-5.11 0.536,-2.001 1.049,-3.919 2.192,-4.931 l -0.913,-4.3 -6.281,6.852 -2.38,-1.805 c 0.976,-1.569 9.738,-15.352 16.969,-16.409 1.374,-0.197 2.66,0.057 3.769,0.745 l 0.824,-0.336 c 0.077,-3.488 -0.381,-8.311 -1.736,-9.3 m 21.557,-12.762 c 1.379,-2.516 -0.382,-10.2 -6.278,-27.41 -1.732,-5.057 -3.201,-9.309 -4.441,-12.894 -4.101,-11.868 -5.708,-16.518 -6.001,-19.048 -0.529,0.464 -1.085,0.8 -1.571,1.016 0.617,4.705 5.209,17.85 9.298,29.556 7.703,22.049 8.957,26.527 7.9,28.189 -0.581,0.912 -1.458,2.29 -26.222,6.158 -3.33,0.52 -6.654,1.015 -9.72,1.459 0.454,0.348 0.844,0.777 1.168,1.224 5.117,-1.009 28.327,-5.596 33.154,-6.769 1.619,-0.392 2.329,-0.78 2.713,-1.481 m 5.331,-77.15 c -0.015,-0.002 -0.03,-0.003 -0.045,-0.004 -3.125,-0.22 -22.182,-0.035 -25.414,-0.001 l -6.981,4.891 0,-5.206 c -2.483,-0.075 -5.142,0.172 -5.774,0.712 -0.845,0.725 -1.048,2.18 -0.632,4.417 1.47,0.738 4.802,1.577 7.785,2.328 3.752,0.945 7.612,1.918 10.026,3.108 2.889,-1.966 13.097,-8.587 20.366,-9.2 0.283,-0.365 0.53,-0.752 0.669,-1.045 m -40.463,18.605 c -0.055,0.227 -5.272,22.368 2.178,32.585 5.53,1.133 10.886,2.821 15.366,5.331 l -1.467,2.617 c -13.086,-7.332 -34.873,-7.317 -44.52,-6.894 4.377,2.677 8.13,5.445 9.984,8.373 l -2.535,1.605 c -2.128,-3.361 -7.695,-6.771 -13.63,-10.109 0.425,5.186 -0.068,11.242 -0.291,13.534 4.915,3.247 14.494,10.134 19.369,17.397 20.726,-2.715 43.472,-6.376 46.934,-8.119 -0.138,-2.829 -4.525,-15.387 -8.082,-25.566 -5.831,-16.692 -9.645,-27.913 -9.532,-31.65 l 0.037,-1.226 1.207,-0.208 c 0.013,-0.002 1.251,-0.255 1.885,-1.252 0.395,-0.62 0.485,-1.462 0.305,-2.487 -2.195,-0.891 -5.522,-1.73 -8.538,-2.489 -3.308,-0.833 -6.256,-1.576 -8.105,-2.42 -1.114,1.296 -2.675,3.607 -2.688,5.855 -0.008,1.375 0.55,2.582 1.703,3.69 l 0.622,0.596 -0.202,0.837 z m -54.965,17.585 c -0.294,-2.355 0.262,-6.314 0.967,-11.327 1.34,-9.53 3.175,-22.582 -1.025,-27.573 -0.392,-0.467 -0.835,-0.848 -1.327,-1.153 1.493,2.673 1.605,6.448 0.322,11.253 -2.673,10.018 -7.791,45.889 -8.791,52.992 7.495,0.655 15.66,2.152 24.469,4.802 l 0.748,-2.451 1.644,0.982 c 0.032,0.019 0.102,0.062 0.189,0.115 0.26,-3.264 0.576,-9.18 -0.076,-13.511 -8.859,-4.908 -16.498,-9.152 -17.12,-14.129 m -33.226,-31.333 c -7.063,3.378 -11.394,4.482 -15.215,5.454 -3.772,0.961 -7.029,1.79 -12.063,4.737 -3.267,1.913 -4.815,4.524 -4.603,7.764 0.279,4.249 3.495,8.14 5.677,9.059 3.367,1.419 11.72,-0.313 15.133,-1.219 2.804,-2.802 5.254,-5.841 7.337,-8.79 -0.884,-1.844 -1.973,-6.085 1.787,-12.607 l 2.6,1.498 c -2.068,3.587 -2.389,6.181 -2.215,7.868 4.217,-6.613 6.424,-12.066 6.466,-12.171 l 2.788,1.107 c -0.347,0.875 -8.698,21.569 -24.919,31.959 -12.245,7.845 -12.29,25.325 -11.878,31.591 1.91,-1.134 4.26,-2.391 7.027,-3.641 -0.321,-2.33 -0.616,-7.822 2.493,-13.212 l 0.248,-0.43 0.455,-0.196 c 0.132,-0.058 1.434,-0.594 3.724,-0.594 3.563,0.001 9.52,1.311 17.169,7.727 3.82,-0.493 7.91,-0.785 12.281,-0.785 1.972,0 3.999,0.059 6.081,0.182 0.952,-6.777 6.112,-43.126 8.892,-53.541 1.194,-4.475 1.019,-7.832 -0.507,-9.709 -1.202,-1.48 -2.951,-1.69 -3.795,-1.694 -7.808,0.117 -10.544,1.698 -15.759,4.716 -2.324,1.345 -5.216,3.019 -9.204,4.927 m -21.407,-2.903 c 0.363,-0.484 0.826,-1.101 1.065,-1.516 -0.509,-0.159 -1.709,-0.384 -4.472,-0.434 -8.916,-0.186 -9.812,5.77 -10.024,12.957 -0.037,1.274 -0.069,2.376 -0.218,3.265 -0.346,2.06 -1.341,3.186 -2.218,4.179 -1.274,1.441 -2.479,2.804 -1.774,8.153 0.237,1.805 0.939,3.027 2.146,3.735 1.808,1.06 4.541,0.856 6.716,0.395 -2.384,-2.273 -4.442,-5.921 -4.688,-9.68 -0.285,-4.34 1.874,-8.086 6.08,-10.549 1.418,-0.83 2.697,-1.496 3.891,-2.055 -0.092,-3.654 2.036,-6.504 3.496,-8.45 m 2.217,64.276 c 4.719,-1.906 10.441,-3.688 17.127,-4.859 -8.234,-6.098 -13.699,-5.468 -15.203,-5.113 -2.047,3.866 -2.105,7.802 -1.924,9.972 m -7.773,33.804 c 2.486,6.171 3.87,9.772 3.395,12.028 -0.984,4.675 -2.139,5.966 -13.187,18.314 l -3.912,4.377 c -8.367,9.377 -12.374,19.665 -14.248,26.453 0.986,-1.111 2.103,-2.227 3.403,-3.341 9.343,-8.008 22.228,-16.47 33.597,-23.936 7.841,-5.149 14.612,-9.595 18.598,-12.839 0.113,-0.092 2.866,-2.206 7.125,-5.295 -19.185,-1.886 -21.772,8.787 -21.876,9.269 l -1.468,-0.31 -1.47,-0.301 c 0.113,-0.549 2.663,-11.893 20.423,-11.893 2.37,0 5.023,0.212 7.964,0.668 7.535,-5.353 17.876,-12.343 27.09,-17.333 l 8.489,-27.824 c -48.01,-14.435 -76.08,6.188 -79.818,9.195 -0.577,6.704 3.003,15.589 5.895,22.768 m 77.29,-32.719 -8.129,26.643 c 5.35,-2.649 10.085,-4.379 13.327,-4.378 1.444,0.001 2.594,0.343 3.367,1.102 1.552,1.519 2.504,2.466 3.067,3.036 0.015,0.016 0.031,0.032 0.046,0.047 3.117,-2.5 6.471,-5.038 9.351,-7.008 -4.139,-8.064 -16.548,-16.559 -21.029,-19.442 m -108.122,110.541 c 0.545,4.204 2.54,7.017 2.715,7.255 l 0.115,0.18 c 0.057,0.106 0.959,1.715 2.996,3.278 2.578,-1.013 4.267,-1.482 4.267,-1.482 -0.644,0.966 -1.254,1.957 -1.838,2.965 0.727,0.349 1.526,0.665 2.42,0.913 5.856,1.627 13.118,-0.057 21.577,-5.006 6.35,-3.716 14.749,-9.055 23.642,-14.708 22.685,-14.42 50.557,-32.137 65.638,-36.509 l -0.727,-1.221 c -0.6,-1.007 -14.63,-24.838 -8.027,-39.629 l 2.74,1.223 c -0.432,0.967 -0.752,1.989 -0.991,3.047 0.905,-0.789 1.89,-1.626 2.937,-2.492 -0.52,-0.525 -1.393,-1.393 -2.875,-2.845 -0.308,-0.3 -3.609,-2.563 -24.793,10.305 -12.079,7.336 -24.698,16.443 -29.424,20.287 -4.105,3.339 -10.936,7.826 -18.845,13.02 -11.294,7.416 -24.094,15.822 -33.292,23.705 -7.596,6.511 -8.832,12.933 -8.243,17.636 0.064,-0.016 0.101,-0.024 0.101,-0.024 -0.032,0.033 -0.062,0.068 -0.093,0.102 m -14.574,24.564 c 4.993,-6.103 12.035,-10.151 17.319,-12.548 -1.517,-1.429 -2.308,-2.72 -2.51,-3.074 -0.336,-0.49 -1.804,-2.762 -2.672,-6.128 -8.007,9.915 -12.137,21.75 -12.137,21.75 m 13,56 c 5.152,3.111 9.881,6.315 14.232,9.558 4.372,-3.327 8.459,-3.751 10.21,-3.751 0.486,0 0.756,0.033 0.756,0.033 l 0.278,0.034 0.217,0.167 c 7.274,5.595 15.052,8.432 23.118,8.432 1.587,0 3.096,-0.121 4.535,-0.313 -4.038,-1.095 -7.013,-4.776 -7.013,-9.16 0,-5.247 4.254,-9.5 9.5,-9.5 4.887,0 8.906,3.691 9.437,8.435 -0.722,-1.644 -2.36,-2.795 -4.271,-2.795 -2.577,0 -4.666,2.09 -4.666,4.667 0,2.578 2.089,4.667 4.666,4.667 1.411,0 2.66,-0.638 3.516,-1.628 -0.473,1.065 -1.152,2.011 -1.96,2.827 3.19,-1.325 5.073,-2.628 5.11,-2.655 l 1.29,1.519 c -5.797,5.863 -12.866,8.837 -21.011,8.837 -6.089,0 -11.479,-1.594 -15.414,-2.758 -0.713,-0.211 -1.369,-0.405 -1.963,-0.569 -0.863,-0.237 -1.815,-0.358 -2.831,-0.358 -1.627,0 -3.292,0.31 -4.871,0.76 8.393,7.189 15.041,14.407 20.28,21.133 3.256,0.213 6.49,0.186 9.483,-0.215 -2.537,-5.989 -4.629,-9.7 -4.629,-9.7 3.584,2.63 6.774,5.513 9.621,8.568 0.373,-0.127 0.744,-0.256 1.102,-0.401 0,0 -0.166,0.39 -0.585,0.961 25.464,27.921 22.53,69.872 22.53,69.872 14.059,-11.003 20.14,-27.601 22.749,-38.85 -4.311,-0.802 -8.872,-3.89 -12.083,-11.983 0,0 5.186,6.923 12.611,9.583 1.192,-5.85 1.389,-9.75 1.389,-9.75 0.96,4.06 1.674,7.594 2.204,10.641 2.577,0.342 5.336,0.071 8.182,-1.185 1.504,-5.406 2.581,-11.016 3.464,-16.589 -0.405,-0.159 -0.792,-0.285 -1.136,-0.384 0.3,2.878 -1.207,6.308 -1.415,6.765 l -1.83,4.016 -0.08,-4.413 c -0.09,-5.004 -1.205,-6.951 -1.433,-7.299 -17.547,-12.909 -13.343,-29.153 -13.298,-29.317 l 1.146,-4.186 0.801,4.266 c 3.493,18.595 13.303,24.137 14.152,24.584 1.5,0.438 2.737,0.98 3.759,1.571 1.841,-12.728 3.021,-24.895 6.484,-33.47 5.369,-13.295 4.464,-25.012 3.75,-29.754 -2.549,-8.258 -13.053,-32.176 -50.358,-39.105 -33.404,-6.203 -57.461,-0.333 -76.899,7.163 -6.611,24.509 -2.826,51.029 -2.826,51.029 m 18.712,13.015 c 1.246,-0.765 2.454,-1.342 3.528,-1.756 -0.317,-0.02 -0.637,-0.03 -0.958,-0.03 -1.526,0 -2.936,0.228 -4.151,0.535 0.534,0.417 1.059,0.834 1.581,1.251 m 35.041,27.093 c -1.862,0.802 -4.361,1.386 -7.702,1.352 12.078,16.734 15.282,29.54 15.282,29.54 -0.859,-11.684 -4.374,-22.827 -7.58,-30.892 m 61.966,25.016 c -0.027,0.018 -3.444,2.268 -7.909,2.808 1.551,9.553 1.189,13.735 1.189,13.735 2.956,-5.057 5.089,-10.679 6.72,-16.543 m 13.714,57.306 c 0.377,1.074 5.927,15.972 22.383,14.41 4.11,-0.391 7.396,-2.067 9.767,-4.983 5.394,-6.633 4.672,-17.732 4.529,-19.396 -2.275,-5.427 -13.265,-41.235 -21.576,-68.62 -6.455,9.447 -6.169,39.786 -17.659,66.922 l 2.556,11.667 z m 31.476,31.1 1.033,-1.697 1.333,1.743 c 2.66,3.478 4.986,2.105 5.409,1.807 l 1.207,-0.903 0.898,1.211 c 3.972,5.363 8.223,2.725 8.688,2.411 l 2.415,-1.652 -0.06,2.943 c -10e-4,0.032 -0.01,0.806 0.568,1.275 0.674,0.547 2.039,0.621 3.846,0.204 3.959,-0.914 7.022,-8.541 8.372,-13.038 l -7.748,0 c 0.727,1.488 2.581,3.572 4.419,5.094 l -1.911,2.312 c -1.071,-0.885 -6.386,-5.486 -5.774,-9.153 0.548,-3.29 5.68,-5.121 10.208,-6.737 0.908,-0.324 1.755,-0.625 2.465,-0.909 0.306,-0.123 1.239,-0.496 1.333,-1.976 0.094,-1.487 -0.732,-3.14 -1.505,-3.57 -0.388,-0.216 -0.647,-0.228 -1.408,-0.237 -1.831,-0.02 -4.597,-0.051 -11.797,-3.739 -6.37,-3.263 -9.134,-3.171 -10.787,-3.117 -1.037,0.034 -2.113,0.07 -3.09,-0.908 -0.248,-0.247 -0.476,-0.545 -0.689,-0.87 -0.749,3.347 -2.082,6.843 -4.416,9.716 -2.897,3.568 -6.873,5.616 -11.818,6.087 -1.87,0.178 -3.614,0.165 -5.244,0.003 10.056,13.82 13.604,13.777 14.053,13.7 m 39.296,-15.108 c -0.509,1.28 -1.475,2.269 -2.815,2.804 -0.739,0.297 -1.623,0.612 -2.569,0.95 -1.667,0.595 -4.486,1.602 -6.362,2.658 l 7.592,0 c 1.432,-1.206 4.003,-3.899 4.154,-6.412 m -2.11,-16.047 c -0.373,-2.749 -0.795,-5.867 -1.268,-9.35 l -4.644,0 0,-2 4.374,0 c -0.391,-2.884 -0.814,-6.001 -1.267,-9.35 l -4.773,0 0,-2 4.503,0 c -0.399,-2.944 -0.822,-6.065 -1.266,-9.349 l -4.903,0 0,-2 4.633,0 c -0.404,-2.981 -0.826,-6.102 -1.265,-9.35 l -5.034,0 0,-2 4.763,0 c -0.406,-3.006 -0.828,-6.122 -1.264,-9.349 l -5.165,0 0,-2 4.894,0 c -0.408,-3.023 -0.829,-6.139 -1.263,-9.35 l -5.297,0 0,-2 5.026,0 c -0.015,-0.109 -0.029,-0.215 -0.044,-0.325 -3.805,-1.536 -6.374,-3.087 -7.264,-3.659 -0.916,-0.09 -1.911,-0.23 -2.953,-0.42 l 9.956,78.372 c 3.42,1.38 5.008,1.401 6.157,1.413 0.866,0.01 1.76,0.02 2.831,0.615 0.718,0.398 1.354,1.062 1.861,1.869 -0.277,-2.036 -0.629,-4.621 -1.057,-7.767 l -4.517,0 0,-2 4.246,0 z m -61.428,-75.708 7.577,-3.789 c -2.53,-8.338 -4.793,-15.835 -6.464,-21.381 -0.002,14.263 -1.113,25.17 -1.113,25.17 m -11.25,-170.931 c 0.179,-0.298 0.344,-0.606 0.488,-0.906 l -2.719,1.468 c 0.779,-0.223 1.524,-0.412 2.231,-0.562 m -32.699,39.021 0.663,1.597 -4.92,1.27 c 0.222,0.523 0.475,1.11 0.755,1.754 7.323,3.627 18.548,5.881 24.38,6.875 -1.885,-10.633 -1.725,-20.412 3.56,-27.1 4.518,-5.715 6.617,-10.881 6.07,-14.937 -0.293,-2.181 -1.266,-3.519 -1.881,-4.176 -8.274,2.921 -19.813,9.201 -32.07,16.518 0.115,10.039 3.409,18.117 3.443,18.199 m -11.919,4.844 -3.724,0.961 -4.209,17.089 c 2.418,0.339 4.886,0.74 7.407,1.208 0.601,0.111 1.19,0.23 1.778,0.35 -1.55,-8.995 -1.445,-16.192 -1.252,-19.608 m 20.541,25.908 c 2.032,-3.207 7.606,-11.724 12.251,-16.208 -5.096,-0.842 -14.85,-2.73 -22.549,-5.831 2.861,6.27 6.769,14.18 9.124,16.639 l -2.166,2.076 c -4.222,-4.409 -11.617,-21.769 -12.475,-23.804 l -1.664,0.43 c -0.2,2.763 -0.534,10.915 1.362,21.103 6.092,1.459 11.436,3.376 16.117,5.595 m 13.508,-13.214 c -3.721,3.921 -8.33,10.679 -10.81,14.565 8.757,4.618 14.993,10.288 19.412,15.767 -0.963,-3.722 -2.199,-7.809 -3.483,-12.045 -1.809,-5.971 -3.694,-12.197 -5.119,-18.287 m -106.932,11.616 c 0.569,-3.348 0.192,-6.106 -0.328,-8.016 -1.456,3.05 -2.683,6.226 -3.708,9.466 1.323,-0.494 2.669,-0.977 4.036,-1.45 m 63.452,-30.76 c -1.429,6.602 -3.178,18.088 -1.789,20.802 l -2.671,1.367 c -1.901,-3.715 -0.025,-14.983 1.031,-20.381 l -14.62,4.08 c -6.739,4.272 -12.98,8.184 -17.978,11.109 -9.226,5.398 -17.293,7.175 -23.981,5.284 -0.296,-0.084 -0.578,-0.18 -0.859,-0.275 0.527,1.94 0.907,4.563 0.587,7.705 11.826,-3.825 25.329,-6.652 41.357,-6.652 5.499,0 11.3,0.339 17.426,1.077 l 4.72,-19.162 14.756,-3.808 c -0.948,-2.743 -2.705,-8.711 -3.029,-15.962 -8.109,4.9 -16.431,10.16 -24.251,15.128 l 9.828,-2.743 -0.527,2.431 z m 90.563,129.511 c -0.516,-0.389 -12.635,-9.663 -12.896,-22.611 -0.152,-7.614 3.834,-14.799 11.849,-21.357 l 0.13,-0.095 c 0.293,-0.191 2.944,-1.877 7.608,-3.61 l -16.96,-133.507 c -0.025,0.091 -0.05,0.186 -0.073,0.27 -0.851,3.179 -2.022,7.551 -6.08,7.33 -3.502,-0.166 -11.926,2.539 -16.039,4.004 -0.086,2.095 -1.544,4.332 -1.903,4.851 l -0.353,0.51 -0.609,0.112 c -0.69,0.127 -1.433,0.308 -2.205,0.518 0.74,1.072 1.488,2.593 1.782,4.614 0.723,4.978 -1.522,10.806 -6.672,17.323 -4.732,5.988 -4.642,15.504 -2.734,25.743 0.385,0.056 0.613,0.087 0.632,0.089 l 4.487,0.591 -3.951,2.206 c -0.163,0.091 -0.341,0.221 -0.516,0.341 1.448,6.645 3.513,13.468 5.411,19.728 2.161,7.132 4.202,13.869 5.056,19.264 0.714,1.187 1.345,2.336 1.904,3.434 -0.161,-2.083 -0.466,-3.41 -0.466,-3.41 5.54,11.081 7.637,27.328 8.243,42.101 l 0.194,-0.058 c 0.28,0.933 28.009,93.348 31.182,100.427 l 0.096,0.214 0.026,0.232 c 0.025,0.229 0.276,2.601 0.098,5.878 l 0.028,-0.006 c 0.318,1.58 1.13,4.172 1.955,5.002 0.111,0.038 0.525,0.025 0.859,0.014 1.816,-0.062 5.195,-0.17 12.253,3.445 0.382,0.195 0.746,0.377 1.099,0.55 l -9.861,-77.624 c -4.656,-1.238 -9.707,-3.482 -13.125,-7.109 l -0.449,0.596 z m 40.093,11.684 c 2.88,0.367 5.202,-0.188 6.903,-1.65 3.242,-2.785 3.405,-8.031 3.406,-8.081 l 0.032,-0.278 c 1.099,-5.246 2.156,-11.54 0.568,-13.661 -0.296,-0.395 -0.815,-0.861 -2.218,-0.972 -0.019,-0.002 -0.039,-0.002 -0.06,-0.002 -1.863,0 -3.946,6.826 -4.58,13.033 l -0.047,0.468 -0.306,0.357 c -3.368,3.93 -10.721,4.498 -11.032,4.52 l -8.332,0.595 7.604,-3.457 c 2.013,-0.915 6.653,-9.946 7.166,-11.998 0.61,-2.437 1.87,-14.616 -0.768,-18.33 -0.527,-0.741 -1.039,-0.868 -1.378,-0.899 -0.536,-0.05 -0.983,0.115 -1.437,0.53 -2.446,2.246 -3.323,10.273 -3.302,14.805 l 0.002,0.389 -6.847,12.471 -2.66,-1.387 c 9.279,-18.796 6.263,-26.269 5.118,-28.111 -0.687,-1.106 -1.346,-1.354 -1.523,-1.354 -1.523,0 -3.25,0 -3.41,8.777 -0.169,9.235 -8.891,18.352 -9.262,18.736 l -2.201,-2.037 c 4.622,-5.223 7.321,-17.633 5.594,-21.788 -0.411,-0.989 -0.865,-1.016 -1.058,-1.027 -3.531,-0.183 -5.58,6.593 -6.82,10.654 -0.346,1.133 -0.645,2.112 -0.942,2.888 -1.694,4.424 -5.074,6.081 -5.217,6.15 l -1.294,-2.706 c 0.024,-0.012 2.458,-1.251 3.709,-4.518 0.26,-0.678 0.545,-1.61 0.875,-2.69 0.386,-1.267 0.821,-2.69 1.341,-4.115 -2.098,0.033 -3.77,0.683 -5.095,1.977 -3.277,3.2 -3.221,9.241 -3.22,9.299 l 10e-4,0.062 -0.004,0.061 c -0.896,14.223 20.664,16.263 20.882,16.282 l 0.395,0.035 0.326,0.224 c 0.077,0.052 7.831,5.31 19.091,6.748 m 13.309,-25.468 c 0.371,0.496 0.666,1.075 0.89,1.749 0.983,-0.254 2.382,-0.79 3.184,-1.883 0.66,-0.897 0.82,-2.051 0.489,-3.525 -0.2,-0.89 -0.613,-1.22 -0.907,-1.391 -1.861,-1.079 -6.305,0.276 -9.55,1.268 -1.708,0.522 -3.252,0.989 -4.536,1.192 -0.186,3.808 -0.704,7.014 -0.865,7.659 -0.318,1.273 -2.654,6.539 -5.224,10.288 1.603,-0.496 3.245,-1.237 4.331,-2.307 0.478,-4.282 2.315,-15.657 7.806,-15.215 1.975,0.156 3.409,0.864 4.382,2.165 m 3.315,9.258 c 0.431,0 0.878,0.031 1.323,0.084 0.71,-2.811 1.425,-5.523 2.134,-8.13 -0.09,0.145 -0.177,0.291 -0.28,0.431 -1.406,1.913 -3.669,2.73 -5.112,3.072 0.058,1.314 -0.031,2.874 -0.26,4.717 0.63,-0.095 1.385,-0.174 2.195,-0.174 m 17.472,136.22 c 46.296,27.952 80.482,37.455 100.326,40.59 -42.216,-12.366 -90.51,-43.615 -103.12,-52.065 1.311,5.877 2.399,10.009 2.794,11.475 m 115.463,-150.092 c 4.835,2.659 9.591,5.775 14.227,9.376 -0.513,-10.457 -1.238,-20.431 -2.228,-29.48 -2.469,1.035 -7.448,2.614 -17.651,4.989 2.308,8.306 5.723,14.936 5.781,15.048 l -0.129,0.067 z m -8.539,63.128 9.074,8.716 c 0.911,-1.375 1.874,-2.659 2.889,-3.856 -1.713,-1.446 -6.114,-4.623 -11.963,-4.86 m -98.876,45.917 c 2.078,-0.233 6.49,-1.639 10.795,-8.777 -7.388,-4.214 -13.956,-7.403 -19.086,-9.69 -0.142,0.624 -0.278,1.303 -0.401,2.055 l -0.713,4.356 -1.234,-4.238 c -0.088,-0.303 -0.488,-1.741 -0.662,-3.487 -2.081,-0.885 -3.799,-1.57 -5.132,-2.082 -0.126,0.099 -0.25,0.202 -0.372,0.31 4.317,7.754 10.141,14.959 16.805,21.553 m 4.031,3.809 c 2.183,-1.178 8.049,-4.82 10.02,-10.691 -0.515,-0.305 -1.018,-0.594 -1.525,-0.89 -3.886,6.449 -8.004,8.7 -10.776,9.451 0.752,0.717 1.512,1.428 2.281,2.13 m 11.786,-9.627 c -2.136,5.843 -7.508,9.514 -10.21,11.052 23.932,21.211 55.189,35.281 66.762,40.067 -16.814,-23.573 -38.48,-40.181 -56.552,-51.119 m -4.648,-104.949 c -2.082,1.234 -3.724,1.813 -4.351,2.007 -5.617,2.881 -10.584,6.66 -14.735,11.181 -0.063,0.328 -0.102,0.529 -0.106,0.551 l -0.337,-0.064 c -3.957,4.423 -7.149,9.526 -9.417,15.167 -4.345,10.806 -4.179,20.582 -2.186,25.093 4.213,9.534 3.949,13.089 3.586,14.234 -0.873,5.292 -1.266,10.98 -1.31,16.814 0.318,0.033 0.684,0.072 1.072,0.115 1.498,-1.541 4.061,-3.168 8.432,-3.786 0.706,-0.249 7.013,-2.684 12.987,-11.563 -1.501,1.941 -3.673,3.166 -6.095,3.166 -4.532,0 -8.206,-4.271 -8.206,-9.54 0,-5.268 3.674,-9.539 8.206,-9.539 3.537,0 6.542,2.605 7.695,6.251 -0.784,-0.901 -1.925,-1.484 -3.214,-1.484 -2.361,0 -4.275,1.914 -4.275,4.275 0,2.361 1.914,4.274 4.275,4.274 1.493,0 2.803,-0.768 3.568,-1.927 -0.191,1.131 -0.558,2.189 -1.06,3.138 1.918,-3.088 3.772,-6.865 5.356,-11.495 l 1.405,-4.107 0.533,4.307 c 0.023,0.183 2.011,18.331 -18.897,29.521 10.746,1.779 26.498,5.18 42.645,11.461 30.375,11.814 51.219,29.507 61.276,51.764 -0.886,-8.375 -1.592,-18.747 -1.351,-29.4 0.416,-18.373 3.549,-32.956 9.211,-43.383 -0.369,-0.297 -0.768,-0.622 -1.193,-0.968 -3.613,-2.945 -9.658,-7.873 -14.099,-7.873 l -0.116,0.001 c -0.728,0.014 -1.536,0.045 -2.414,0.078 -1.565,0.06 -3.337,0.127 -5.272,0.127 -10.365,0 -25.215,-1.827 -34.467,-17.618 l 1.626,-1.152 c 0.11,0.13 11.288,13.049 30.083,13.049 6.19,0 12.588,-1.402 19.015,-4.166 l 0.255,-0.11 0.276,0.038 c 0.316,0.043 7.481,1.124 12.861,9.516 3.015,-3.115 6.445,-5.513 10.283,-7.155 0.002,-15.25 -0.243,-30.895 -0.888,-45.713 -36.323,-29.622 -80.886,-27.261 -110.657,-15.085 m 53.365,-30.524 c -10.78,8.399 -20.371,15.91 -25.736,20.118 5.219,-0.71 10.602,-1.103 16.093,-1.103 15.77,0 32.394,3.187 48.33,11.045 -2.827,-6.367 -8.055,-20.176 -6.117,-31.604 l 2.957,0.501 c -0.651,3.839 -0.393,8.041 0.322,12.127 3.472,-2.939 5.477,-7.287 6.528,-12.146 -6.965,-12.965 -39.7,-0.025 -42.377,1.062 m 40.964,-31.61 c -9.314,7.059 -21.649,16.591 -33.432,25.749 6.014,-1.874 14.152,-3.878 21.464,-3.878 5.628,0 10.755,1.197 14.048,4.546 1.161,-10.35 -1.019,-21.746 -2.08,-26.417 m -4.221,45.774 -0.387,-0.531 c 0.044,0.197 0.085,0.395 0.13,0.591 0.085,-0.02 0.172,-0.04 0.257,-0.06 m 89.531,131.62 c -5.746,-11.392 -21.946,-16.392 -27.5,-17.802 0.244,2.705 0.453,5.443 0.637,8.2 3.186,0.216 17.276,1.913 27.582,14.947 -0.217,-1.783 -0.456,-3.564 -0.719,-5.345 m -26.448,27.615 c -0.233,4.899 -0.584,9.839 -1.07,14.81 3.259,-4.182 8.68,-9.622 15.611,-11.01 1.106,-0.221 2.21,-0.332 3.312,-0.332 3.507,0 6.984,1.14 10.393,3.37 0.08,-1.34 0.138,-2.684 0.179,-4.03 -11.185,-13.052 -26.282,-4.175 -28.425,-2.808 m 0.142,-3.514 c 2.75,-1.431 7.952,-3.642 13.853,-3.642 4.689,0 9.814,1.409 14.493,5.706 0.004,-4.838 -0.231,-9.701 -0.66,-14.57 -9.13,-15.325 -24.218,-17.784 -28.044,-18.163 0.578,9.951 0.732,20.212 0.358,30.669 m 24.117,-36.579 c -8.997,-11.432 -21.741,-15.751 -26.564,-17.034 0.346,2.813 0.662,5.661 0.947,8.541 3.979,0.904 18.292,4.707 26.68,14.097 -0.334,-1.871 -0.686,-3.739 -1.063,-5.604 m 1.671,76.077 c 1.67,0.474 4.842,0.887 8.004,-1.356 3.948,-2.796 9.366,-11.058 9.563,-35.271 -1.779,14.969 -6.106,29.719 -16.12,31.801 -0.439,1.617 -0.928,3.225 -1.447,4.826 M -232.4,130.314 c 15.291,39.867 45.496,57.781 68.141,65.79 29.095,10.288 58.267,8.925 74.406,4.631 l 0.201,-0.053 0.207,0.003 c 0.007,0 0.031,0 0.067,0 2.035,0 46.796,-0.524 64.206,-39.775 4.872,-10.984 7.525,-22.522 8.55,-34.314 -4.249,-3.217 -8.565,-4.439 -12.845,-3.588 -9.355,1.866 -15.996,12.857 -16.896,14.416 -1.178,9.797 -2.886,19.692 -5.228,29.605 l -2.92,-0.689 c 14.501,-61.377 4.575,-122.145 -6.304,-162.315 -7.286,-26.899 -15.815,-48.184 -21.55,-61.05 1.963,10.072 3.685,21.414 3.798,22.152 l -2.955,0.517 c -1.232,-6.199 -3.819,-14 -6.267,-20.65 8.818,61.485 2.061,181.709 1.985,183.027 l -2.994,-0.172 c 0.04,-0.703 1.981,-35.255 2.446,-76.598 -16.523,11.366 -13.32,69.299 -13.285,69.898 l -2.994,0.177 c -0.153,-2.596 -3.52,-63.687 16.316,-73.583 l 0,10e-4 c 0.031,-3.381 0.051,-6.8 0.059,-10.246 -3.341,1.611 -6.23,3.815 -8.715,6.496 l 3.068,5.405 -4.109,-4.223 c -21.152,25.103 -11.091,86.387 -9.511,95.169 0.068,0.359 0.134,0.716 0.199,1.076 l -2.948,0.556 c -0.006,-0.03 -0.084,-0.433 -0.217,-1.164 -7.16,-36.911 -39.09,-56.553 -64.758,-66.548 -16.488,-6.421 -32.551,-9.791 -43.151,-11.493 -0.003,0.007 -0.005,0.013 -0.008,0.02 19.179,8.513 58.937,29.812 85.103,69.061 l 2.551,3.825 -4.316,-1.585 c -2.855,-1.049 -67.721,-25.27 -93.397,-66.733 0.73,15.424 3.399,30.956 5.739,42.128 6.558,4.503 75.682,51.291 124.303,57.682 l 12.235,1.608 -12.263,1.37 c -1.774,0.199 -43.631,4.252 -119.152,-40.597 1.366,3.725 3.941,9.877 8.155,16.896 3.384,2.797 49.635,39.539 123.137,26.594 l 0.52,2.954 c -40.419,7.121 -72.447,-0.698 -92.195,-8.509 -12.085,-4.781 -21.075,-10.055 -26.707,-13.823 2.255,3.129 4.822,6.317 7.744,9.45 15.178,16.272 43.158,34.21 90.263,27.254 l 0.438,2.968 c -48.386,7.143 -77.227,-11.378 -92.896,-28.176 -16.962,-18.186 -22.382,-37.76 -22.6,-38.567 -0.144,-0.509 -14.276,-51.221 -8.536,-85.654 l -0.087,-0.129 0.181,-0.238 c 0.078,-0.514 0.276,-3.514 -3.487,-12.03 -2.314,-5.238 -2.548,-15.749 2.147,-27.425 2.38,-5.919 5.722,-11.276 9.858,-15.928 0.951,-4.859 4.317,-21.698 8.009,-36.109 -2.69,4.532 -5.655,9.91 -7.067,13.762 l -1.558,4.258 -1.288,-4.348 c -0.021,-0.069 -0.199,-0.703 -0.291,-1.999 -10.369,32.081 -32.234,112.997 -10.537,169.562 M 13.488,-16.049 c -0.143,0.243 -14.374,24.893 -10.127,79.784 2.214,28.608 5.889,43.135 8.321,52.748 2.391,9.458 3.836,15.166 1.994,25.466 -2.553,14.275 -10.012,26.357 -19.951,32.321 -7.415,4.448 -16.096,5.36 -25.163,2.678 -20.841,25.808 -54.777,26.711 -57.832,26.736 -17.369,4.574 -46.386,5.716 -75.989,-4.752 -23.241,-8.219 -54.241,-26.609 -69.942,-67.544 -14.592,-38.043 -9.633,-86.501 -2.903,-120.453 1.314,-6.626 2.745,-12.967 4.208,-18.921 -1.215,-0.079 -2.508,0.116 -3.259,0.284 -0.185,1.052 -0.4,2.172 -0.652,3.38 -0.047,1.028 -0.483,6.725 -4.428,10.13 -2.374,2.049 -5.485,2.845 -9.256,2.364 -3.596,-0.459 -6.831,-1.277 -9.622,-2.201 7.083,52.394 10.93,80.784 11.13,82.116 0.68,4.545 -3.813,8.742 -5.235,9.944 -0.761,2.931 -4.293,15.069 -10.996,16.615 -2.849,0.659 -5.024,0.371 -6.472,-0.848 -0.527,-0.444 -0.883,-0.948 -1.124,-1.44 -2.65,0.946 -6.628,0.953 -10.132,-3.022 -1.868,0.721 -4.728,0.765 -7.435,-2.072 -0.257,0.073 -0.548,0.121 -0.877,0.131 -3.919,0.111 -10.076,-5.793 -18.29,-17.537 -11.913,-3.511 -15.983,-15.561 -16.031,-15.711 l -1.75,-7.968 c -2.89,5.989 -6.42,11.749 -10.81,17.006 -41.924,50.206 -98.666,35.666 -98.666,35.666 -50,9 -114.401,-40.199 -118.333,-102.333 -1.667,-26.333 6.902,-62.351 26,-85.333 32.371,-38.956 27.667,-56.334 27.667,-56.334 6.667,12.667 4.333,20 4.333,20 13.246,-14.058 35.699,-21.537 43.713,-23.862 -0.439,-2.932 -0.303,-6.442 1.211,-10.212 0.222,-2.1 2.472,-19.825 16.54,-35.591 l 3.915,-4.38 c 10.845,-12.121 11.687,-13.131 12.486,-16.93 0.311,-1.474 -1.495,-5.956 -3.242,-10.29 -3.105,-7.708 -6.97,-17.301 -6.028,-24.838 l 0.069,-0.555 0.417,-0.375 c 0.056,-0.05 1.177,-1.029 3.315,-2.469 -0.516,-4.77 -1.925,-26.284 13.128,-35.927 1.098,-0.703 2.155,-1.465 3.179,-2.265 -3.643,0.636 -8.166,1.075 -11.117,0.123 -1.808,0.63 -7.656,2.363 -11.631,0.035 -2.033,-1.19 -3.247,-3.187 -3.609,-5.935 -0.882,-6.703 0.994,-8.825 2.501,-10.531 0.757,-0.857 1.304,-1.475 1.507,-2.688 0.115,-0.687 0.145,-1.693 0.179,-2.857 0.163,-5.566 0.467,-15.873 12.667,-15.873 0.136,0 0.272,0.002 0.411,0.004 4.697,0.086 6.615,0.635 7.329,2.097 0.754,1.544 -0.327,2.985 -1.578,4.654 -1.123,1.496 -2.447,3.276 -2.805,5.361 2.022,-0.735 3.872,-1.207 5.856,-1.712 3.687,-0.939 7.866,-2.003 14.661,-5.254 3.882,-1.856 6.599,-3.429 8.997,-4.816 5.426,-3.141 8.522,-4.926 16.776,-5.11 0.16,-0.009 0.319,-0.012 0.478,-0.012 0.037,0 0.074,0.004 0.111,0.005 0.288,-0.003 0.564,-0.01 0.865,-0.01 0.879,0 1.816,0.015 2.813,0.048 2.801,0.089 5.062,1.134 6.719,3.103 5.061,6.016 3.197,19.272 1.699,29.923 -0.647,4.602 -1.205,8.577 -0.961,10.536 0.435,3.477 8.525,7.959 15.664,11.914 1.069,0.593 2.144,1.19 3.209,1.788 1.451,-0.125 5.876,-0.459 11.759,-0.459 5.645,0 12.623,0.31 19.583,1.407 -5.421,-10.692 -2.184,-27.795 -1.325,-31.759 -1.355,-1.54 -2.035,-3.301 -2.024,-5.243 0.021,-3.663 2.572,-6.876 3.767,-8.183 -0.341,-1.812 -0.677,-5.169 1.653,-7.167 1.4,-1.2 4.435,-1.455 6.763,-1.455 1.1,0 2.042,0.056 2.578,0.098 l 1.385,0.107 0,2.256 3.02,-2.116 0.464,-0.005 c 0.921,-0.01 22.598,-0.244 26.122,0.004 1.791,0.126 2.498,0.992 2.775,1.697 0.728,1.846 -1.005,3.989 -1.783,4.825 l -0.426,0.457 -0.625,0.02 c -5.855,0.183 -14.885,5.715 -18.548,8.122 0.669,0.76 0.977,1.561 0.91,2.395 -0.095,1.188 -0.918,1.975 -1.563,2.415 -0.054,1.759 1.549,6.399 5.88,18.932 1.24,3.587 2.71,7.841 4.443,12.9 6.528,19.052 8.002,26.299 6.07,29.824 -1.015,1.855 -2.828,2.517 -4.635,2.957 -3.809,0.924 -18.371,3.841 -27.261,5.605 0.65,0.677 1.133,1.438 1.464,2.07 1.455,-0.815 2.969,-1.572 4.409,-2.121 0.562,-0.214 1.071,-0.3 1.527,-0.3 0.903,0 1.599,0.336 2.078,0.687 3.32,2.424 3.021,11.112 2.927,12.829 l -0.052,0.949 -2.304,0.938 c 1.301,9.64 10.649,78.891 19.947,147.711 2.518,-0.291 5.223,-0.464 8.106,-0.464 3.772,0 7.853,0.304 12.202,1.008 l 5.608,-6.423 0.828,0.141 c 0.168,0.029 15.501,2.477 36.43,-6.362 1.48,-3.881 10.149,-26.017 24.16,-50.413 -1.635,-1.016 -3.257,-2.838 -2.644,-5.448 0.026,-1.826 -6.211,-10.332 -10.338,-15.96 -3.218,-4.388 -6.539,-8.919 -8.629,-12.314 -1.659,-1.753 -17.231,-19.239 -14.307,-55.05 2.21,-27.067 -3.77,-39.397 -7.727,-47.555 -1.351,-2.786 -2.518,-5.192 -2.997,-7.52 -0.479,-2.328 -4.57,-22.869 -2.597,-36.24 -1.691,-2.991 -2.783,-8.966 3.734,-13.31 l 1.274,-0.846 0.085,0.132 0.99,-0.513 c 0.084,-0.359 0.244,-0.738 0.508,-1.113 1.63,-2.318 6.512,-3.452 14.895,-3.452 0.915,0 1.872,0.013 2.871,0.041 9.556,0.257 11.893,3.7 12.17,6.542 0.445,4.565 -4.641,9.539 -9.664,11.317 2.27,9.005 16.092,60.323 41.13,81.711 2.306,0.47 13.067,2.68 25.174,5.423 2.972,-6.772 18.247,-41.97 18.903,-51.596 0.736,-10.8 5.455,-33.579 13.601,-41.78 -0.661,-1.956 -0.813,-4.871 1.596,-6.857 -0.519,-0.861 -0.869,-1.928 -0.484,-3.027 0.811,-2.313 4.075,-2.668 6.46,-2.733 3.005,-0.084 8.003,-0.112 13.331,-0.112 10.552,0 22.394,0.109 22.571,0.111 l 1.456,0.013 0.031,1.455 c 0.002,0.103 0.063,10.305 -12.992,10.95 -7.949,0.392 -10.271,2.46 -10.897,3.31 0.648,1.62 0.692,4.367 -2.334,7.058 -2.4,4.945 0.388,70.962 3.294,101.118 1.319,-0.511 2.559,-0.727 3.69,-0.727 2.362,0 4.249,0.909 5.458,1.868 0.613,-0.217 1.323,-0.376 2.1,-0.376 1.754,0 3.782,0.767 5.425,3.253 2.358,3.569 6.372,12.447 4.964,16.799 -0.486,1.501 -1.474,2.152 -2.216,2.432 -1.071,0.404 -2.202,0.349 -3.273,-0.157 -1.587,-0.752 -2.876,-2.452 -3.821,-4.105 -0.68,2.475 -1.312,4.641 -1.685,5.896 1.416,1.335 2.555,4.369 3.399,9.087 6.455,4.473 32.072,22.731 32.072,30.609 0,7.291 -11.595,23.357 -14.875,27.756 2.288,2.968 2.431,4.579 2.366,5.172 l -0.044,0.419 -0.258,0.334 c -0.286,0.373 -0.666,0.842 -1.119,1.402 -3.361,4.149 -11.232,13.867 -13.6,25.566 -2.336,11.542 -8.736,18.207 -11.108,20.344 4.141,9.881 9.732,24.403 15.049,41.99 4.563,1.696 28.113,11.717 32.688,39.187 0.394,2.369 0.605,4.487 0.64,6.373 l 0.36,-0.112 c 1.017,3.26 2.017,6.567 2.993,9.904 -0.199,-13.833 -1.397,-37.815 -6.969,-51.521 -0.983,-2.175 -1.591,-3.393 -1.622,-3.455 l 2.656,-1.394 c 0.615,1.129 1.189,2.356 1.723,3.667 3.148,6.975 9.951,23.324 14.293,43.049 0.729,-17.221 3.913,-41.142 14.111,-65.353 l 3.675,-8.722 -2.411,28.525 c 2.19,-3.262 5.59,-6.861 10.781,-9.456 l 4.574,-2.286 -2.614,4.394 z"
             id="path3556"
             style="fill:#4d4d4d;fill-opacity:1;fill-rule:nonzero;stroke:none" /></g><g
           transform="translate(472.0166,449.0283)"
           id="g3558"><path
             d="m 0,0 c 0.013,-0.085 1.189,-8.575 -4.174,-15.436 -3.922,-5.016 -10.349,-7.994 -19.103,-8.85 -26.148,-2.551 -29.255,6.573 -29.276,6.636 l -2.902,-0.757 c 0.11,-0.426 2.7,-9.325 23.634,-9.324 2.641,0 5.577,0.141 8.835,0.46 9.624,0.94 16.757,4.312 21.202,10.021 6.149,7.898 4.81,17.3 4.751,17.696 L 0,0 z"
             id="path3560"
             style="fill:#4d4d4d;fill-opacity:1;fill-rule:nonzero;stroke:none" /></g><g
           transform="translate(442.6689,622.9653)"
           id="g3562"><path
             d="M 0,0 C 4.75,0 9.132,-1.707 12.5,-3.57 9.082,-2.604 5.587,-2.118 2.045,-2.118 -4.303,-2.118 -9.627,-3.66 -13.297,-5.155 -9.255,-1.73 -4.8,0 0,0 m 2.045,-4.118 c 5.963,0 11.792,-1.458 17.325,-4.333 l 6.107,-3.173 -4.952,4.78 C 20.151,-6.483 11.235,2 0,2 -7.113,2 -13.487,-1.403 -18.945,-8.116 l -4.267,-5.248 5.604,3.789 c 0.08,0.054 8.202,5.457 19.653,5.457"
             id="path3564"
             style="fill:#4d4d4d;fill-opacity:1;fill-rule:nonzero;stroke:none" /></g></g></g></g></svg>