<?xml version="1.0" encoding="UTF-8" standalone="no"?>
<!-- Created with Inkscape (http://www.inkscape.org/) -->

<svg
   xmlns:dc="http://purl.org/dc/elements/1.1/"
   xmlns:cc="http://creativecommons.org/ns#"
   xmlns:rdf="http://www.w3.org/1999/02/22-rdf-syntax-ns#"
   xmlns:svg="http://www.w3.org/2000/svg"
   xmlns="http://www.w3.org/2000/svg"
   version="1.1"
   width="512"
   height="512"
   viewBox="0 0 512 512"
   id="svg2985"
   xml:space="preserve"><metadata
   id="metadata2994"><rdf:RDF><cc:Work
       rdf:about=""><dc:format>image/svg+xml</dc:format><dc:type
         rdf:resource="http://purl.org/dc/dcmitype/StillImage" /><dc:title></dc:title></cc:Work></rdf:RDF></metadata><defs
   id="defs2992" />
<style
   type="text/css"
   id="style2987" />
<path
   d="m 256,92.481 c 44.433,0 86.18,17.068 117.553,48.064 31.241,30.866 48.447,71.868 48.447,115.454 0,43.586 -17.206,84.588 -48.448,115.455 -31.372,30.994 -73.12,48.064 -117.552,48.064 -44.432,0 -86.179,-17.07 -117.552,-48.064 C 107.206,340.587 90,299.585 90,255.999 90,212.413 107.206,171.411 138.448,140.546 169.821,109.55 211.568,92.481 256,92.481 m 0,-40 c -113.771,0 -206,91.117 -206,203.518 0,112.398 92.229,203.52 206,203.52 113.772,0 206,-91.121 206,-203.52 0,-112.4 -92.228,-203.518 -206,-203.518 l 0,0 z m -49.456,304.68 V 159.833 l 160.919,98.666 -160.919,98.662 z"
   id="video-play-3-icon"
   style="fill:#ffffff;fill-opacity:1" />
<path
   d="m 228.35655,416.30913 c -32.60526,-5.43455 -65.30799,-22.74733 -89.50909,-47.38599 -17.29407,-17.60675 -27.49609,-32.959 -36.16597,-54.42347 -18.780746,-46.49643 -14.314985,-96.94739 12.61698,-142.53763 10.25183,-17.35422 36.9973,-43.78805 55.07859,-54.4368 67.01607,-39.468257 149.06568,-29.129232 202.77548,25.55162 53.63747,54.60723 62.72796,130.6392 23.54899,196.96108 -10.25183,17.35424 -36.9973,43.78807 -55.0786,54.43682 -34.65676,20.41064 -75.06922,28.20096 -113.26638,21.83437 l 0,0 z M 297.8475,302.64407 c 53.52172,-32.8022 70.15595,-43.98107 68.16969,-45.81283 -1.44505,-1.33264 -35.82058,-22.71512 -76.39007,-47.51661 -40.56949,-24.80149 -75.95932,-46.52173 -78.64407,-48.2672 l -4.88136,-3.17358 0,100.2252 0,100.22521 10.47438,-6.14519 c 5.76091,-3.37985 42.33305,-25.6706 81.27143,-49.535 z"
   id="path3768"
   style="fill:#000000;fill-opacity:0.2" /></svg>