<?xml version="1.0" encoding="UTF-8" standalone="no"?>
<!-- Created with Inkscape (http://www.inkscape.org/) -->

<svg
   xmlns:dc="http://purl.org/dc/elements/1.1/"
   xmlns:cc="http://creativecommons.org/ns#"
   xmlns:rdf="http://www.w3.org/1999/02/22-rdf-syntax-ns#"
   xmlns:svg="http://www.w3.org/2000/svg"
   xmlns="http://www.w3.org/2000/svg"
   xmlns:xlink="http://www.w3.org/1999/xlink"
   version="1.1"
   width="502.1875"
   height="678.703"
   id="svg3491"
   xml:space="preserve"><metadata
     id="metadata3497"><rdf:RDF><cc:Work
         rdf:about=""><dc:format>image/svg+xml</dc:format><dc:type
           rdf:resource="http://purl.org/dc/dcmitype/StillImage" /><dc:title></dc:title></cc:Work></rdf:RDF></metadata><defs
     id="defs3495"><radialGradient
       cx="0"
       cy="0"
       r="1"
       fx="0"
       fy="0"
       id="radialGradient3513"
       gradientUnits="userSpaceOnUse"
       gradientTransform="matrix(-1.53e-5,385.05679,385.05679,1.53e-5,303.3335,346.66699)"
       spreadMethod="pad"><stop
         id="stop3515"
         style="stop-color:#231f20;stop-opacity:1"
         offset="0" /><stop
         id="stop3517"
         style="stop-color:#ffffff;stop-opacity:1"
         offset="0.63189697" /><stop
         id="stop3519"
         style="stop-color:#ffffff;stop-opacity:1"
         offset="1" /></radialGradient><radialGradient
       cx="0"
       cy="0"
       r="1"
       fx="0"
       fy="0"
       id="radialGradient3535"
       gradientUnits="userSpaceOnUse"
       gradientTransform="matrix(-1.53e-5,385.05682,385.05682,1.53e-5,303.3335,363.66699)"
       spreadMethod="pad"><stop
         id="stop3537"
         style="stop-color:#231f20;stop-opacity:1"
         offset="0" /><stop
         id="stop3539"
         style="stop-color:#ffffff;stop-opacity:1"
         offset="0.63189697" /><stop
         id="stop3541"
         style="stop-color:#ffffff;stop-opacity:1"
         offset="1" /></radialGradient><radialGradient
       cx="0"
       cy="0"
       r="1"
       fx="0"
       fy="0"
       id="radialGradient3557"
       gradientUnits="userSpaceOnUse"
       gradientTransform="matrix(-1.53e-5,385.05682,385.05682,1.53e-5,303.3335,346.66699)"
       spreadMethod="pad"><stop
         id="stop3559"
         style="stop-color:#231f20;stop-opacity:1"
         offset="0" /><stop
         id="stop3561"
         style="stop-color:#ffffff;stop-opacity:1"
         offset="0.63189697" /><stop
         id="stop3563"
         style="stop-color:#ffffff;stop-opacity:1"
         offset="1" /></radialGradient><radialGradient
       cx="0"
       cy="0"
       r="1"
       fx="0"
       fy="0"
       id="radialGradient3579"
       gradientUnits="userSpaceOnUse"
       gradientTransform="matrix(-1.53e-5,385.05682,385.05682,1.53e-5,303.3335,346.66699)"
       spreadMethod="pad"><stop
         id="stop3581"
         style="stop-color:#231f20;stop-opacity:1"
         offset="0" /><stop
         id="stop3583"
         style="stop-color:#ffffff;stop-opacity:1"
         offset="0.63189697" /><stop
         id="stop3585"
         style="stop-color:#ffffff;stop-opacity:1"
         offset="1" /></radialGradient><radialGradient
       cx="0"
       cy="0"
       r="1"
       fx="0"
       fy="0"
       id="radialGradient3601"
       gradientUnits="userSpaceOnUse"
       gradientTransform="matrix(-1.53e-5,385.05682,385.05682,1.53e-5,303.3335,346.66699)"
       spreadMethod="pad"><stop
         id="stop3603"
         style="stop-color:#231f20;stop-opacity:1"
         offset="0" /><stop
         id="stop3605"
         style="stop-color:#ffffff;stop-opacity:1"
         offset="0.63189697" /><stop
         id="stop3607"
         style="stop-color:#ffffff;stop-opacity:1"
         offset="1" /></radialGradient><clipPath
       id="clipPath3615"><path
         d="M 0,792 612,792 612,0 0,0 0,792 z"
         id="path3617" /></clipPath><radialGradient
       cx="0"
       cy="0"
       r="1"
       fx="0"
       fy="0"
       id="radialGradient3726"
       xlink:href="#radialGradient3513"
       gradientUnits="userSpaceOnUse"
       gradientTransform="matrix(-1.53e-5,385.05679,385.05679,1.53e-5,303.3335,346.66699)"
       spreadMethod="pad" /><radialGradient
       cx="0"
       cy="0"
       r="1"
       fx="0"
       fy="0"
       id="radialGradient3728"
       xlink:href="#radialGradient3535"
       gradientUnits="userSpaceOnUse"
       gradientTransform="matrix(-1.53e-5,385.05682,385.05682,1.53e-5,303.3335,363.66699)"
       spreadMethod="pad" /><radialGradient
       cx="0"
       cy="0"
       r="1"
       fx="0"
       fy="0"
       id="radialGradient3730"
       xlink:href="#radialGradient3557"
       gradientUnits="userSpaceOnUse"
       gradientTransform="matrix(-1.53e-5,385.05682,385.05682,1.53e-5,303.3335,346.66699)"
       spreadMethod="pad" /><radialGradient
       cx="0"
       cy="0"
       r="1"
       fx="0"
       fy="0"
       id="radialGradient3732"
       xlink:href="#radialGradient3579"
       gradientUnits="userSpaceOnUse"
       gradientTransform="matrix(-1.53e-5,385.05682,385.05682,1.53e-5,303.3335,346.66699)"
       spreadMethod="pad" /><radialGradient
       cx="0"
       cy="0"
       r="1"
       fx="0"
       fy="0"
       id="radialGradient3734"
       xlink:href="#radialGradient3601"
       gradientUnits="userSpaceOnUse"
       gradientTransform="matrix(-1.53e-5,385.05682,385.05682,1.53e-5,303.3335,346.66699)"
       spreadMethod="pad" /></defs><g
     transform="matrix(1.25,0,0,-1.25,0,678.70301)"
     id="g3499"
     style="display:inline"><g
       transform="translate(-104.25,-209)"
       id="g3671"><g
         id="g3501"><g
           id="g3503"><g
             id="g3509"><g
               id="g3511"><path
                 d="M 374.75,347.5 504.5,525 504.5,424.5 375.25,315 l -0.5,32.5 z"
                 id="path3521"
                 style="fill:url(#radialGradient3726);stroke:none" /></g></g></g></g><g
         id="g3523"><g
           id="g3525"><g
             id="g3531"><g
               id="g3533"><path
                 d="m 232.5,342 -126.75,172.908 0,-80.186 L 232.5,308 l 0,34 z"
                 id="path3543"
                 style="fill:url(#radialGradient3728);stroke:none" /></g></g></g></g><g
         id="g3545"><g
           id="g3547"><g
             id="g3553"><g
               id="g3555"><path
                 d="M 387,604.333 362.475,567.308 355.65,528.2 c 0,0 18.549,-30.387 23.698,-35.95 l 0,0 c 5.15,-5.562 7.267,-11.8 3.164,-18.789 l 0,0 c -4.103,-6.988 -15.049,-29.566 -15.049,-29.566 l 0,0 -1.882,0.04 -6.783,-9.382 -11.199,-0.847 -4.011,-60.132 3.77,-6.546 -3.439,-3.964 2.428,-11.795 13.271,-1.538 L 445.5,649.5 386.5,705 387,604.333 z"
                 id="path3565"
                 style="fill:url(#radialGradient3730);stroke:none" /></g></g></g></g><g
         id="g3567"><g
           id="g3569"><g
             id="g3575"><g
               id="g3577"><path
                 d="M 343.588,460.667 345.333,455 c 0,0 18.251,16.641 18.167,21.666 l 0,0 C 363.416,481.692 350,492.25 350,492.25 l 0,0 -6.412,-31.583 z"
                 id="path3587"
                 style="fill:url(#radialGradient3732);stroke:none" /></g></g></g></g><g
         id="g3589"><g
           id="g3591"><g
             id="g3597"><g
               id="g3599"><path
                 d="m 126.667,578.5 131.864,-225.167 9.049,10.627 c -5.22,3.956 0.419,8.109 0.419,8.109 l 0,0 C 262.216,384.415 263.667,420 263.667,420 l 0,0 -6.806,18.754 C 237.722,446.509 232.5,482.5 232.5,482.5 l 0,0 2.059,7.683 L 147,703 126.667,578.5 z"
                 id="path3609"
                 style="fill:url(#radialGradient3734);stroke:none" /></g></g></g></g><g
         id="g3611"><g
           clip-path="url(#clipPath3615)"
           id="g3613"><g
             transform="translate(360.5273,566.5786)"
             id="g3619"><path
               d="m 0,0 c -13.671,-17.968 -31.428,-27.079 -52.777,-27.079 -21.346,0 -38.262,7.724 -50.277,22.956 -5.671,7.191 -8.852,14.45 -10.438,18.87 -0.571,8.98 -0.916,19.994 -0.535,32.174 0,0 21.5,40 37.5,57.5 0,0 -11.334,-18.555 -17.776,-36.865 -3.196,-0.589 -6.576,-1.732 -10.093,-3.667 0,0 3.785,0.514 9.041,0.551 -0.872,-2.723 -1.615,-5.417 -2.172,-8.019 0,0 4.45,3.016 10.846,7.592 6.88,-0.768 14.168,-2.749 18.654,-7.342 l 0,3.5 c 0,0 -5.489,5.118 -14.128,7.11 14.356,10.457 34.341,25.933 39.628,34.64 0,0 -15.5,-25.5 -24.5,-31 0,0 30.5,8 41,44 0,0 6.5,-45 39,-51.5 0,0 1.423,-20.402 -0.469,-41.107 C 10.442,17.093 6.473,8.507 0,0 m -29.022,-39.562 -6.027,10.909 -9.202,-17.219 3.177,-5.294 c -3.336,-0.991 -10.561,-3.378 -18.53,-7.501 5.655,6.66 14.45,16.609 20.709,23.587 l 0.384,0.427 0,6.016 c 3.174,0.662 6.181,1.53 9.021,2.569 0.643,-2.342 1.655,-7.44 0.468,-13.494 M -59.76,-95.579 c 0,1.103 0.897,2 2,2 1.103,0 2,-0.897 2,-2 0,-1.103 -0.897,-2 -2,-2 -1.103,0 -2,0.897 -2,2 m 0,-16.896 c 0,1.103 0.897,2 2,2 1.103,0 2,-0.897 2,-2 0,-1.103 -0.897,-2 -2,-2 -1.103,0 -2,0.897 -2,2 m 41.988,72.652 c 3.544,0.308 9.765,0.042 11.049,-0.919 0.736,-0.693 4.101,-6.115 7.355,-11.358 6.703,-10.801 15.046,-24.243 19.112,-27.741 5.291,-4.55 5.218,-9.175 -0.281,-17.673 -4.889,-7.555 -11.005,-21.608 -12.527,-25.169 -2.572,-0.152 -10.969,0.337 -17.613,11.866 3.761,3.95 14.905,16.067 15.148,21.173 l 0.032,0.675 -0.396,0.386 c -0.012,0.057 -0.01,0.181 0.06,0.375 0.311,0.842 1.941,3.183 10.383,6.701 l -1.154,2.769 c -5.115,-2.132 -8.588,-4.165 -10.507,-6.149 -3.506,3.859 -13.826,14.748 -21.838,18.442 -1.115,2.743 -5.515,15.689 6.974,23.599 l -1.605,2.534 c -15.93,-10.088 -7.956,-27.723 -7.873,-27.9 l 0.243,-0.522 0.53,-0.225 c 0.314,-0.133 0.634,-0.283 0.957,-0.443 -1.065,-3.283 -3.868,-12.298 -3.839,-16.188 0.033,-4.16 4.6,-19.894 6.479,-26.195 -1.784,-1.455 -3.375,-3.33 -3.087,-5.264 0.24,-1.618 0.17,-3.361 0.089,-4.397 -0.73,-0.934 -1.299,-1.96 -1.403,-2.975 -0.073,-0.709 0.08,-1.368 0.42,-1.948 -12.78,-5.11 -28.375,-5.052 -31.64,-4.98 l -8.89,9.897 c -0.092,1.481 -0.053,4.413 0.009,7.873 0.482,-1.666 2.005,-2.896 3.825,-2.896 2.206,0 4,1.795 4,4 0,2.206 -1.794,4 -4,4 -1.77,0 -3.257,-1.163 -3.783,-2.759 0.096,5.275 0.154,10.081 0.081,14.155 0.595,-1.463 2.027,-2.5 3.702,-2.5 2.206,0 4,1.795 4,4 0,2.206 -1.794,4 -4,4 -1.761,0 -3.244,-1.152 -3.776,-2.736 -0.079,2.054 -0.209,3.847 -0.402,5.362 3.707,-0.293 7.5,-0.871 9.941,-1.984 2.721,-1.24 6.877,-3.134 11.48,-3.134 4.823,0 10.135,2.08 14.798,9.168 l -2.506,1.649 c -7.106,-10.805 -15.356,-8.221 -22.528,-4.954 -2.983,1.36 -7.537,2.01 -11.778,2.309 -0.164,0.544 -0.349,1.004 -0.561,1.352 -2.239,3.667 -2.439,16.852 -2,19.015 0.058,0.109 0.158,0.263 0.28,0.44 12.753,8.029 26.268,11.525 26.404,11.56 l 1.954,0.497 -4.35,7.249 5.798,10.85 6.82,-12.347 1.082,3.248 c 0.883,2.654 1.338,5.201 1.528,7.546 2.272,-1.576 5.582,-3.53 7.804,-3.334 M 1.243,-87.544 c -0.025,-0.097 -0.057,-0.193 -0.076,-0.289 -0.157,-0.827 -0.009,-1.547 0.251,-2.086 -0.791,-3.759 -9.336,-13.716 -14.868,-19.455 -0.288,-0.156 -0.64,-0.356 -1.042,-0.599 -2.913,9.829 -6.047,21.408 -6.07,24.406 -0.022,2.992 2.16,10.452 3.5,14.644 7.397,-4.744 15.996,-14.054 18.305,-16.621 m -2.972,-44.481 c -0.738,0.765 -1.663,0.978 -2.757,0.624 -1.341,-0.432 -1.506,-0.241 -1.831,0.145 -0.501,0.595 -1.549,1.83 -3.844,0.795 -0.642,-0.289 -0.681,-0.256 -1.374,0.293 -0.751,0.597 -1.885,1.499 -3.899,1.335 -1.694,-0.138 -2.632,3.221 -2.64,3.251 l -0.097,0.377 -0.267,0.283 c -0.055,0.058 -0.074,0.083 -0.062,0.194 0.052,0.503 0.557,1.219 1.232,1.956 l 0.068,-0.009 c 10e-4,0.01 0.006,0.048 0.012,0.097 0.819,0.875 1.87,1.771 2.735,2.375 l -1.714,2.462 c -0.169,-0.118 -0.479,-0.341 -0.862,-0.639 -0.028,0.614 -0.08,1.25 -0.174,1.878 -0.108,0.727 1.799,2.516 4.118,3.97 5.263,-8.943 11.616,-11.854 16.019,-12.721 -2.223,-3.42 -3.788,-5.661 -4.663,-6.666 m -14.756,-81.364 c -0.391,-0.469 -2.43,-0.466 -4.595,-0.456 l -0.982,0.002 c -3.26,0 -4.695,0.343 -5.291,0.574 1.277,1.403 1.709,4.092 1.837,5.189 0.624,0.928 3.124,3.822 8.569,1.452 0.466,-2.535 1.052,-6.052 0.462,-6.761 m -3.314,84.308 c 0.842,-1.352 2.09,-2.534 3.778,-2.723 1.557,-17.808 -1.066,-63.962 -1.092,-64.439 l -0.033,-0.566 0.35,-0.446 c 0.969,-1.233 0.662,-4.14 0.188,-6.259 -0.874,0.325 -1.689,0.53 -2.458,0.658 -0.063,0.856 -0.483,2.492 -2.001,5.761 -0.23,6.038 -7.481,55.601 -8.85,64.919 3.379,0.751 6.821,1.762 10.118,3.095 m -23.134,-19.357 c 2.582,0.517 5.263,1.142 8.055,1.914 l -0.799,2.891 c -9.861,-2.725 -18.416,-3.659 -25.467,-3.692 -0.743,4.05 -2.357,14.11 -1.506,20.899 0.266,0.253 0.538,0.506 0.812,0.757 l 7.75,-8.629 0.627,-0.029 c 0.167,-0.008 1.126,-0.049 2.678,-0.049 3.768,0.001 11.028,0.249 18.904,1.793 1.398,-9.528 8.787,-60.092 8.817,-64.752 l 0.002,-0.219 0.093,-0.198 c 0.842,-1.799 1.71,-4.014 1.891,-4.958 -3.122,-0.094 -5.166,-1.695 -6.255,-2.883 -0.167,0.179 -0.298,0.389 -0.396,0.632 -0.62,1.535 0.196,3.954 0.561,4.753 l 0.164,0.355 -0.03,0.39 c -1.114,14.474 -12.84,43.621 -15.901,51.025 m -37.691,-54.448 0.031,-0.787 0.664,-0.422 c 0.545,-0.346 0.654,-0.678 0.689,-0.898 0.077,-0.484 -0.117,-1.066 -0.366,-1.568 -3.591,1.974 -7.234,2.969 -9.907,3.473 -2.036,2.76 0.747,6.477 0.877,6.648 l 0.292,0.376 -0.109,0.464 c -3.823,16.291 -0.156,54.572 0.759,63.342 3.92,-1.463 9.159,-2.767 16.024,-3.316 l 0.82,-0.065 0.496,0.656 c 0.031,0.041 2.285,3.004 5.511,6.366 -0.328,-6.648 0.955,-14.822 1.659,-18.693 -12.966,0.263 -20.281,3.539 -20.395,3.591 l -0.632,-1.36 -0.636,-1.359 c 0.361,-0.168 4.647,-2.099 12.309,-3.194 -9.307,-18.599 -8.142,-51.805 -8.086,-53.254 m -2.087,-9.957 0,2.537 -1.936,-0.587 c -0.089,-0.027 -8.947,-2.698 -14.147,-2.938 -2.046,-0.094 -2.888,0.334 -3.202,0.585 2.68,1.818 7.181,5.997 8.906,7.626 1.78,-0.15 7.289,-0.846 12.465,-3.821 l 0,-3.402 -2.086,0 z m -10.993,83.449 c 1.096,-0.667 2.448,-1.383 4.078,-2.088 -0.827,-7.67 -4.743,-46.69 -0.877,-64.126 -1.15,-1.667 -2.325,-4.514 -1.454,-7.107 -0.393,0.045 -0.731,0.076 -0.991,0.096 -0.813,0.956 -1.194,1.874 -1.132,2.734 0.1,1.389 1.327,2.35 1.33,2.353 l 0.794,0.591 -0.231,0.962 c -6.392,26.639 -2.732,57.947 -1.517,66.585 m -5.665,1.236 c -0.281,-0.563 -0.902,-0.654 -1.059,-0.668 -4.768,0.429 -9.399,5.899 -10.735,7.603 0.632,2.481 3.75,11.548 15.71,12.146 l 1.671,0.084 -0.67,-2.545 c -0.248,0.454 -0.486,0.966 -0.661,1.46 l -2.829,-1 c 0.278,-0.787 1.132,-2.928 2.542,-4.067 l -2.778,-10.562 0.511,-0.597 c 0.008,-0.009 0.022,-0.026 0.041,-0.047 -0.684,-0.425 -1.345,-1.011 -1.743,-1.807 m -3.566,43.581 c 0.956,1.495 2.848,4.281 4.646,6.431 0.044,-0.756 0.131,-1.52 0.295,-2.29 0.852,-3.999 3.462,-7.141 6.386,-9.401 -0.879,-1.214 -1.899,-3.115 -1.692,-5.213 0.106,-1.067 0.583,-2.539 2.165,-3.878 l -2.359,-8.968 -0.795,1.164 c -2.46,3.597 -8.737,13.958 -8.616,19.138 0.151,0.524 0.363,1.65 -0.03,3.017 m -21.934,5.399 c 3.723,1.715 17.815,20.205 23.793,28.201 l 0.229,0.307 0.055,0.379 c 0.634,4.439 1.805,8.905 2.555,9.796 1.338,0.262 4.063,0.099 5.535,-0.073 l 0.283,-0.034 10.011,2.654 c -0.57,-1.974 -0.991,-3.884 -1.115,-5.499 l -0.244,-3.174 11.391,8.022 1.367,-4.435 -7.615,-6.171 2.237,-0.994 c 2.746,-1.22 6.757,-8.738 8.869,-13.651 -0.256,-0.393 -0.421,-0.692 -0.464,-0.865 -0.56,-2.238 -0.538,-15.968 2.117,-21.013 -4.026,0.137 -7.193,0.008 -7.477,-0.005 l 0.13,-2.997 c 0.074,0.003 3.783,0.155 8.256,-0.04 0.733,-5.225 0.532,-16.042 0.402,-23.05 -0.091,-4.912 -0.163,-8.793 0.015,-10.422 l 0.053,-0.48 0.643,-0.716 c -3.966,-3.63 -7.182,-7.545 -8.392,-9.077 -14.326,1.299 -20.828,6.072 -22.619,7.651 l 7.154,27.204 -0.911,0.59 c -1.057,0.686 -1.614,1.44 -1.702,2.307 -0.117,1.139 0.567,2.381 1.197,3.239 2.865,-1.687 5.651,-2.555 7.089,-2.555 l 0,3 c -2.03,0 -11.431,3.756 -13.034,11.269 -1.574,7.386 4.386,14.823 4.446,14.897 l 0.674,0.829 -0.559,0.907 c -2.801,4.54 -4.525,16.441 -4.542,16.56 l -2.97,-0.424 c 0.069,-0.484 1.639,-11.327 4.449,-16.803 -1.125,-1.575 -3.432,-5.22 -4.36,-9.656 -2.33,-1.874 -5.207,-5.939 -6.729,-8.221 -2.135,2.19 -5.957,3.703 -11.408,4.502 l -0.435,-2.969 c 7.304,-1.07 9.606,-3.232 10.328,-4.426 0.71,-1.174 0.383,-2.143 0.38,-2.154 l -0.093,-0.231 -0.013,-0.248 c -0.304,-5.573 5.135,-14.92 7.762,-19.085 -9.641,-1.459 -13.675,-8.159 -15.235,-12.093 -11.992,15.991 -13.089,36.878 -11.503,39.247 m 66.381,26.432 -6.283,16.518 1.54,1.465 c 0.007,-0.294 0.002,-0.588 -0.035,-0.88 l 2.977,-0.372 c 0.295,2.363 -0.456,4.685 -1.266,6.404 2.79,-0.3 5.709,-0.468 8.778,-0.468 3.964,0 7.713,0.322 11.266,0.894 l 0,-4.319 c -5,-5.576 -11.61,-13.007 -16.977,-19.242 m -6.762,23.617 c 0.309,-0.475 0.791,-1.279 1.21,-2.262 l -4.244,-4.039 7.574,-19.912 c -1.874,-2.206 -3.51,-4.176 -4.754,-5.747 -1.558,3.394 -4.625,9.459 -7.824,12.347 l 5.743,4.653 -4.299,13.952 -2.867,-0.884 1.406,-4.562 -6.622,-4.665 c 1.216,4.888 3.842,10.896 4.967,13.365 3.022,-0.937 6.252,-1.702 9.71,-2.246 m 100.39,162.55 c -20.167,46 -50.667,40.5 -57.167,37.5 0,0 -6,17.5 -39,14 -33,-3.5 -78,-41 -86,-92 l 5,2.5 c 0,0 -12.5,-55 31,-104.5 0,0 -0.908,5.455 -1.75,14.617 1.799,-3.519 4.178,-7.459 7.289,-11.418 5.65,-7.191 14.491,-15.279 27.665,-20.046 -0.835,-1.838 -2.268,-5.132 -3.495,-8.63 l -11.323,-3.001 c -1.081,0.114 -4.546,0.423 -6.5,-0.067 -0.729,-0.182 -2.929,-0.732 -4.566,-11.862 -9.415,-12.575 -20.271,-26.011 -22.261,-26.909 -0.912,-0.281 -1.576,-1.107 -1.974,-2.456 -1.762,-5.976 0.874,-28.019 13.979,-43.647 0.468,-0.649 6.468,-8.789 13.385,-9.326 l 0.117,-0.005 c 0.945,0 2.754,0.476 3.697,2.203 -1.304,-9.564 -4.621,-39.912 1.458,-66.198 -0.695,-0.742 -1.621,-2.041 -1.763,-3.8 -0.119,-1.475 0.346,-2.927 1.367,-4.332 -3.012,-2.814 -7.342,-6.638 -8.716,-7.253 l -0.773,-0.346 -0.103,-0.841 c -0.086,-0.701 0.119,-1.851 0.981,-2.781 1.026,-1.107 2.695,-1.666 4.97,-1.666 0.223,0 0.451,0.006 0.686,0.016 4.07,0.187 9.934,1.674 12.946,2.507 l 0,-1.523 8.086,0 0,6.765 c 0.588,0.832 1.644,2.636 1.351,4.538 -0.109,0.702 -0.442,1.645 -1.372,2.471 -0.12,5.034 -0.456,35.795 8.299,52.05 2.306,-0.223 4.848,-0.362 7.629,-0.362 4.628,0 9.902,0.382 15.771,1.38 2.515,-6.081 14.623,-35.934 15.894,-50.331 -0.446,-1.103 -1.488,-4.177 -0.46,-6.741 0.389,-0.97 1.047,-1.758 1.916,-2.334 -0.196,-1.139 -0.56,-2.43 -0.991,-2.861 -1.351,-1.352 -1.039,-2.604 -0.842,-3.079 0.725,-1.749 3.228,-2.496 8.368,-2.496 l 0.973,-0.002 c 0.279,-0.001 0.55,-0.002 0.813,-0.002 3.02,0 4.905,0.109 6.095,1.538 1.371,1.643 1.083,4.353 0.108,9.636 0.462,1.525 1.816,6.692 -0.017,9.765 0.294,5.243 2.451,45.1 1.161,63.034 0.855,-0.613 2.075,-1.191 4.002,-0.322 0.102,0.046 0.182,0.077 0.242,0.097 0.025,-0.03 0.049,-0.061 0.076,-0.092 0.899,-1.067 2.108,-1.936 4.868,-1.122 0.235,-0.378 0.762,-1.181 1.818,-1.188 l 0.024,0 c 1.384,0 2.454,0.879 8.186,9.804 l 0.011,0 c 1.126,0 1.833,0.122 1.951,0.144 l 0.794,0.149 0.312,0.744 c 0.073,0.172 7.263,17.226 12.627,25.516 4.607,7.12 7.761,14.662 -0.281,21.578 -3.718,3.197 -12.273,16.982 -18.52,27.047 -5.244,8.449 -7.159,11.465 -8.058,12.141 -3.024,2.267 -13.055,1.552 -13.155,1.544 -1.31,-0.122 -4.752,1.908 -7.447,3.988 -0.105,3.549 -0.75,6.331 -1.204,7.889 13.347,5.613 22.834,14.925 29.131,23.222 3.742,4.93 6.655,9.831 8.867,14.136 C 10.419,6.495 9.178,0.835 7.473,-4.079 c 0,0 23,27 27,59 0,0 1.5,-16 0,-26.5 0,0 20.834,59 0.667,105"
               id="path3621"
               style="fill:#4d4d4d;fill-opacity:1;fill-rule:nonzero;stroke:none" /></g><g
             transform="translate(282.1528,601.3247)"
             id="g3623"><path
               d="m 0,0 c -0.499,-0.208 -1.045,-0.325 -1.62,-0.325 -2.329,0 -4.217,1.888 -4.217,4.217 0,2.329 1.888,4.217 4.217,4.217 1.164,0 2.219,-0.472 2.982,-1.234 C 1.271,7.257 1.148,7.627 1.008,7.987 5.225,6.015 9.042,2.971 11.847,-1.575 c 0,0 -4.5,18.5 -31.75,16.5 0,0 -1.5,-0.75 -2.5,4 0,0 -0.25,-3 1,-4.75 0,0 -4.75,-2.25 -8.5,4.75 0,0 0,-9 10.25,-8 2.225,0.218 4.627,0.304 7.098,0.188 -1.666,-1.541 -2.716,-3.739 -2.716,-6.188 0,-4.658 3.776,-8.434 8.434,-8.434 2.817,0 5.305,1.386 6.837,3.509"
               id="path3625"
               style="fill:#4d4d4d;fill-opacity:1;fill-rule:nonzero;stroke:none" /></g><g
             transform="translate(359.6182,631.4673)"
             id="g3627"><path
               d="m 0,0 c -20.382,11.217 -36.368,-3.717 -36.368,-3.717 l 0,-3.5 C -25.868,3.533 0,0 0,0"
               id="path3629"
               style="fill:#4d4d4d;fill-opacity:1;fill-rule:nonzero;stroke:none" /></g><g
             transform="translate(355,616.5)"
             id="g3631"><path
               d="m 0,0 c 1.25,1.75 1,4.75 1,4.75 -1,-4.75 -2.5,-4 -2.5,-4 -27.25,2 -31.75,-16.5 -31.75,-16.5 2.803,4.542 6.616,7.586 10.83,9.558 C -22.789,-7.141 -23,-8.17 -23,-9.25 c 0,-4.658 3.775,-8.434 8.434,-8.434 3.68,0 6.801,2.361 7.953,5.648 -0.773,-0.89 -1.899,-1.464 -3.17,-1.464 -2.328,0 -4.217,1.888 -4.217,4.217 0,2.329 1.889,4.217 4.217,4.217 1.296,0 2.44,-0.597 3.214,-1.516 -0.456,1.367 -1.264,2.563 -2.299,3.519 2.478,0.118 4.887,0.031 7.118,-0.187 10.25,-1 10.25,8 10.25,8 C 4.75,-2.25 0,0 0,0"
               id="path3633"
               style="fill:#4d4d4d;fill-opacity:1;fill-rule:nonzero;stroke:none" /></g><g
             transform="translate(304.1191,573)"
             id="g3635"><path
               d="M 0,0 C -1.158,2.026 0,11 0,11 -6.08,4.921 0,0 0,0"
               id="path3637"
               style="fill:#4d4d4d;fill-opacity:1;fill-rule:nonzero;stroke:none" /></g><g
             transform="translate(307.9883,554.5)"
             id="g3639"><path
               d="M 0,0 C -11.464,0 -15.592,5.817 -16.947,8.761 -16.208,8.645 -15.468,8.54 -14.728,8.452 -9.527,7.817 -4.334,7.727 0.869,7.81 6.068,7.978 11.298,8.369 16.443,9.533 16.861,9.627 17.277,9.737 17.694,9.843 15.962,6.429 11.212,0 0,0 M 27.474,16.691 C 27.326,16.116 26.966,15.63 26.529,15.23 25.644,14.431 24.514,13.894 23.352,13.479 21.021,12.631 18.519,12.2 16.022,11.835 13.513,11.522 10.986,11.251 8.441,11.125 5.901,10.957 3.35,10.848 0.794,10.807 -1.76,10.714 -4.324,10.7 -6.883,10.69 c -2.56,-0.039 -5.114,0.026 -7.662,0.086 -2.543,0.106 -5.091,0.231 -7.579,0.631 -1.243,0.189 -2.477,0.458 -3.613,0.923 -0.562,0.237 -1.105,0.538 -1.49,0.982 -0.398,0.42 -0.55,1.104 -0.228,1.688 -0.454,-0.479 -0.51,-1.316 -0.146,-1.939 0.352,-0.626 0.908,-1.077 1.469,-1.457 1.145,-0.75 2.413,-1.209 3.672,-1.623 0.688,-0.208 1.38,-0.388 2.076,-0.553 C -19.774,7.388 -15.88,-3 0,-3 c 16.594,0 20.986,12.636 21.414,14.014 0.862,0.33 1.716,0.689 2.545,1.124 1.17,0.656 2.344,1.415 3.194,2.542 0.413,0.561 0.737,1.235 0.77,1.946 0.033,0.714 -0.25,1.378 -0.661,1.874 0.288,-0.583 0.38,-1.239 0.212,-1.809"
               id="path3641"
               style="fill:#4d4d4d;fill-opacity:1;fill-rule:nonzero;stroke:none" /></g><g
             transform="translate(307.6445,548.2749)"
             id="g3643"><path
               d="m 0,0 c -1.482,-0.069 -2.957,-0.069 -4.436,0.07 -1.476,0.154 -2.955,0.381 -4.459,0.905 1.065,-1.234 2.61,-1.972 4.161,-2.431 1.568,-0.456 3.213,-0.62 4.829,-0.541 1.618,0.071 3.208,0.391 4.726,0.882 C 6.34,-0.624 7.793,0.05 9.105,0.975 7.507,0.832 5.986,0.597 4.478,0.407 2.971,0.216 1.48,0.075 0,0"
               id="path3645"
               style="fill:#4d4d4d;fill-opacity:1;fill-rule:nonzero;stroke:none" /></g><g
             transform="translate(300.25,490.25)"
             id="g3647"><path
               d="M 0,0 C -1.103,0 -2,0.897 -2,2 -2,3.103 -1.103,4 0,4 1.103,4 2,3.103 2,2 2,0.897 1.103,0 0,0 m 0,6 c -2.206,0 -4,-1.794 -4,-4 0,-2.206 1.794,-4 4,-4 2.206,0 4,1.794 4,4 0,2.206 -1.794,4 -4,4"
               id="path3649"
               style="fill:#4d4d4d;fill-opacity:1;fill-rule:nonzero;stroke:none" /></g><g
             transform="translate(232.5,349.5)"
             id="g3651"><path
               d="m 0,0 142.25,0 0,-75 129.75,0 0,-64 -398.75,0 0,80.5 L 0,-58.5 0,0 z"
               id="path3653"
               style="fill:#ffffff;fill-opacity:1;fill-rule:nonzero;stroke:none" /></g><g
             transform="translate(232.5,349.5)"
             id="g3655"><path
               d="m 0,0 142.25,0 0,-75 129.75,0 0,-64 -398.75,0 0,80.5 L 0,-58.5 0,0 z"
               id="path3657"
               style="fill:none;stroke:#4d4d4d;stroke-width:3;stroke-linecap:butt;stroke-linejoin:miter;stroke-miterlimit:10;stroke-opacity:1;stroke-dasharray:none" /></g></g></g><text
         transform="matrix(1,0,0,-1,274.5781,222.0234)"
         id="text3659"><tspan
           x="0"
           y="0"
           id="tspan3661"
           style="font-size:137.60409546px;font-variant:normal;font-weight:normal;font-stretch:normal;writing-mode:lr-tb;fill:#4d4d4d;fill-opacity:1;fill-rule:nonzero;stroke:none;font-family:Impact;-inkscape-font-specification:Impact">1</tspan></text>
<text
         transform="matrix(1,0,0,-1,151.5781,223.0146)"
         id="text3663"><tspan
           x="0"
           y="0"
           id="tspan3665"
           style="font-size:68px;font-variant:normal;font-weight:normal;font-stretch:normal;writing-mode:lr-tb;fill:#4d4d4d;fill-opacity:1;fill-rule:nonzero;stroke:none;font-family:Impact;-inkscape-font-specification:Impact">2</tspan></text>
<text
         transform="matrix(1,0,0,-1,431.5781,217.7256)"
         id="text3667"><tspan
           x="0"
           y="0"
           id="tspan3669"
           style="font-size:52px;font-variant:normal;font-weight:normal;font-stretch:normal;writing-mode:lr-tb;fill:#4d4d4d;fill-opacity:1;fill-rule:nonzero;stroke:none;font-family:Impact;-inkscape-font-specification:Impact">3</tspan></text>
</g></g></svg>