<?xml version="1.0" encoding="UTF-8" standalone="no"?>
<!-- Created with Inkscape (http://www.inkscape.org/) -->

<svg
   xmlns:dc="http://purl.org/dc/elements/1.1/"
   xmlns:cc="http://creativecommons.org/ns#"
   xmlns:rdf="http://www.w3.org/1999/02/22-rdf-syntax-ns#"
   xmlns:svg="http://www.w3.org/2000/svg"
   xmlns="http://www.w3.org/2000/svg"
   version="1.1"
   width="560.59753"
   height="608.4314"
   id="svg2985"
   xml:space="preserve"><metadata
     id="metadata2991"><rdf:RDF><cc:Work
         rdf:about=""><dc:format>image/svg+xml</dc:format><dc:type
           rdf:resource="http://purl.org/dc/dcmitype/StillImage" /><dc:title></dc:title></cc:Work></rdf:RDF></metadata><defs
     id="defs2989"><clipPath
       id="clipPath2999"><path
         d="M 0,792 612,792 612,0 0,0 0,792 z"
         id="path3001" /></clipPath><clipPath
       id="clipPath3015"><path
         d="M 0,792 612,792 612,0 0,0 0,792 z"
         id="path3017" /></clipPath><clipPath
       id="clipPath3147"><path
         d="M 0,792 612,792 612,0 0,0 0,792 z"
         id="path3149" /></clipPath></defs><g
     transform="matrix(1.25,0,0,-1.25,3.1439787e-7,608.4314)"
     id="g2993"><g
       transform="translate(-78.000088,-158.4772)"
       id="g3370"><g
         id="g2995"><g
           clip-path="url(#clipPath2999)"
           id="g2997"><g
             transform="translate(197.6665,529.2773)"
             id="g3003"><path
               d="m 0,0 c 0,0 -101,11.39 -117.667,-61.277 -16.666,-72.667 76.334,-74.389 76.334,-74.389 0,0 2.333,-20.945 32,-20.778 0,0 -13,2.834 -14.667,23.167 l 16.05,2.569 c 0,0 -3.05,8.446 7.95,12.271 11,3.826 0,0 0,0 0,0 4.219,2.144 8.276,-8.682 4.057,-10.825 0,0 0,0 l 18.312,4.981 c 0,0 -2.707,14.557 9.186,11.875 11.893,-2.681 0,0 0,0 0,0 6.208,-1.014 6.449,-5.682 0.241,-4.668 0,0 0,0 l 8.444,7.161 L 0,0 z"
               id="path3005"
               style="fill:#999999;fill-opacity:1;fill-rule:nonzero;stroke:none" /></g><g
             transform="translate(395,577.333)"
             id="g3007"><path
               d="m 0,0 c 0,0 47.667,29.667 98.667,-2.667 51,-32.333 44.999,-132.666 -35.334,-132.666 0,0 -11.333,-36.448 -57.333,-32.724 0,0 28.666,11.057 28.333,35.057 0,0 -18,0.334 -34.333,11.667 L 0,0 z"
               id="path3009"
               style="fill:#999999;fill-opacity:1;fill-rule:nonzero;stroke:none" /></g></g></g><g
         id="g3011"><g
           clip-path="url(#clipPath3015)"
           id="g3013"><g
             transform="translate(109.2178,492.2808)"
             id="g3019"><path
               d="M 0,0 C 0.049,0.28 0.067,0.561 0.055,0.843 0.03,2.094 -1.846,2.4 -2.155,1.142 c -1.551,-6.319 -2.577,-12.098 -5.4,-18.144 -3.707,-7.938 -8.934,-15.476 -15.694,-21.096 l 1.921,-0.795 c -0.149,3.374 1.244,6.063 3.474,8.497 3.346,3.652 7.335,2.425 11.387,1.242 4.876,-1.424 10.396,1.196 14.378,3.718 1.222,0.773 0.094,2.722 -1.136,1.942 -4.235,-2.682 -8.922,-4.578 -13.967,-3.104 -3.206,0.936 -5.338,1.527 -8.55,0.337 -4.893,-1.813 -8.057,-7.627 -7.836,-12.632 0.045,-1.032 1.168,-1.421 1.92,-0.795 6.968,5.792 12.073,13.479 16.045,21.55 3.009,6.113 4.041,12.217 5.628,18.682 -0.737,0.1 -1.473,0.2 -2.21,0.299 C -2.183,0.561 -2.201,0.28 -2.25,0 -2.377,-1.446 -0.126,-1.434 0,0"
               id="path3021"
               style="fill:#ffffff;fill-opacity:1;fill-rule:nonzero;stroke:none" /></g><g
             transform="translate(116.729,467.9614)"
             id="g3023"><path
               d="M 0,0 C 2.501,2.122 5.259,7.852 3.29,10.983 2.343,12.489 0.273,12.231 -1.115,11.643 -3.102,10.801 -3.78,7.537 -4.024,5.711 -4.619,1.287 -4.052,-4.49 1.734,-4.121 6.99,-3.785 11.853,1.87 14.604,5.873 15.429,7.072 13.478,8.196 12.662,7.009 10.2,3.428 -1.357,-7.808 -1.971,2.306 c -0.103,1.7 0.14,3.408 0.588,5.044 0.274,1.003 2.798,4.268 3.032,1.55 C 1.857,6.496 0.215,3.124 -1.591,1.591 -2.699,0.651 -1.099,-0.933 0,0"
               id="path3025"
               style="fill:#ffffff;fill-opacity:1;fill-rule:nonzero;stroke:none" /></g><g
             transform="translate(133.9961,492.9082)"
             id="g3027"><path
               d="m 0,0 0,1.881 c 0,1.452 -2.236,1.451 -2.25,0 -0.107,-10.959 -1.827,-21.762 -3.137,-32.619 -0.174,-1.439 2.078,-1.422 2.25,0 1.31,10.857 3.03,21.66 3.137,32.619 l -2.25,0 0,-1.881 C -2.25,-1.451 0,-1.451 0,0"
               id="path3029"
               style="fill:#ffffff;fill-opacity:1;fill-rule:nonzero;stroke:none" /></g><g
             transform="translate(125.9961,477.041)"
             id="g3031"><path
               d="M 0,0 C 4.975,1.112 9.695,3.494 14.428,5.333 15.765,5.852 15.184,8.028 13.829,7.502 9.097,5.663 4.376,3.282 -0.598,2.17 -2.014,1.853 -1.413,-0.316 0,0"
               id="path3033"
               style="fill:#ffffff;fill-opacity:1;fill-rule:nonzero;stroke:none" /></g><g
             transform="translate(143.0776,502.6455)"
             id="g3035"><path
               d="m 0,0 c 0.476,-2.101 0.328,-4.178 -0.827,-6.033 -0.77,-1.236 1.178,-2.364 1.942,-1.136 1.473,2.366 1.66,5.093 1.055,7.768 C 1.849,2.013 -0.32,1.413 0,0"
               id="path3037"
               style="fill:#ffffff;fill-opacity:1;fill-rule:nonzero;stroke:none" /></g><g
             transform="translate(151.231,472.0391)"
             id="g3039"><path
               d="M 0,0 C 4.536,4.563 9.39,9.711 9.739,16.478 9.771,17.105 9.202,17.583 8.614,17.603 2.965,17.796 3.464,11.479 4.492,7.595 5.13,5.182 6.176,3.044 7.888,1.231 8.335,0.758 10.884,-1.494 8.986,-2.266 8.071,-2.639 6.714,-2.448 5.789,-2.32 4.174,-2.097 2.576,-1.557 1.072,-0.942 -0.272,-0.394 -0.851,-2.571 0.474,-3.112 2.894,-4.1 14.551,-6.594 11.932,-0.254 10.816,2.446 8.128,4.004 7.072,6.889 6.216,9.228 4.446,15.495 8.614,15.353 L 7.489,16.478 C 7.174,10.378 2.476,5.682 -1.591,1.591 -2.615,0.561 -1.024,-1.03 0,0"
               id="path3041"
               style="fill:#ffffff;fill-opacity:1;fill-rule:nonzero;stroke:none" /></g><g
             transform="translate(104.6426,439.4575)"
             id="g3043"><path
               d="m 0,0 c -5.344,-0.044 -9.813,-9.658 -8.101,-14.144 1.003,-2.627 4.171,-3.066 6.459,-1.966 3.487,1.675 6.172,4.903 8.127,8.163 1.586,2.645 2.698,5.834 0.839,8.582 -1.463,2.163 -3.837,2.438 -5.97,1.124 -2.752,-1.695 -4.612,-5.021 -6.145,-7.75 -1.363,-2.427 -2.667,-5.03 -3.507,-7.694 -0.438,-1.388 1.735,-1.977 2.17,-0.599 1.172,3.719 3.193,7.35 5.372,10.56 1.042,1.535 2.457,3.472 4.312,4.051 C 6.184,1.148 6.12,-3.051 5.684,-4.409 4.653,-7.616 -1.167,-16.448 -5.42,-14.086 -8.83,-12.192 -3.117,-2.276 0,-2.25 1.45,-2.238 1.452,0.012 0,0"
               id="path3045"
               style="fill:#ffffff;fill-opacity:1;fill-rule:nonzero;stroke:none" /></g><g
             transform="translate(114.1978,455.729)"
             id="g3047"><path
               d="m 0,0 c -0.579,0.72 -0.508,-1.247 -0.657,-2.038 -0.349,-1.863 -0.736,-3.719 -1.102,-5.579 -0.79,-4.009 -1.51,-8.035 -1.951,-12.1 -0.373,-3.429 -0.45,-12.678 5.387,-8.373 1.154,0.851 0.033,2.805 -1.136,1.942 -2.772,-2.044 -2.26,2.282 -2.183,4.151 0.159,3.796 0.886,7.578 1.577,11.305 C 0.382,-8.28 3.375,-0.628 1.591,1.591 0.682,2.722 -0.9,1.119 0,0"
               id="path3049"
               style="fill:#ffffff;fill-opacity:1;fill-rule:nonzero;stroke:none" /></g><g
             transform="translate(125.9561,445.6909)"
             id="g3051"><path
               d="m 0,0 c -6.19,1.151 -9.72,-4.685 -10.544,-10.049 -0.644,-4.196 0.798,-11 6.456,-8.299 3.428,1.637 5.684,5.436 7.102,8.777 1.163,2.74 2.6,8.566 -1.446,9.884 -7.681,2.504 -11.101,-9.498 -12.048,-14.899 -0.249,-1.419 1.919,-2.026 2.17,-0.599 0.742,4.231 2.458,11.882 7.06,13.485 5.021,1.748 2.664,-6.037 1.78,-7.96 -1.201,-2.611 -2.947,-5.031 -5.42,-6.562 -3.909,-2.42 -3.735,4.228 -3.353,6.365 0.669,3.741 3.141,8.525 7.645,7.687 C 0.82,-2.434 1.426,-0.265 0,0"
               id="path3053"
               style="fill:#ffffff;fill-opacity:1;fill-rule:nonzero;stroke:none" /></g><g
             transform="translate(150.5654,448.0562)"
             id="g3055"><path
               d="m 0,0 c -0.091,-5.017 -2.785,-9.633 -2.884,-14.626 -0.123,-6.187 7.719,-0.603 9.595,0.795 1.149,0.856 0.03,2.81 -1.135,1.942 -1.597,-1.19 -3.932,-3.354 -6.059,-3.444 -0.433,-0.018 0.141,2.953 0.276,3.553 C 0.673,-7.882 2.177,-4.038 2.25,0 2.276,1.452 0.026,1.449 0,0"
               id="path3057"
               style="fill:#ffffff;fill-opacity:1;fill-rule:nonzero;stroke:none" /></g><g
             transform="translate(150.4951,456.5552)"
             id="g3059"><path
               d="m 0,0 c -0.947,-0.526 -1.46,-1.471 -1.499,-2.54 -0.051,-1.452 2.199,-1.447 2.25,0 0.009,0.241 0.088,0.433 0.385,0.598 C 2.404,-1.238 1.27,0.706 0,0"
               id="path3061"
               style="fill:#ffffff;fill-opacity:1;fill-rule:nonzero;stroke:none" /></g><g
             transform="translate(161.5825,463.0957)"
             id="g3063"><path
               d="m 0,0 c -2.753,-13.396 -5.604,-26.773 -8.468,-40.146 -0.303,-1.415 1.866,-2.017 2.17,-0.598 2.863,13.373 5.715,26.749 8.468,40.146 C 2.461,0.818 0.292,1.421 0,0"
               id="path3065"
               style="fill:#ffffff;fill-opacity:1;fill-rule:nonzero;stroke:none" /></g><g
             transform="translate(156.335,450.8486)"
             id="g3067"><path
               d="m 0,0 c 4.359,2.158 8.814,4.114 13.173,6.272 1.301,0.644 0.16,2.584 -1.135,1.943 C 7.679,6.057 3.224,4.101 -1.136,1.942 -2.436,1.299 -1.296,-0.642 0,0"
               id="path3069"
               style="fill:#ffffff;fill-opacity:1;fill-rule:nonzero;stroke:none" /></g><g
             transform="translate(182.8853,469.7129)"
             id="g3071"><path
               d="m 0,0 c 0.066,0.428 0.171,0.846 0.314,1.254 -0.737,0.1 -1.473,0.2 -2.21,0.299 -1.364,-12.791 -4.883,-25.162 -7.801,-37.653 -0.33,-1.411 1.84,-2.01 2.17,-0.597 2.965,12.692 6.495,25.254 7.881,38.25 0.14,1.308 -1.852,1.464 -2.21,0.3 C -1.999,1.444 -2.103,1.026 -2.17,0.598 -2.468,-0.817 -0.299,-1.419 0,0"
               id="path3073"
               style="fill:#ffffff;fill-opacity:1;fill-rule:nonzero;stroke:none" /></g><g
             transform="translate(172.2607,424.5068)"
             id="g3075"><path
               d="m 0,0 c 0.085,0.246 -0.139,-0.205 -0.017,-0.044 -0.134,-0.135 -0.269,-0.269 -0.403,-0.404 0.003,0.002 0.007,0.003 0.01,0.005 -0.454,0.059 -0.908,0.117 -1.363,0.176 0.003,-0.002 0.005,-0.004 0.008,-0.006 -0.096,0.166 -0.193,0.331 -0.289,0.496 -0.088,0.298 -0.027,0.324 -0.036,0.17 -0.014,-0.219 0.048,0.302 0.003,0.032 -0.033,-0.193 -0.08,-0.383 -0.128,-0.572 -0.137,-0.536 -0.203,-0.764 -0.468,-1.182 -0.328,-0.518 -0.111,-1.237 0.404,-1.539 0.563,-0.33 1.186,-0.096 1.539,0.404 0.655,0.927 0.968,2.308 0.313,3.331 -0.779,1.218 -2.727,0.091 -1.942,-1.136 0.023,-0.037 0.042,-0.077 0.061,-0.116 -0.214,0.45 0.025,-0.286 -0.019,0.057 0.048,-0.376 -0.08,-0.61 -0.356,-1.001 0.648,-0.378 1.295,-0.757 1.943,-1.135 0.367,0.579 0.586,1.263 0.746,1.926 C 0.141,0.019 0.358,0.896 -0.182,1.324 -0.603,1.657 -1.05,1.753 -1.545,1.5 -1.902,1.318 -2.048,0.95 -2.17,0.599 -2.371,0.019 -1.946,-0.631 -1.384,-0.786 -0.763,-0.956 -0.201,-0.579 0,0"
               id="path3077"
               style="fill:#ffffff;fill-opacity:1;fill-rule:nonzero;stroke:none" /></g><g
             transform="translate(192.332,469.7129)"
             id="g3079"><path
               d="m 0,0 c 0.066,0.428 0.171,0.846 0.313,1.254 -0.737,0.1 -1.473,0.2 -2.21,0.299 -1.364,-12.791 -4.882,-25.162 -7.801,-37.653 -0.33,-1.411 1.84,-2.01 2.17,-0.597 2.965,12.692 6.495,25.254 7.881,38.25 0.14,1.307 -1.852,1.464 -2.21,0.3 C -1.999,1.444 -2.104,1.026 -2.17,0.598 -2.467,-0.817 -0.298,-1.42 0,0"
               id="path3081"
               style="fill:#ffffff;fill-opacity:1;fill-rule:nonzero;stroke:none" /></g><g
             transform="translate(182.6025,423.6123)"
             id="g3083"><path
               d="m 0,0 c 0.085,0.245 -0.139,-0.206 -0.017,-0.045 -0.134,-0.135 -0.269,-0.269 -0.403,-0.404 0.003,0.002 0.007,0.004 0.01,0.006 -0.454,0.058 -0.908,0.117 -1.363,0.175 0.002,-0.002 0.005,-0.003 0.008,-0.005 -0.096,0.165 -0.193,0.33 -0.289,0.496 -0.088,0.298 -0.027,0.324 -0.036,0.17 -0.014,-0.22 0.048,0.301 0.003,0.032 -0.033,-0.193 -0.08,-0.383 -0.128,-0.573 -0.137,-0.536 -0.203,-0.764 -0.468,-1.181 -0.329,-0.519 -0.111,-1.238 0.403,-1.539 0.564,-0.33 1.187,-0.097 1.539,0.403 0.655,0.927 0.968,2.309 0.313,3.332 -0.779,1.217 -2.727,0.09 -1.942,-1.136 0.023,-0.037 0.042,-0.077 0.061,-0.117 -0.214,0.451 0.025,-0.286 -0.019,0.057 0.048,-0.376 -0.079,-0.609 -0.355,-1 0.647,-0.379 1.295,-0.757 1.942,-1.136 0.367,0.579 0.587,1.263 0.747,1.926 C 0.141,0.019 0.357,0.895 -0.182,1.324 -0.602,1.657 -1.051,1.752 -1.545,1.5 -1.902,1.317 -2.048,0.949 -2.17,0.598 -2.371,0.018 -1.946,-0.631 -1.384,-0.786 -0.764,-0.957 -0.201,-0.579 0,0"
               id="path3085"
               style="fill:#ffffff;fill-opacity:1;fill-rule:nonzero;stroke:none" /></g><g
             transform="translate(202.6724,468.8174)"
             id="g3087"><path
               d="m 0,0 c 0.067,0.428 0.171,0.846 0.314,1.255 -0.736,0.099 -1.473,0.199 -2.21,0.299 -1.364,-12.791 -4.883,-25.162 -7.802,-37.653 -0.329,-1.411 1.84,-2.011 2.17,-0.598 2.966,12.692 6.496,25.254 7.882,38.251 0.14,1.307 -1.851,1.463 -2.209,0.299 C -1.998,1.444 -2.103,1.026 -2.17,0.599 -2.469,-0.817 -0.3,-1.419 0,0"
               id="path3089"
               style="fill:#ffffff;fill-opacity:1;fill-rule:nonzero;stroke:none" /></g><g
             transform="translate(192.0483,423.6123)"
             id="g3091"><path
               d="m 0,0 c 0.085,0.245 -0.139,-0.206 -0.017,-0.045 -0.134,-0.135 -0.269,-0.269 -0.403,-0.404 0.003,0.002 0.007,0.004 0.011,0.006 -0.455,0.058 -0.909,0.117 -1.363,0.175 0.002,-0.002 0.004,-0.003 0.007,-0.005 -0.096,0.165 -0.193,0.33 -0.289,0.496 -0.088,0.298 -0.026,0.324 -0.036,0.17 -0.014,-0.22 0.048,0.301 0.003,0.032 -0.033,-0.193 -0.08,-0.383 -0.128,-0.573 -0.137,-0.536 -0.204,-0.764 -0.469,-1.181 -0.329,-0.519 -0.11,-1.238 0.404,-1.539 0.564,-0.331 1.186,-0.096 1.539,0.403 0.655,0.927 0.97,2.309 0.314,3.332 -0.779,1.217 -2.727,0.09 -1.942,-1.136 0.023,-0.037 0.042,-0.077 0.061,-0.117 -0.214,0.451 0.025,-0.286 -0.019,0.057 0.048,-0.376 -0.08,-0.609 -0.357,-1 0.648,-0.379 1.295,-0.757 1.943,-1.136 0.367,0.579 0.587,1.263 0.747,1.926 C 0.142,0.019 0.358,0.896 -0.182,1.324 -0.603,1.657 -1.049,1.752 -1.545,1.5 -1.902,1.318 -2.047,0.949 -2.17,0.598 -2.372,0.019 -1.945,-0.631 -1.384,-0.786 -0.763,-0.957 -0.202,-0.579 0,0"
               id="path3093"
               style="fill:#ffffff;fill-opacity:1;fill-rule:nonzero;stroke:none" /></g><g
             transform="translate(450.6328,568.5171)"
             id="g3095"><path
               d="m 0,0 c 1.334,1.389 4.512,5.572 2.086,7.513 -3.302,2.643 -8.118,-0.93 -10.832,-2.943 -4.952,-3.673 -8.962,-8.616 -12.583,-13.556 -3.109,-4.243 -6.435,-9.226 -7.596,-14.447 -1.521,-6.837 6.78,-5.421 10.624,-4.223 7.363,2.294 15.02,6.182 21.24,10.751 1.157,0.849 0.037,2.803 -1.134,1.943 -3.547,-2.605 -7.552,-4.665 -11.474,-6.632 -4.522,-2.267 -10.021,-5.134 -15.228,-4.989 -5.808,0.163 4.256,14.685 5.511,16.461 2.668,3.776 5.746,7.261 9.093,10.447 1.686,1.606 3.537,3.01 5.517,4.23 1.06,0.622 2.179,1.122 3.356,1.499 C -0.904,5.311 -0.389,4.567 0.127,3.824 -0.306,2.979 -0.879,2.234 -1.592,1.591 -2.597,0.545 -1.007,-1.048 0,0"
               id="path3097"
               style="fill:#ffffff;fill-opacity:1;fill-rule:nonzero;stroke:none" /></g><g
             transform="translate(430.8477,540.7695)"
             id="g3099"><path
               d="m 0,0 c -0.889,-2.163 -2.202,-4.106 -3.335,-6.143 -0.527,-0.949 0.559,-2.172 1.539,-1.539 1.403,0.906 2.807,1.82 4.378,2.411 1.223,0.459 2.619,0.292 2.37,-1.401 -0.13,-0.883 -1.035,-1.612 -1.687,-2.115 -2.761,-2.129 -6.817,-3.536 -10.268,-3.974 -1.419,-0.18 -1.436,-2.432 0,-2.25 4.444,0.565 11.872,2.606 13.899,7.098 0.909,2.015 -0.137,4.639 -2.353,5.111 -2.566,0.547 -5.469,-1.642 -7.474,-2.937 0.513,-0.513 1.026,-1.026 1.539,-1.539 1.233,2.216 2.595,4.327 3.562,6.679 C 2.722,0.744 0.544,1.322 0,0"
               id="path3101"
               style="fill:#ffffff;fill-opacity:1;fill-rule:nonzero;stroke:none" /></g><g
             transform="translate(465.7578,554.9751)"
             id="g3103"><path
               d="m 0,0 c 0.646,0.623 1.246,1.288 1.8,1.995 0.383,0.461 0.474,1.141 0,1.591 -4.054,3.839 -9.344,-0.807 -12.275,-3.833 -2.417,-2.494 -7.841,-8.433 -5.366,-12.216 C -11.561,-19.002 1.043,2.363 2.616,5.153 1.969,5.532 1.32,5.911 0.673,6.289 -1.31,2.572 -4.029,-2.646 -2.567,-6.967 c 1.587,-4.689 8.19,-1.248 10.785,0.168 1.274,0.695 0.138,2.638 -1.135,1.943 -2.56,-1.396 -7.902,-4.348 -7.762,0.745 0.088,3.207 1.825,6.511 3.295,9.264 0.682,1.278 -1.228,2.403 -1.943,1.136 -3.299,-5.851 -7.199,-12.186 -12.321,-16.595 -1.268,-1.091 -3,-1.421 -2.38,0.754 0.526,1.845 1.823,3.559 2.929,5.088 1.81,2.497 7.835,9.748 11.307,6.459 l 0,1.591 C -0.345,2.879 -0.944,2.214 -1.592,1.591 -2.596,0.544 -1.007,-1.049 0,0"
               id="path3105"
               style="fill:#ffffff;fill-opacity:1;fill-rule:nonzero;stroke:none" /></g><g
             transform="translate(415.6846,495.0898)"
             id="g3107"><path
               d="m 0,0 c 4.027,5.098 6.036,12.074 11.756,15.63 -0.564,0.324 -1.128,0.647 -1.693,0.971 C 9.519,11.39 8.429,6.418 6.148,1.68 6.834,1.391 7.52,1.102 8.205,0.813 c 1.304,6.653 5.175,13.505 10.24,18.016 -0.64,0.265 -1.28,0.53 -1.921,0.795 0.308,-4.928 -0.825,-9.973 -2.795,-14.483 0.686,-0.289 1.372,-0.578 2.057,-0.867 1.356,6.658 5.318,13.352 10.917,17.301 -0.513,0.134 -1.025,0.269 -1.539,0.404 2.009,-4.187 -4.166,-11.146 -0.208,-14.475 1.103,-0.927 2.703,0.656 1.592,1.591 -1.61,1.353 0.753,6.811 1.098,8.429 0.419,1.964 0.328,3.785 -0.539,5.59 -0.25,0.52 -1.067,0.737 -1.539,0.404 C 19.485,19.228 15.097,12.141 13.616,4.872 13.377,3.696 15.135,2.774 15.673,4.005 c 2.128,4.873 3.435,10.277 3.101,15.619 -0.062,0.998 -1.169,1.465 -1.92,0.795 C 11.511,15.661 7.412,8.433 6.035,1.411 5.804,0.23 7.507,-0.671 8.092,0.544 c 2.453,5.099 3.636,10.455 4.221,16.057 0.09,0.858 -1.018,1.39 -1.692,0.971 C 4.583,13.82 2.635,6.94 -1.592,1.591 -2.48,0.466 -0.899,-1.138 0,0"
               id="path3109"
               style="fill:#ffffff;fill-opacity:1;fill-rule:nonzero;stroke:none" /></g><g
             transform="translate(457.2217,517.0972)"
             id="g3111"><path
               d="m 0,0 c -3.71,6.837 -13.559,-7.788 -13.445,-11.906 0.113,-4.131 3.993,-2.793 6.512,-1.503 5.035,2.576 7.105,10.102 9.202,14.848 -0.686,0.29 -1.372,0.579 -2.057,0.867 -1.569,-4.085 -3.053,-8.155 -4.078,-12.415 -0.15,-0.62 0.189,-1.187 0.786,-1.384 C 3.83,-13.778 10.318,0.077 8.008,5.415 7.684,4.851 7.36,4.287 7.036,3.722 9.727,3.532 12.228,4.59 14.813,5.198 14.391,5.75 13.967,6.3 13.543,6.851 10.676,1.387 8.856,-12.533 18.809,-5.738 c 1.19,0.812 0.066,2.763 -1.135,1.942 -3.148,-2.148 -4.747,-1.948 -4.432,2.035 0.199,2.521 1.073,5.245 2.244,7.476 0.464,0.884 -0.29,1.884 -1.27,1.653 C 11.851,6.811 9.492,5.798 7.036,5.972 6.093,6.039 5.758,4.988 6.064,4.279 7.676,0.557 1.95,-10.789 -2.482,-9.323 c 0.261,-0.462 0.524,-0.923 0.786,-1.385 1.025,4.261 2.509,8.331 4.078,12.416 0.456,1.188 -1.543,2.029 -2.057,0.867 -2.211,-5.007 -4.134,-11.861 -9.342,-14.527 -3.969,-2.031 -0.203,5.017 0.258,5.783 0.48,0.795 5.616,7.245 6.816,5.033 C -1.251,-2.411 0.691,-1.275 0,0"
               id="path3113"
               style="fill:#ffffff;fill-opacity:1;fill-rule:nonzero;stroke:none" /></g><g
             transform="translate(485.1924,521.1826)"
             id="g3115"><path
               d="M 0,0 C 1.414,1.812 2.515,3.401 1.403,5.616 0.654,7.107 -2.056,6.645 -3.063,5.88 -6.792,3.05 -10.255,-2.415 -9.177,-7.295 c 1.137,-5.147 8.121,-1.979 10.429,-0.237 4.535,3.423 7.929,8.657 10.888,13.41 3.298,5.301 7.19,12.475 5.963,18.96 -0.916,4.839 -3.614,5.204 -6.458,1.423 C 7.818,21.175 5.15,14.72 2.921,8.811 0.941,3.565 -0.943,-2.94 1.479,-8.33 1.72,-8.865 2.55,-9.051 3.019,-8.733 c 4.079,2.758 5.639,7.474 9.048,10.872 -0.64,0.265 -1.28,0.53 -1.921,0.796 -0.311,-5.024 1.125,-11.613 7.652,-8.113 2.722,1.46 5.18,3.459 6.689,6.195 0.78,1.412 1.469,5.403 -0.497,6.375 -3.649,1.804 -9.776,-4.383 -7.263,-7.982 2.743,-3.93 9.394,-4.112 13.518,-2.665 1.36,0.477 0.776,2.651 -0.598,2.17 C 27.018,-2.008 16.271,-2.374 19.101,2.86 20.605,5.644 23.34,3.593 22.137,1.414 21.393,0.066 19.843,-1.157 18.657,-2.055 17.388,-3.016 15.919,-3.695 14.324,-3.854 11.648,-4.118 12.309,1.524 12.396,2.935 12.459,3.939 11.139,4.391 10.476,3.73 7.253,0.517 5.712,-4.202 1.884,-6.791 2.396,-6.925 2.909,-7.06 3.423,-7.194 c -3.012,6.699 1.73,16.189 4.551,22.207 1.159,2.472 2.458,4.883 3.839,7.237 0.856,1.458 1.675,2.866 2.813,4.131 1.226,1.362 1.09,-6.829 1.014,-7.208 C 14.186,11.957 9.316,5.015 4.843,-0.689 2.797,-3.298 0.383,-5.717 -2.535,-7.322 c -3.562,-1.96 -4.762,2.14 -3.894,4.807 0.376,1.015 0.829,1.993 1.361,2.934 l 0.559,0.932 c 0.6,1.653 1.571,1.733 2.917,0.24 C -2.473,0.462 -0.893,-1.143 0,0"
               id="path3117"
               style="fill:#ffffff;fill-opacity:1;fill-rule:nonzero;stroke:none" /></g><g
             transform="translate(453.958,494.3721)"
             id="g3119"><path
               d="m 0,0 c -1.509,-9.667 -4.207,-19.078 -6.093,-28.671 -0.278,-1.417 1.891,-2.021 2.17,-0.598 1.885,9.593 4.583,19.003 6.093,28.671 C 2.392,0.821 0.224,1.431 0,0"
               id="path3121"
               style="fill:#ffffff;fill-opacity:1;fill-rule:nonzero;stroke:none" /></g><g
             transform="translate(445.6377,456.4414)"
             id="g3123"><path
               d="M 0,0 C 0.073,-0.399 0.444,-0.793 0.845,-0.88 0.969,-0.907 1.096,-0.932 1.223,-0.925 1.431,-0.914 0.922,-0.84 1.057,-0.893 0.892,-0.796 0.726,-0.7 0.561,-0.604 0.466,-0.378 0.371,-0.152 0.276,0.073 0.309,0.27 0.31,0.296 0.278,0.151 0.234,-0.036 0.158,-0.218 0.09,-0.397 -0.129,-0.971 0.327,-1.631 0.876,-1.782 1.51,-1.956 2.041,-1.568 2.26,-0.996 2.464,-0.461 2.684,0.181 2.36,0.72 2.183,1.016 1.95,1.16 1.632,1.286 1.525,1.328 1.397,1.329 1.28,1.33 0.743,1.331 2.135,0.788 2.17,0.599 2.059,1.202 1.338,1.536 0.786,1.384 0.157,1.211 -0.111,0.603 0,0"
               id="path3125"
               style="fill:#ffffff;fill-opacity:1;fill-rule:nonzero;stroke:none" /></g><g
             transform="translate(463.8145,496.7969)"
             id="g3127"><path
               d="m 0,0 c -1.509,-9.668 -4.207,-19.079 -6.093,-28.671 -0.278,-1.417 1.89,-2.021 2.17,-0.599 1.885,9.593 4.583,19.004 6.093,28.671 C 2.392,0.82 0.224,1.43 0,0"
               id="path3129"
               style="fill:#ffffff;fill-opacity:1;fill-rule:nonzero;stroke:none" /></g><g
             transform="translate(455.4941,458.8662)"
             id="g3131"><path
               d="M 0,0 C 0.074,-0.399 0.444,-0.793 0.845,-0.88 0.969,-0.907 1.096,-0.932 1.223,-0.925 1.431,-0.915 0.922,-0.84 1.057,-0.894 0.892,-0.797 0.726,-0.701 0.561,-0.604 0.466,-0.378 0.371,-0.153 0.276,0.072 0.309,0.27 0.31,0.295 0.278,0.151 0.234,-0.037 0.158,-0.219 0.09,-0.398 -0.129,-0.972 0.327,-1.631 0.876,-1.782 1.51,-1.957 2.041,-1.569 2.26,-0.996 2.464,-0.461 2.684,0.18 2.36,0.72 2.183,1.016 1.95,1.16 1.632,1.285 1.525,1.327 1.397,1.329 1.28,1.329 0.743,1.331 2.135,0.787 2.17,0.598 2.059,1.202 1.338,1.536 0.786,1.384 0.157,1.21 -0.111,0.602 0,0"
               id="path3133"
               style="fill:#ffffff;fill-opacity:1;fill-rule:nonzero;stroke:none" /></g><g
             transform="translate(473.6709,499.2207)"
             id="g3135"><path
               d="m 0,0 c -1.509,-9.667 -4.207,-19.078 -6.093,-28.671 -0.278,-1.417 1.891,-2.021 2.17,-0.598 1.885,9.593 4.583,19.003 6.093,28.671 C 2.392,0.821 0.224,1.431 0,0"
               id="path3137"
               style="fill:#ffffff;fill-opacity:1;fill-rule:nonzero;stroke:none" /></g><g
             transform="translate(465.3506,461.29)"
             id="g3139"><path
               d="M 0,0 C 0.073,-0.399 0.444,-0.793 0.845,-0.88 0.969,-0.907 1.096,-0.932 1.223,-0.925 1.431,-0.914 0.922,-0.84 1.057,-0.893 0.892,-0.796 0.726,-0.7 0.561,-0.604 0.466,-0.378 0.371,-0.152 0.276,0.073 0.309,0.27 0.31,0.296 0.278,0.151 0.234,-0.036 0.158,-0.218 0.09,-0.397 -0.129,-0.971 0.327,-1.631 0.876,-1.782 1.51,-1.956 2.041,-1.568 2.26,-0.996 2.464,-0.461 2.684,0.181 2.36,0.72 2.183,1.016 1.95,1.16 1.632,1.286 1.525,1.328 1.397,1.329 1.28,1.33 0.743,1.331 2.135,0.788 2.17,0.599 2.059,1.202 1.338,1.536 0.786,1.384 0.157,1.211 -0.111,0.603 0,0"
               id="path3141"
               style="fill:#ffffff;fill-opacity:1;fill-rule:nonzero;stroke:none" /></g></g></g><g
         id="g3143"><g
           clip-path="url(#clipPath3147)"
           id="g3145"><g
             transform="translate(270.3335,482.666)"
             id="g3151"><path
               d="m 0,0 c 0,0 75,31 84,73.667 0,0 -7.667,-48.667 -19.333,-60 0,0 36.999,15 33.333,72.666 0,0 32,-35.333 19,-94.333 l 5,6 c 0,0 -2,-11.667 -2.333,-16.333 -0.334,-4.667 1.999,-22 -2.667,-29.667 -4.667,-7.667 -9.333,-11.333 -9.333,-11.333 0,0 1,-5.334 0,-8.667 0,0 25.333,25 28,50.667 0,0 0.666,-11 3,-17 0,0 3.333,52.333 4,70.666 0.666,18.334 7.666,121.667 -107,124.667 0,0 -63.001,13.667 -98.334,-40 C -98,67.333 -72,-34 -17,-69.333 c 0,0 -2.334,15 -3.667,20.666 -1.333,5.667 1.667,-10 15.334,-18 l 11.666,-2.666 c 0,0 -9.333,47 -6.333,69.333"
               id="path3153"
               style="fill:#4d4d4d;fill-opacity:1;fill-rule:nonzero;stroke:none" /></g><g
             transform="translate(294.667,512.1665)"
             id="g3155"><path
               d="m 0,0 c 0,0 31.83,4.838 41.415,-15.331 0,0 -7.916,11.998 -40.582,12.331 C -31.833,-2.667 0,0 0,0"
               id="path3157"
               style="fill:#4d4d4d;fill-opacity:1;fill-rule:nonzero;stroke:none" /></g><g
             transform="translate(389.5459,516.9639)"
             id="g3159"><path
               d="m 0,0 c 0,0 -17.713,6.036 -25.046,-12.964 0,0 9.833,13.666 23.5,9.833 C 12.121,-6.964 0.129,-1.003 0,0"
               id="path3161"
               style="fill:#4d4d4d;fill-opacity:1;fill-rule:nonzero;stroke:none" /></g><g
             transform="translate(334.5,470.1665)"
             id="g3163"><path
               d="m 0,0 c 0,0 -5.166,26 -39.333,22.833 0,0 -4.667,2.167 -7,5.667 0,0 1.5,-5 3.833,-6.5 0,0 -6.167,-0.667 -10.167,0.333 0,0 5.167,-3.166 10.334,-3.333 0,0 -1.667,-1 -3.334,-3.833 0,0 25.833,16 45.667,-15.167"
               id="path3165"
               style="fill:#4d4d4d;fill-opacity:1;fill-rule:nonzero;stroke:none" /></g><g
             transform="translate(320.667,478.833)"
             id="g3167"><path
               d="m 0,0 c 0,-5.983 -4.851,-10.833 -10.833,-10.833 -5.983,0 -10.833,4.85 -10.833,10.833 0,5.983 4.85,10.833 10.833,10.833 C -4.851,10.833 0,5.983 0,0"
               id="path3169"
               style="fill:#4d4d4d;fill-opacity:1;fill-rule:nonzero;stroke:none" /></g><g
             transform="translate(320.667,480.5)"
             id="g3171"><path
               d="m 0,0 c 0,-2.854 -2.313,-5.167 -5.167,-5.167 -2.854,0 -5.167,2.313 -5.167,5.167 0,2.854 2.313,5.167 5.167,5.167 C -2.313,5.167 0,2.854 0,0"
               id="path3173"
               style="fill:#ffffff;fill-opacity:1;fill-rule:nonzero;stroke:none" /></g><g
             transform="translate(366,472)"
             id="g3175"><path
               d="m 0,0 c 0,0 4.334,17.332 19.167,17.666 0,0 3.096,1.01 4.167,5.501 0,0 0.167,-6.334 -3,-7.5 0,0 3.666,-0.168 6.666,1.999 0,0 -3,-5.999 -7.333,-5.249 0,0 0.166,-2.584 5.333,-0.834 0,0 -4.332,-5.25 -8.166,0.834 0,0 -8.168,-1.75 -15.334,-14.25 L 2.5,2.5 0,0 z"
               id="path3177"
               style="fill:#4d4d4d;fill-opacity:1;fill-rule:nonzero;stroke:none" /></g><g
             transform="translate(356,457.333)"
             id="g3179"><path
               d="m 0,0 c 0,0 6.667,-1.166 3.167,-10.333 0,0 8.666,9.666 -3.167,10.333"
               id="path3181"
               style="fill:#4d4d4d;fill-opacity:1;fill-rule:nonzero;stroke:none" /></g><g
             transform="translate(315.5,442)"
             id="g3183"><path
               d="m 0,0 c -0.391,-0.525 -0.591,-1.169 -0.557,-1.771 0.023,-0.604 0.275,-1.157 0.643,-1.621 0.752,-0.925 1.832,-1.588 2.959,-2.117 2.263,-1.077 4.752,-1.732 7.236,-2.333 2.492,-0.557 5.041,-1.046 7.592,-1.49 2.546,-0.442 5.083,-0.884 7.631,-1.169 2.542,-0.327 5.089,-0.554 7.633,-0.608 2.545,-0.111 5.083,0.019 7.615,0.255 5.062,0.523 10.042,1.885 14.915,3.854 -4.261,-3.079 -9.297,-5.197 -14.567,-6.185 -2.63,-0.535 -5.318,-0.718 -7.991,-0.779 -2.674,-0.006 -5.339,0.175 -7.975,0.494 -5.281,0.72 -10.385,1.824 -15.471,3.417 -2.528,0.818 -5.036,1.817 -7.331,3.3 -1.114,0.768 -2.243,1.653 -2.929,2.929 -0.332,0.631 -0.517,1.377 -0.397,2.083 C -0.873,-1.039 -0.497,-0.427 0,0"
               id="path3185"
               style="fill:#4d4d4d;fill-opacity:1;fill-rule:nonzero;stroke:none" /></g><g
             transform="translate(318.3818,435.9121)"
             id="g3187"><path
               d="M 0,0 C -1.048,-4.079 19.321,-35.511 42.22,-4.961"
               id="path3189"
               style="fill:none;stroke:#4d4d4d;stroke-width:3;stroke-linecap:butt;stroke-linejoin:miter;stroke-miterlimit:10;stroke-opacity:1;stroke-dasharray:none" /></g><g
             transform="translate(272.8335,426.6782)"
             id="g3191"><path
               d="M 0,0 C 0,0 54.614,-41.709 107.5,-3.678"
               id="path3193"
               style="fill:none;stroke:#4d4d4d;stroke-width:3;stroke-linecap:butt;stroke-linejoin:miter;stroke-miterlimit:10;stroke-opacity:1;stroke-dasharray:none" /></g><g
             transform="translate(342.1348,429.8633)"
             id="g3195"><path
               d="M 0,0 C 0,0 6.327,-3.543 7.43,-9.37"
               id="path3197"
               style="fill:none;stroke:#4d4d4d;stroke-width:3;stroke-linecap:butt;stroke-linejoin:miter;stroke-miterlimit:10;stroke-opacity:1;stroke-dasharray:none" /></g><g
             transform="translate(250.667,353.166)"
             id="g3199"><path
               d="m 0,0 c 0,0 -28.167,5.833 -26,-8 2.167,-13.833 15,-7.333 24,-8.833 C 7,-18.333 12.5,-0.834 4.833,3.5 -2.833,7.834 -5,8 -6,8.5"
               id="path3201"
               style="fill:none;stroke:#4d4d4d;stroke-width:3;stroke-linecap:butt;stroke-linejoin:miter;stroke-miterlimit:10;stroke-opacity:1;stroke-dasharray:none" /></g><g
             transform="translate(229.5,348.873)"
             id="g3203"><path
               d="m 0,0 0.667,-8.707 c 0,0 12.017,-0.834 11.675,5 C 12,2.127 0,0 0,0 z"
               id="path3205"
               style="fill:none;stroke:#4d4d4d;stroke-width:3;stroke-linecap:butt;stroke-linejoin:miter;stroke-miterlimit:10;stroke-opacity:1;stroke-dasharray:none" /></g><g
             transform="translate(251.4248,358.8525)"
             id="g3207"><path
               d="m 0,0 c 0,0 -3.408,8.647 -9.583,12.647 0,0 -2.008,33.667 -1.675,39.167 0.333,5.5 -4.666,9.333 -10,8.333 -5.333,-1 -6.57,-3.833 -5.618,-17.333 0.951,-13.501 2.618,-26.001 4.951,-30.834 2.334,-4.833 9,-2.333 9.834,-1.833"
               id="path3209"
               style="fill:none;stroke:#4d4d4d;stroke-width:3;stroke-linecap:butt;stroke-linejoin:miter;stroke-miterlimit:10;stroke-opacity:1;stroke-dasharray:none" /></g><g
             transform="translate(228.1338,374.7793)"
             id="g3211"><path
               d="m 0,0 c 0,0 -0.124,-4.945 -3.879,-4.779 0,0 -19.921,35.167 -22.588,39.5 -2.667,4.333 -13.167,-2.667 -11.833,-9.167 1.333,-6.5 12.167,-28 21.833,-35.5 9.667,-7.5 12.43,0.333 12.882,1"
               id="path3213"
               style="fill:none;stroke:#4d4d4d;stroke-width:3;stroke-linecap:butt;stroke-linejoin:miter;stroke-miterlimit:10;stroke-opacity:1;stroke-dasharray:none" /></g><g
             transform="translate(212.2285,364.416)"
             id="g3215"><path
               d="m 0,0 c 0,0 -16.062,-8.416 -4.562,-20.583 11.5,-12.167 17.333,-19.334 21.833,-16.667 4.5,2.667 4.871,7.829 2.5,8.914"
               id="path3217"
               style="fill:none;stroke:#4d4d4d;stroke-width:3;stroke-linecap:butt;stroke-linejoin:miter;stroke-miterlimit:10;stroke-opacity:1;stroke-dasharray:none" /></g><g
             transform="translate(224.9146,348.873)"
             id="g3219"><path
               d="M 0,0 C 0,0 -8.581,10.961 -10.081,11.627"
               id="path3221"
               style="fill:none;stroke:#4d4d4d;stroke-width:3;stroke-linecap:butt;stroke-linejoin:miter;stroke-miterlimit:10;stroke-opacity:1;stroke-dasharray:none" /></g><g
             transform="translate(223.167,337.166)"
             id="g3223"><path
               d="m 0,0 c -2.311,-2.99 -1.066,-5.666 4.967,-9.833 0,0 2.913,-0.833 5.306,5.667 2.394,6.5 0,0.666 0,0.666 0,0 -7.44,7.166 -10.273,3.5 z"
               id="path3225"
               style="fill:none;stroke:#4d4d4d;stroke-width:3;stroke-linecap:butt;stroke-linejoin:miter;stroke-miterlimit:10;stroke-opacity:1;stroke-dasharray:none" /></g><g
             transform="translate(203.519,349.251)"
             id="g3227"><path
               d="m 0,0 c 0,0 -6.019,-7.918 -1.519,-15.418 4.5,-7.5 20.08,-9.833 20.08,-9.833 0,0 1.596,-0.305 2.175,3.681"
               id="path3229"
               style="fill:none;stroke:#4d4d4d;stroke-width:3;stroke-linecap:butt;stroke-linejoin:miter;stroke-miterlimit:10;stroke-opacity:1;stroke-dasharray:none" /></g><g
             transform="translate(216.7446,325.1807)"
             id="g3231"><path
               d="M 0,0 C 0,0 -2.164,5.091 3.129,5.955"
               id="path3233"
               style="fill:none;stroke:#4d4d4d;stroke-width:3;stroke-linecap:butt;stroke-linejoin:miter;stroke-miterlimit:10;stroke-opacity:1;stroke-dasharray:none" /></g><g
             transform="translate(229.5,327.166)"
             id="g3235"><path
               d="m 0,0 c 0,0 9.5,-11.832 18.833,-9.166 9.334,2.666 16.271,14.5 10.803,29.333"
               id="path3237"
               style="fill:none;stroke:#4d4d4d;stroke-width:3;stroke-linecap:butt;stroke-linejoin:miter;stroke-miterlimit:10;stroke-opacity:1;stroke-dasharray:none" /></g><g
             transform="translate(224.2549,326.6104)"
             id="g3239"><path
               d="m 0,0 c 0,0 8.746,-16.777 24.412,-13.777 15.667,3 22.833,25.001 25.833,35.167 3,10.166 6,10.852 6,10.852 0,0 19.449,13.707 10.167,31.481 -7.833,15 -15.5,16.668 -15.5,16.668"
               id="path3241"
               style="fill:none;stroke:#4d4d4d;stroke-width:3;stroke-linecap:butt;stroke-linejoin:miter;stroke-miterlimit:10;stroke-opacity:1;stroke-dasharray:none" /></g><g
             transform="translate(241.8491,381.833)"
             id="g3243"><path
               d="M 0,0 C 0,0 14.984,6.833 27.484,-9"
               id="path3245"
               style="fill:none;stroke:#4d4d4d;stroke-width:3;stroke-linecap:butt;stroke-linejoin:miter;stroke-miterlimit:10;stroke-opacity:1;stroke-dasharray:none" /></g><g
             transform="translate(240.9927,386.8154)"
             id="g3247"><path
               d="m 0,0 c 0,0 8.857,8.018 10.432,13.018 1.575,5 10.408,28.834 36.409,5.667 0,0 13.268,-22 26.884,-23.667 0,0 -2.217,16 1.616,23.333"
               id="path3249"
               style="fill:none;stroke:#4d4d4d;stroke-width:3;stroke-linecap:butt;stroke-linejoin:miter;stroke-miterlimit:10;stroke-opacity:1;stroke-dasharray:none" /></g><g
             transform="translate(321.667,407.001)"
             id="g3251"><path
               d="m 0,0 c 0,0 -1.52,-10.221 -0.409,-15.072 0.109,-0.479 0.244,-0.905 0.409,-1.263 1.833,-4 19.5,-6 19.5,-6 0,0 -5.449,-12.834 1.775,-28.5 7.225,-15.666 6.059,-18.178 8.392,-32.172 2.333,-13.994 -1,-37.494 -1,-37.494 l -12.834,-15.667 c 0,0 -43.5,0 -66.5,25 0,0 13.167,13.167 13.334,20.667 0,0 -9.834,21.167 -11.5,27"
               id="path3253"
               style="fill:none;stroke:#4d4d4d;stroke-width:3;stroke-linecap:butt;stroke-linejoin:miter;stroke-miterlimit:10;stroke-opacity:1;stroke-dasharray:none" /></g><g
             transform="translate(300,325.1807)"
             id="g3255"><path
               d="M 0,0 C 0,0 8.167,-11.681 23.667,-8.848 39.167,-6.015 46,6.236 44.5,14.944"
               id="path3257"
               style="fill:none;stroke:#4d4d4d;stroke-width:3;stroke-linecap:butt;stroke-linejoin:miter;stroke-miterlimit:10;stroke-opacity:1;stroke-dasharray:none" /></g><g
             transform="translate(308.2705,384.0195)"
             id="g3259"><path
               d="M 0,0 C 0,0 25.729,-21.854 29.229,-27.187"
               id="path3261"
               style="fill:none;stroke:#4d4d4d;stroke-width:3;stroke-linecap:butt;stroke-linejoin:miter;stroke-miterlimit:10;stroke-opacity:1;stroke-dasharray:none" /></g><g
             transform="translate(336.6689,407.1392)"
             id="g3263"><path
               d="M 0,0 C 0,0 -8.165,-13.472 0,-17.139"
               id="path3265"
               style="fill:none;stroke:#4d4d4d;stroke-width:3;stroke-linecap:butt;stroke-linejoin:miter;stroke-miterlimit:10;stroke-opacity:1;stroke-dasharray:none" /></g><g
             transform="translate(337.5,401)"
             id="g3267"><path
               d="M 0,0 C 0,0 0.042,-11.386 -2.646,-14.776"
               id="path3269"
               style="fill:none;stroke:#4d4d4d;stroke-width:3;stroke-linecap:butt;stroke-linejoin:miter;stroke-miterlimit:10;stroke-opacity:1;stroke-dasharray:none" /></g><g
             transform="translate(351.0137,409.2759)"
             id="g3271"><path
               d="M 0,0 11.214,-14.61 -6.312,-20.27"
               id="path3273"
               style="fill:none;stroke:#4d4d4d;stroke-width:3;stroke-linecap:butt;stroke-linejoin:miter;stroke-miterlimit:10;stroke-opacity:1;stroke-dasharray:none" /></g><g
             transform="translate(349.5645,406)"
             id="g3275"><path
               d="m 0,0 c 0,0 -7.898,-14.627 -3.064,-21.98 l 16.667,-2.187 c 0,0 -14.283,-13.667 -20.225,-25.667"
               id="path3277"
               style="fill:none;stroke:#4d4d4d;stroke-width:3;stroke-linecap:butt;stroke-linejoin:miter;stroke-miterlimit:10;stroke-opacity:1;stroke-dasharray:none" /></g><g
             transform="translate(360.6016,389.0059)"
             id="g3279"><path
               d="M 0,0 -1.488,-6.641"
               id="path3281"
               style="fill:none;stroke:#4d4d4d;stroke-width:3;stroke-linecap:butt;stroke-linejoin:miter;stroke-miterlimit:10;stroke-opacity:1;stroke-dasharray:none" /></g><g
             transform="translate(359.8574,377.166)"
             id="g3283"><path
               d="m 0,0 c 0,0 5.477,-16 14.977,-23.333 9.5,-7.333 5.857,-29.666 -7.489,-31.833"
               id="path3285"
               style="fill:none;stroke:#4d4d4d;stroke-width:3;stroke-linecap:butt;stroke-linejoin:miter;stroke-miterlimit:10;stroke-opacity:1;stroke-dasharray:none" /></g><g
             transform="translate(369.167,322)"
             id="g3287"><path
               d="m 0,0 c 0,0 4.499,-35.001 14.333,-43.834 0,0 -16.667,-7.333 -28.5,-7.333 l -4.666,15.667"
               id="path3289"
               style="fill:none;stroke:#4d4d4d;stroke-width:3;stroke-linecap:butt;stroke-linejoin:miter;stroke-miterlimit:10;stroke-opacity:1;stroke-dasharray:none" /></g><g
             transform="translate(352.0742,350.6885)"
             id="g3291"><path
               d="m 0,0 c 0.747,-2.42 0.498,-4.646 -0.557,-4.971 -1.054,-0.325 -2.514,1.372 -3.261,3.793 -0.747,2.42 -0.498,4.647 0.556,4.972 C -2.207,4.119 -0.747,2.421 0,0 z"
               id="path3293"
               style="fill:none;stroke:#4d4d4d;stroke-width:2;stroke-linecap:butt;stroke-linejoin:miter;stroke-miterlimit:10;stroke-opacity:1;stroke-dasharray:none" /></g><g
             transform="translate(357.9727,328.4727)"
             id="g3295"><path
               d="m 0,0 c 0.399,-2.502 -0.161,-4.67 -1.251,-4.843 -1.09,-0.174 -2.296,1.712 -2.694,4.214 -0.4,2.502 0.161,4.671 1.251,4.844 C -1.604,4.389 -0.398,2.502 0,0 z"
               id="path3297"
               style="fill:none;stroke:#4d4d4d;stroke-width:2;stroke-linecap:butt;stroke-linejoin:miter;stroke-miterlimit:10;stroke-opacity:1;stroke-dasharray:none" /></g><g
             transform="translate(359.0039,303.6914)"
             id="g3299"><path
               d="M 0,0 C -0.174,-2.527 -1.208,-4.514 -2.309,-4.437 -3.41,-4.36 -4.16,-2.252 -3.985,0.275 -3.812,2.803 -2.776,4.79 -1.676,4.713 -0.575,4.637 0.176,2.527 0,0 z"
               id="path3301"
               style="fill:none;stroke:#4d4d4d;stroke-width:2;stroke-linecap:butt;stroke-linejoin:miter;stroke-miterlimit:10;stroke-opacity:1;stroke-dasharray:none" /></g><g
             transform="translate(380.334,343.833)"
             id="g3303"><path
               d="M 0,0 C 0,0 7.666,4.001 14.666,-1.833"
               id="path3305"
               style="fill:none;stroke:#4d4d4d;stroke-width:3;stroke-linecap:butt;stroke-linejoin:miter;stroke-miterlimit:10;stroke-opacity:1;stroke-dasharray:none" /></g><g
             transform="translate(371.167,314.833)"
             id="g3307"><path
               d="m 0,0 c 0,0 13.666,-0.167 14.333,-13.667 0.667,-13.5 -7.166,-14 -7.166,-14"
               id="path3309"
               style="fill:none;stroke:#4d4d4d;stroke-width:3;stroke-linecap:butt;stroke-linejoin:miter;stroke-miterlimit:10;stroke-opacity:1;stroke-dasharray:none" /></g><g
             transform="translate(378.3535,299.2529)"
             id="g3311"><path
               d="M 0,0 C 0,0 0.195,-4.015 -2.829,-6.134"
               id="path3313"
               style="fill:none;stroke:#4d4d4d;stroke-width:3;stroke-linecap:butt;stroke-linejoin:miter;stroke-miterlimit:10;stroke-opacity:1;stroke-dasharray:none" /></g><g
             transform="translate(385.54,294.5)"
             id="g3315"><path
               d="M 0,0 C 0,0 5.461,2.66 4.794,9.33 4.127,16 10.46,31.016 11.627,33.508 12.794,36 17.96,45.5 9.46,57 0.96,68.5 -9.206,85.167 -12.206,95.5 c -3,10.333 -10.537,19.073 -19.436,20.037"
               id="path3317"
               style="fill:none;stroke:#4d4d4d;stroke-width:3;stroke-linecap:butt;stroke-linejoin:miter;stroke-miterlimit:10;stroke-opacity:1;stroke-dasharray:none" /></g><g
             transform="translate(273.6772,293.1191)"
             id="g3319"><path
               d="m 0,0 c 0,0 -10.677,-16.954 -8.01,-39.62 0,0 -14.333,-40.334 -12.5,-74.5 0,0 -4.833,-5.832 -1,-9.666 0,0 8.833,10.667 17.166,3 0,0 3,6.167 0.667,8.5 0,0 22.334,54.832 37.667,67.666 0,0 30.833,8.834 48.333,7.667"
               id="path3321"
               style="fill:none;stroke:#4d4d4d;stroke-width:3;stroke-linecap:butt;stroke-linejoin:miter;stroke-miterlimit:10;stroke-opacity:1;stroke-dasharray:none" /></g><g
             transform="translate(336.6152,254.8398)"
             id="g3323"><path
               d="m 0,0 c 0,0 6.553,-50.673 16.219,-65.007 0,0 -1.682,-4.833 2.159,-5.5 0,0 -1.124,-4.5 3.108,-4.167 0,0 2.399,6.501 10.399,8.667 0,0 2.167,6.166 -1.583,6.333 0,0 -5.049,50.435 5.35,78.884"
               id="path3325"
               style="fill:none;stroke:#4d4d4d;stroke-width:3;stroke-linecap:butt;stroke-linejoin:miter;stroke-miterlimit:10;stroke-opacity:1;stroke-dasharray:none" /></g><g
             transform="translate(299.1611,277.9834)"
             id="g3327"><path
               d="m 0,0 c 0,0 -32.827,-83.818 -33.494,-95.984 0,0 1.958,-4.493 -1.105,-7.079"
               id="path3329"
               style="fill:none;stroke:#4d4d4d;stroke-width:2;stroke-linecap:butt;stroke-linejoin:miter;stroke-miterlimit:10;stroke-opacity:1;stroke-dasharray:none" /></g><g
             transform="translate(347.8809,283.5059)"
             id="g3331"><path
               d="M 0,0 C 0,0 -2.862,-21.642 -7.038,-28.074"
               id="path3333"
               style="fill:none;stroke:#4d4d4d;stroke-width:2;stroke-linecap:butt;stroke-linejoin:miter;stroke-miterlimit:10;stroke-opacity:1;stroke-dasharray:none" /></g><g
             transform="translate(366.917,272.5498)"
             id="g3335"><path
               d="m 0,0 c 0,0 -9.751,-56.884 -2.917,-77.384 0,0 3.557,-3.454 1.278,-7.56"
               id="path3337"
               style="fill:none;stroke:#4d4d4d;stroke-width:2;stroke-linecap:butt;stroke-linejoin:miter;stroke-miterlimit:10;stroke-opacity:1;stroke-dasharray:none" /></g><g
             transform="translate(252.167,169.333)"
             id="g3339"><path
               d="m 0,0 c 0,0 0.833,-4.001 1.167,-5.334 l 2.833,0 c 0,0 0.167,-2.5 1.5,-3.333 1.333,-0.833 17.5,-1 17.5,0 0,1 3.667,8.666 -5,9.833 C 9.333,2.333 6.549,-2.167 6.549,-2.167"
               id="path3341"
               style="fill:none;stroke:#4d4d4d;stroke-width:3;stroke-linecap:butt;stroke-linejoin:miter;stroke-miterlimit:10;stroke-opacity:1;stroke-dasharray:none" /></g><g
             transform="translate(357.0117,180.1484)"
             id="g3343"><path
               d="m 0,0 3.155,-5.982 5.167,0 0.833,4.333 c 0,0 4.201,-4.166 6.101,-4.333 1.899,-0.167 13.272,0 13.272,0 0,0 2.294,3.464 -3.373,5.982 -5.667,2.518 -8.001,3.852 -13.667,8.685"
               id="path3345"
               style="fill:none;stroke:#4d4d4d;stroke-width:3;stroke-linecap:butt;stroke-linejoin:miter;stroke-miterlimit:10;stroke-opacity:1;stroke-dasharray:none" /></g><g
             transform="translate(232.647,331.1357)"
             id="g3347"><path
               d="M 0,0 C 0,0 14.202,-5.968 22.944,7.781"
               id="path3349"
               style="fill:none;stroke:#4d4d4d;stroke-width:3;stroke-linecap:butt;stroke-linejoin:miter;stroke-miterlimit:10;stroke-opacity:1;stroke-dasharray:none" /></g></g></g></g></g></svg>